%TF.GenerationSoftware,KiCad,Pcbnew,(5.1.12)-1*%
%TF.CreationDate,2022-05-26T18:44:23+02:00*%
%TF.ProjectId,esp32solarminer,65737033-3273-46f6-9c61-726d696e6572,0.3*%
%TF.SameCoordinates,Original*%
%TF.FileFunction,Paste,Top*%
%TF.FilePolarity,Positive*%
%FSLAX46Y46*%
G04 Gerber Fmt 4.6, Leading zero omitted, Abs format (unit mm)*
G04 Created by KiCad (PCBNEW (5.1.12)-1) date 2022-05-26 18:44:23*
%MOMM*%
%LPD*%
G01*
G04 APERTURE LIST*
%ADD10R,0.300000X1.750000*%
%ADD11R,1.120000X2.440000*%
%ADD12R,2.440000X1.120000*%
%ADD13R,1.050000X0.650000*%
%ADD14R,0.650000X1.050000*%
%ADD15R,0.900000X0.900000*%
%ADD16R,0.900000X1.500000*%
%ADD17R,1.500000X0.900000*%
%ADD18R,0.650000X1.060000*%
%ADD19R,1.060000X0.650000*%
%ADD20R,2.000000X0.350000*%
G04 APERTURE END LIST*
%TO.C,C101*%
G36*
G01*
X42795000Y-72065000D02*
X42295000Y-72065000D01*
G75*
G02*
X42070000Y-71840000I0J225000D01*
G01*
X42070000Y-71390000D01*
G75*
G02*
X42295000Y-71165000I225000J0D01*
G01*
X42795000Y-71165000D01*
G75*
G02*
X43020000Y-71390000I0J-225000D01*
G01*
X43020000Y-71840000D01*
G75*
G02*
X42795000Y-72065000I-225000J0D01*
G01*
G37*
G36*
G01*
X42795000Y-73615000D02*
X42295000Y-73615000D01*
G75*
G02*
X42070000Y-73390000I0J225000D01*
G01*
X42070000Y-72940000D01*
G75*
G02*
X42295000Y-72715000I225000J0D01*
G01*
X42795000Y-72715000D01*
G75*
G02*
X43020000Y-72940000I0J-225000D01*
G01*
X43020000Y-73390000D01*
G75*
G02*
X42795000Y-73615000I-225000J0D01*
G01*
G37*
%TD*%
%TO.C,C102*%
G36*
G01*
X175850000Y-101985000D02*
X175850000Y-102485000D01*
G75*
G02*
X175625000Y-102710000I-225000J0D01*
G01*
X175175000Y-102710000D01*
G75*
G02*
X174950000Y-102485000I0J225000D01*
G01*
X174950000Y-101985000D01*
G75*
G02*
X175175000Y-101760000I225000J0D01*
G01*
X175625000Y-101760000D01*
G75*
G02*
X175850000Y-101985000I0J-225000D01*
G01*
G37*
G36*
G01*
X174300000Y-101985000D02*
X174300000Y-102485000D01*
G75*
G02*
X174075000Y-102710000I-225000J0D01*
G01*
X173625000Y-102710000D01*
G75*
G02*
X173400000Y-102485000I0J225000D01*
G01*
X173400000Y-101985000D01*
G75*
G02*
X173625000Y-101760000I225000J0D01*
G01*
X174075000Y-101760000D01*
G75*
G02*
X174300000Y-101985000I0J-225000D01*
G01*
G37*
%TD*%
%TO.C,C103*%
G36*
G01*
X140785000Y-21340000D02*
X140785000Y-21840000D01*
G75*
G02*
X140560000Y-22065000I-225000J0D01*
G01*
X140110000Y-22065000D01*
G75*
G02*
X139885000Y-21840000I0J225000D01*
G01*
X139885000Y-21340000D01*
G75*
G02*
X140110000Y-21115000I225000J0D01*
G01*
X140560000Y-21115000D01*
G75*
G02*
X140785000Y-21340000I0J-225000D01*
G01*
G37*
G36*
G01*
X142335000Y-21340000D02*
X142335000Y-21840000D01*
G75*
G02*
X142110000Y-22065000I-225000J0D01*
G01*
X141660000Y-22065000D01*
G75*
G02*
X141435000Y-21840000I0J225000D01*
G01*
X141435000Y-21340000D01*
G75*
G02*
X141660000Y-21115000I225000J0D01*
G01*
X142110000Y-21115000D01*
G75*
G02*
X142335000Y-21340000I0J-225000D01*
G01*
G37*
%TD*%
%TO.C,C104*%
G36*
G01*
X140520000Y-39620000D02*
X140520000Y-39120000D01*
G75*
G02*
X140745000Y-38895000I225000J0D01*
G01*
X141195000Y-38895000D01*
G75*
G02*
X141420000Y-39120000I0J-225000D01*
G01*
X141420000Y-39620000D01*
G75*
G02*
X141195000Y-39845000I-225000J0D01*
G01*
X140745000Y-39845000D01*
G75*
G02*
X140520000Y-39620000I0J225000D01*
G01*
G37*
G36*
G01*
X138970000Y-39620000D02*
X138970000Y-39120000D01*
G75*
G02*
X139195000Y-38895000I225000J0D01*
G01*
X139645000Y-38895000D01*
G75*
G02*
X139870000Y-39120000I0J-225000D01*
G01*
X139870000Y-39620000D01*
G75*
G02*
X139645000Y-39845000I-225000J0D01*
G01*
X139195000Y-39845000D01*
G75*
G02*
X138970000Y-39620000I0J225000D01*
G01*
G37*
%TD*%
%TO.C,C105*%
G36*
G01*
X52380000Y-76585000D02*
X52380000Y-77085000D01*
G75*
G02*
X52155000Y-77310000I-225000J0D01*
G01*
X51705000Y-77310000D01*
G75*
G02*
X51480000Y-77085000I0J225000D01*
G01*
X51480000Y-76585000D01*
G75*
G02*
X51705000Y-76360000I225000J0D01*
G01*
X52155000Y-76360000D01*
G75*
G02*
X52380000Y-76585000I0J-225000D01*
G01*
G37*
G36*
G01*
X53930000Y-76585000D02*
X53930000Y-77085000D01*
G75*
G02*
X53705000Y-77310000I-225000J0D01*
G01*
X53255000Y-77310000D01*
G75*
G02*
X53030000Y-77085000I0J225000D01*
G01*
X53030000Y-76585000D01*
G75*
G02*
X53255000Y-76360000I225000J0D01*
G01*
X53705000Y-76360000D01*
G75*
G02*
X53930000Y-76585000I0J-225000D01*
G01*
G37*
%TD*%
%TO.C,C106*%
G36*
G01*
X179320000Y-93020000D02*
X178820000Y-93020000D01*
G75*
G02*
X178595000Y-92795000I0J225000D01*
G01*
X178595000Y-92345000D01*
G75*
G02*
X178820000Y-92120000I225000J0D01*
G01*
X179320000Y-92120000D01*
G75*
G02*
X179545000Y-92345000I0J-225000D01*
G01*
X179545000Y-92795000D01*
G75*
G02*
X179320000Y-93020000I-225000J0D01*
G01*
G37*
G36*
G01*
X179320000Y-94570000D02*
X178820000Y-94570000D01*
G75*
G02*
X178595000Y-94345000I0J225000D01*
G01*
X178595000Y-93895000D01*
G75*
G02*
X178820000Y-93670000I225000J0D01*
G01*
X179320000Y-93670000D01*
G75*
G02*
X179545000Y-93895000I0J-225000D01*
G01*
X179545000Y-94345000D01*
G75*
G02*
X179320000Y-94570000I-225000J0D01*
G01*
G37*
%TD*%
%TO.C,C107*%
G36*
G01*
X48645000Y-72715000D02*
X49145000Y-72715000D01*
G75*
G02*
X49370000Y-72940000I0J-225000D01*
G01*
X49370000Y-73390000D01*
G75*
G02*
X49145000Y-73615000I-225000J0D01*
G01*
X48645000Y-73615000D01*
G75*
G02*
X48420000Y-73390000I0J225000D01*
G01*
X48420000Y-72940000D01*
G75*
G02*
X48645000Y-72715000I225000J0D01*
G01*
G37*
G36*
G01*
X48645000Y-71165000D02*
X49145000Y-71165000D01*
G75*
G02*
X49370000Y-71390000I0J-225000D01*
G01*
X49370000Y-71840000D01*
G75*
G02*
X49145000Y-72065000I-225000J0D01*
G01*
X48645000Y-72065000D01*
G75*
G02*
X48420000Y-71840000I0J225000D01*
G01*
X48420000Y-71390000D01*
G75*
G02*
X48645000Y-71165000I225000J0D01*
G01*
G37*
%TD*%
%TO.C,C108*%
G36*
G01*
X173260000Y-96135000D02*
X173260000Y-95635000D01*
G75*
G02*
X173485000Y-95410000I225000J0D01*
G01*
X173935000Y-95410000D01*
G75*
G02*
X174160000Y-95635000I0J-225000D01*
G01*
X174160000Y-96135000D01*
G75*
G02*
X173935000Y-96360000I-225000J0D01*
G01*
X173485000Y-96360000D01*
G75*
G02*
X173260000Y-96135000I0J225000D01*
G01*
G37*
G36*
G01*
X174810000Y-96135000D02*
X174810000Y-95635000D01*
G75*
G02*
X175035000Y-95410000I225000J0D01*
G01*
X175485000Y-95410000D01*
G75*
G02*
X175710000Y-95635000I0J-225000D01*
G01*
X175710000Y-96135000D01*
G75*
G02*
X175485000Y-96360000I-225000J0D01*
G01*
X175035000Y-96360000D01*
G75*
G02*
X174810000Y-96135000I0J225000D01*
G01*
G37*
%TD*%
%TO.C,C109*%
G36*
G01*
X139605000Y-29460000D02*
X139605000Y-28960000D01*
G75*
G02*
X139830000Y-28735000I225000J0D01*
G01*
X140280000Y-28735000D01*
G75*
G02*
X140505000Y-28960000I0J-225000D01*
G01*
X140505000Y-29460000D01*
G75*
G02*
X140280000Y-29685000I-225000J0D01*
G01*
X139830000Y-29685000D01*
G75*
G02*
X139605000Y-29460000I0J225000D01*
G01*
G37*
G36*
G01*
X141155000Y-29460000D02*
X141155000Y-28960000D01*
G75*
G02*
X141380000Y-28735000I225000J0D01*
G01*
X141830000Y-28735000D01*
G75*
G02*
X142055000Y-28960000I0J-225000D01*
G01*
X142055000Y-29460000D01*
G75*
G02*
X141830000Y-29685000I-225000J0D01*
G01*
X141380000Y-29685000D01*
G75*
G02*
X141155000Y-29460000I0J225000D01*
G01*
G37*
%TD*%
%TO.C,C110*%
G36*
G01*
X60075000Y-72960000D02*
X60575000Y-72960000D01*
G75*
G02*
X60800000Y-73185000I0J-225000D01*
G01*
X60800000Y-73635000D01*
G75*
G02*
X60575000Y-73860000I-225000J0D01*
G01*
X60075000Y-73860000D01*
G75*
G02*
X59850000Y-73635000I0J225000D01*
G01*
X59850000Y-73185000D01*
G75*
G02*
X60075000Y-72960000I225000J0D01*
G01*
G37*
G36*
G01*
X60075000Y-71410000D02*
X60575000Y-71410000D01*
G75*
G02*
X60800000Y-71635000I0J-225000D01*
G01*
X60800000Y-72085000D01*
G75*
G02*
X60575000Y-72310000I-225000J0D01*
G01*
X60075000Y-72310000D01*
G75*
G02*
X59850000Y-72085000I0J225000D01*
G01*
X59850000Y-71635000D01*
G75*
G02*
X60075000Y-71410000I225000J0D01*
G01*
G37*
%TD*%
%TO.C,C111*%
G36*
G01*
X173665000Y-82300000D02*
X173665000Y-82800000D01*
G75*
G02*
X173440000Y-83025000I-225000J0D01*
G01*
X172990000Y-83025000D01*
G75*
G02*
X172765000Y-82800000I0J225000D01*
G01*
X172765000Y-82300000D01*
G75*
G02*
X172990000Y-82075000I225000J0D01*
G01*
X173440000Y-82075000D01*
G75*
G02*
X173665000Y-82300000I0J-225000D01*
G01*
G37*
G36*
G01*
X175215000Y-82300000D02*
X175215000Y-82800000D01*
G75*
G02*
X174990000Y-83025000I-225000J0D01*
G01*
X174540000Y-83025000D01*
G75*
G02*
X174315000Y-82800000I0J225000D01*
G01*
X174315000Y-82300000D01*
G75*
G02*
X174540000Y-82075000I225000J0D01*
G01*
X174990000Y-82075000D01*
G75*
G02*
X175215000Y-82300000I0J-225000D01*
G01*
G37*
%TD*%
%TO.C,C112*%
G36*
G01*
X60075000Y-76525000D02*
X60575000Y-76525000D01*
G75*
G02*
X60800000Y-76750000I0J-225000D01*
G01*
X60800000Y-77200000D01*
G75*
G02*
X60575000Y-77425000I-225000J0D01*
G01*
X60075000Y-77425000D01*
G75*
G02*
X59850000Y-77200000I0J225000D01*
G01*
X59850000Y-76750000D01*
G75*
G02*
X60075000Y-76525000I225000J0D01*
G01*
G37*
G36*
G01*
X60075000Y-74975000D02*
X60575000Y-74975000D01*
G75*
G02*
X60800000Y-75200000I0J-225000D01*
G01*
X60800000Y-75650000D01*
G75*
G02*
X60575000Y-75875000I-225000J0D01*
G01*
X60075000Y-75875000D01*
G75*
G02*
X59850000Y-75650000I0J225000D01*
G01*
X59850000Y-75200000D01*
G75*
G02*
X60075000Y-74975000I225000J0D01*
G01*
G37*
%TD*%
%TO.C,C113*%
G36*
G01*
X174160000Y-77220000D02*
X174160000Y-77720000D01*
G75*
G02*
X173935000Y-77945000I-225000J0D01*
G01*
X173485000Y-77945000D01*
G75*
G02*
X173260000Y-77720000I0J225000D01*
G01*
X173260000Y-77220000D01*
G75*
G02*
X173485000Y-76995000I225000J0D01*
G01*
X173935000Y-76995000D01*
G75*
G02*
X174160000Y-77220000I0J-225000D01*
G01*
G37*
G36*
G01*
X175710000Y-77220000D02*
X175710000Y-77720000D01*
G75*
G02*
X175485000Y-77945000I-225000J0D01*
G01*
X175035000Y-77945000D01*
G75*
G02*
X174810000Y-77720000I0J225000D01*
G01*
X174810000Y-77220000D01*
G75*
G02*
X175035000Y-76995000I225000J0D01*
G01*
X175485000Y-76995000D01*
G75*
G02*
X175710000Y-77220000I0J-225000D01*
G01*
G37*
%TD*%
%TO.C,C114*%
G36*
G01*
X112440000Y-49780000D02*
X112440000Y-49280000D01*
G75*
G02*
X112665000Y-49055000I225000J0D01*
G01*
X113115000Y-49055000D01*
G75*
G02*
X113340000Y-49280000I0J-225000D01*
G01*
X113340000Y-49780000D01*
G75*
G02*
X113115000Y-50005000I-225000J0D01*
G01*
X112665000Y-50005000D01*
G75*
G02*
X112440000Y-49780000I0J225000D01*
G01*
G37*
G36*
G01*
X113990000Y-49780000D02*
X113990000Y-49280000D01*
G75*
G02*
X114215000Y-49055000I225000J0D01*
G01*
X114665000Y-49055000D01*
G75*
G02*
X114890000Y-49280000I0J-225000D01*
G01*
X114890000Y-49780000D01*
G75*
G02*
X114665000Y-50005000I-225000J0D01*
G01*
X114215000Y-50005000D01*
G75*
G02*
X113990000Y-49780000I0J225000D01*
G01*
G37*
%TD*%
%TO.C,C115*%
G36*
G01*
X107995000Y-49780000D02*
X107995000Y-49280000D01*
G75*
G02*
X108220000Y-49055000I225000J0D01*
G01*
X108670000Y-49055000D01*
G75*
G02*
X108895000Y-49280000I0J-225000D01*
G01*
X108895000Y-49780000D01*
G75*
G02*
X108670000Y-50005000I-225000J0D01*
G01*
X108220000Y-50005000D01*
G75*
G02*
X107995000Y-49780000I0J225000D01*
G01*
G37*
G36*
G01*
X109545000Y-49780000D02*
X109545000Y-49280000D01*
G75*
G02*
X109770000Y-49055000I225000J0D01*
G01*
X110220000Y-49055000D01*
G75*
G02*
X110445000Y-49280000I0J-225000D01*
G01*
X110445000Y-49780000D01*
G75*
G02*
X110220000Y-50005000I-225000J0D01*
G01*
X109770000Y-50005000D01*
G75*
G02*
X109545000Y-49780000I0J225000D01*
G01*
G37*
%TD*%
%TO.C,C116*%
G36*
G01*
X42795000Y-105225000D02*
X42295000Y-105225000D01*
G75*
G02*
X42070000Y-105000000I0J225000D01*
G01*
X42070000Y-104550000D01*
G75*
G02*
X42295000Y-104325000I225000J0D01*
G01*
X42795000Y-104325000D01*
G75*
G02*
X43020000Y-104550000I0J-225000D01*
G01*
X43020000Y-105000000D01*
G75*
G02*
X42795000Y-105225000I-225000J0D01*
G01*
G37*
G36*
G01*
X42795000Y-106775000D02*
X42295000Y-106775000D01*
G75*
G02*
X42070000Y-106550000I0J225000D01*
G01*
X42070000Y-106100000D01*
G75*
G02*
X42295000Y-105875000I225000J0D01*
G01*
X42795000Y-105875000D01*
G75*
G02*
X43020000Y-106100000I0J-225000D01*
G01*
X43020000Y-106550000D01*
G75*
G02*
X42795000Y-106775000I-225000J0D01*
G01*
G37*
%TD*%
%TO.C,C117*%
G36*
G01*
X208665000Y-93390000D02*
X209165000Y-93390000D01*
G75*
G02*
X209390000Y-93615000I0J-225000D01*
G01*
X209390000Y-94065000D01*
G75*
G02*
X209165000Y-94290000I-225000J0D01*
G01*
X208665000Y-94290000D01*
G75*
G02*
X208440000Y-94065000I0J225000D01*
G01*
X208440000Y-93615000D01*
G75*
G02*
X208665000Y-93390000I225000J0D01*
G01*
G37*
G36*
G01*
X208665000Y-94940000D02*
X209165000Y-94940000D01*
G75*
G02*
X209390000Y-95165000I0J-225000D01*
G01*
X209390000Y-95615000D01*
G75*
G02*
X209165000Y-95840000I-225000J0D01*
G01*
X208665000Y-95840000D01*
G75*
G02*
X208440000Y-95615000I0J225000D01*
G01*
X208440000Y-95165000D01*
G75*
G02*
X208665000Y-94940000I225000J0D01*
G01*
G37*
%TD*%
%TO.C,C118*%
G36*
G01*
X54070000Y-109605000D02*
X54070000Y-110105000D01*
G75*
G02*
X53845000Y-110330000I-225000J0D01*
G01*
X53395000Y-110330000D01*
G75*
G02*
X53170000Y-110105000I0J225000D01*
G01*
X53170000Y-109605000D01*
G75*
G02*
X53395000Y-109380000I225000J0D01*
G01*
X53845000Y-109380000D01*
G75*
G02*
X54070000Y-109605000I0J-225000D01*
G01*
G37*
G36*
G01*
X52520000Y-109605000D02*
X52520000Y-110105000D01*
G75*
G02*
X52295000Y-110330000I-225000J0D01*
G01*
X51845000Y-110330000D01*
G75*
G02*
X51620000Y-110105000I0J225000D01*
G01*
X51620000Y-109605000D01*
G75*
G02*
X51845000Y-109380000I225000J0D01*
G01*
X52295000Y-109380000D01*
G75*
G02*
X52520000Y-109605000I0J-225000D01*
G01*
G37*
%TD*%
%TO.C,C119*%
G36*
G01*
X199080000Y-100580000D02*
X199080000Y-100080000D01*
G75*
G02*
X199305000Y-99855000I225000J0D01*
G01*
X199755000Y-99855000D01*
G75*
G02*
X199980000Y-100080000I0J-225000D01*
G01*
X199980000Y-100580000D01*
G75*
G02*
X199755000Y-100805000I-225000J0D01*
G01*
X199305000Y-100805000D01*
G75*
G02*
X199080000Y-100580000I0J225000D01*
G01*
G37*
G36*
G01*
X197530000Y-100580000D02*
X197530000Y-100080000D01*
G75*
G02*
X197755000Y-99855000I225000J0D01*
G01*
X198205000Y-99855000D01*
G75*
G02*
X198430000Y-100080000I0J-225000D01*
G01*
X198430000Y-100580000D01*
G75*
G02*
X198205000Y-100805000I-225000J0D01*
G01*
X197755000Y-100805000D01*
G75*
G02*
X197530000Y-100580000I0J225000D01*
G01*
G37*
%TD*%
%TO.C,C120*%
G36*
G01*
X109315000Y-21340000D02*
X109315000Y-21840000D01*
G75*
G02*
X109090000Y-22065000I-225000J0D01*
G01*
X108640000Y-22065000D01*
G75*
G02*
X108415000Y-21840000I0J225000D01*
G01*
X108415000Y-21340000D01*
G75*
G02*
X108640000Y-21115000I225000J0D01*
G01*
X109090000Y-21115000D01*
G75*
G02*
X109315000Y-21340000I0J-225000D01*
G01*
G37*
G36*
G01*
X107765000Y-21340000D02*
X107765000Y-21840000D01*
G75*
G02*
X107540000Y-22065000I-225000J0D01*
G01*
X107090000Y-22065000D01*
G75*
G02*
X106865000Y-21840000I0J225000D01*
G01*
X106865000Y-21340000D01*
G75*
G02*
X107090000Y-21115000I225000J0D01*
G01*
X107540000Y-21115000D01*
G75*
G02*
X107765000Y-21340000I0J-225000D01*
G01*
G37*
%TD*%
%TO.C,C121*%
G36*
G01*
X108135000Y-40255000D02*
X108135000Y-39755000D01*
G75*
G02*
X108360000Y-39530000I225000J0D01*
G01*
X108810000Y-39530000D01*
G75*
G02*
X109035000Y-39755000I0J-225000D01*
G01*
X109035000Y-40255000D01*
G75*
G02*
X108810000Y-40480000I-225000J0D01*
G01*
X108360000Y-40480000D01*
G75*
G02*
X108135000Y-40255000I0J225000D01*
G01*
G37*
G36*
G01*
X106585000Y-40255000D02*
X106585000Y-39755000D01*
G75*
G02*
X106810000Y-39530000I225000J0D01*
G01*
X107260000Y-39530000D01*
G75*
G02*
X107485000Y-39755000I0J-225000D01*
G01*
X107485000Y-40255000D01*
G75*
G02*
X107260000Y-40480000I-225000J0D01*
G01*
X106810000Y-40480000D01*
G75*
G02*
X106585000Y-40255000I0J225000D01*
G01*
G37*
%TD*%
%TO.C,C122*%
G36*
G01*
X48645000Y-104185000D02*
X49145000Y-104185000D01*
G75*
G02*
X49370000Y-104410000I0J-225000D01*
G01*
X49370000Y-104860000D01*
G75*
G02*
X49145000Y-105085000I-225000J0D01*
G01*
X48645000Y-105085000D01*
G75*
G02*
X48420000Y-104860000I0J225000D01*
G01*
X48420000Y-104410000D01*
G75*
G02*
X48645000Y-104185000I225000J0D01*
G01*
G37*
G36*
G01*
X48645000Y-105735000D02*
X49145000Y-105735000D01*
G75*
G02*
X49370000Y-105960000I0J-225000D01*
G01*
X49370000Y-106410000D01*
G75*
G02*
X49145000Y-106635000I-225000J0D01*
G01*
X48645000Y-106635000D01*
G75*
G02*
X48420000Y-106410000I0J225000D01*
G01*
X48420000Y-105960000D01*
G75*
G02*
X48645000Y-105735000I225000J0D01*
G01*
G37*
%TD*%
%TO.C,C123*%
G36*
G01*
X202315000Y-94800000D02*
X202815000Y-94800000D01*
G75*
G02*
X203040000Y-95025000I0J-225000D01*
G01*
X203040000Y-95475000D01*
G75*
G02*
X202815000Y-95700000I-225000J0D01*
G01*
X202315000Y-95700000D01*
G75*
G02*
X202090000Y-95475000I0J225000D01*
G01*
X202090000Y-95025000D01*
G75*
G02*
X202315000Y-94800000I225000J0D01*
G01*
G37*
G36*
G01*
X202315000Y-93250000D02*
X202815000Y-93250000D01*
G75*
G02*
X203040000Y-93475000I0J-225000D01*
G01*
X203040000Y-93925000D01*
G75*
G02*
X202815000Y-94150000I-225000J0D01*
G01*
X202315000Y-94150000D01*
G75*
G02*
X202090000Y-93925000I0J225000D01*
G01*
X202090000Y-93475000D01*
G75*
G02*
X202315000Y-93250000I225000J0D01*
G01*
G37*
%TD*%
%TO.C,C124*%
G36*
G01*
X108135000Y-29460000D02*
X108135000Y-28960000D01*
G75*
G02*
X108360000Y-28735000I225000J0D01*
G01*
X108810000Y-28735000D01*
G75*
G02*
X109035000Y-28960000I0J-225000D01*
G01*
X109035000Y-29460000D01*
G75*
G02*
X108810000Y-29685000I-225000J0D01*
G01*
X108360000Y-29685000D01*
G75*
G02*
X108135000Y-29460000I0J225000D01*
G01*
G37*
G36*
G01*
X106585000Y-29460000D02*
X106585000Y-28960000D01*
G75*
G02*
X106810000Y-28735000I225000J0D01*
G01*
X107260000Y-28735000D01*
G75*
G02*
X107485000Y-28960000I0J-225000D01*
G01*
X107485000Y-29460000D01*
G75*
G02*
X107260000Y-29685000I-225000J0D01*
G01*
X106810000Y-29685000D01*
G75*
G02*
X106585000Y-29460000I0J225000D01*
G01*
G37*
%TD*%
%TO.C,C125*%
G36*
G01*
X61345000Y-104605000D02*
X61845000Y-104605000D01*
G75*
G02*
X62070000Y-104830000I0J-225000D01*
G01*
X62070000Y-105280000D01*
G75*
G02*
X61845000Y-105505000I-225000J0D01*
G01*
X61345000Y-105505000D01*
G75*
G02*
X61120000Y-105280000I0J225000D01*
G01*
X61120000Y-104830000D01*
G75*
G02*
X61345000Y-104605000I225000J0D01*
G01*
G37*
G36*
G01*
X61345000Y-103055000D02*
X61845000Y-103055000D01*
G75*
G02*
X62070000Y-103280000I0J-225000D01*
G01*
X62070000Y-103730000D01*
G75*
G02*
X61845000Y-103955000I-225000J0D01*
G01*
X61345000Y-103955000D01*
G75*
G02*
X61120000Y-103730000I0J225000D01*
G01*
X61120000Y-103280000D01*
G75*
G02*
X61345000Y-103055000I225000J0D01*
G01*
G37*
%TD*%
%TO.C,C126*%
G36*
G01*
X190115000Y-97465000D02*
X189615000Y-97465000D01*
G75*
G02*
X189390000Y-97240000I0J225000D01*
G01*
X189390000Y-96790000D01*
G75*
G02*
X189615000Y-96565000I225000J0D01*
G01*
X190115000Y-96565000D01*
G75*
G02*
X190340000Y-96790000I0J-225000D01*
G01*
X190340000Y-97240000D01*
G75*
G02*
X190115000Y-97465000I-225000J0D01*
G01*
G37*
G36*
G01*
X190115000Y-99015000D02*
X189615000Y-99015000D01*
G75*
G02*
X189390000Y-98790000I0J225000D01*
G01*
X189390000Y-98340000D01*
G75*
G02*
X189615000Y-98115000I225000J0D01*
G01*
X190115000Y-98115000D01*
G75*
G02*
X190340000Y-98340000I0J-225000D01*
G01*
X190340000Y-98790000D01*
G75*
G02*
X190115000Y-99015000I-225000J0D01*
G01*
G37*
%TD*%
%TO.C,C127*%
G36*
G01*
X61345000Y-107360000D02*
X61845000Y-107360000D01*
G75*
G02*
X62070000Y-107585000I0J-225000D01*
G01*
X62070000Y-108035000D01*
G75*
G02*
X61845000Y-108260000I-225000J0D01*
G01*
X61345000Y-108260000D01*
G75*
G02*
X61120000Y-108035000I0J225000D01*
G01*
X61120000Y-107585000D01*
G75*
G02*
X61345000Y-107360000I225000J0D01*
G01*
G37*
G36*
G01*
X61345000Y-108910000D02*
X61845000Y-108910000D01*
G75*
G02*
X62070000Y-109135000I0J-225000D01*
G01*
X62070000Y-109585000D01*
G75*
G02*
X61845000Y-109810000I-225000J0D01*
G01*
X61345000Y-109810000D01*
G75*
G02*
X61120000Y-109585000I0J225000D01*
G01*
X61120000Y-109135000D01*
G75*
G02*
X61345000Y-108910000I225000J0D01*
G01*
G37*
%TD*%
%TO.C,C128*%
G36*
G01*
X189480000Y-93655000D02*
X188980000Y-93655000D01*
G75*
G02*
X188755000Y-93430000I0J225000D01*
G01*
X188755000Y-92980000D01*
G75*
G02*
X188980000Y-92755000I225000J0D01*
G01*
X189480000Y-92755000D01*
G75*
G02*
X189705000Y-92980000I0J-225000D01*
G01*
X189705000Y-93430000D01*
G75*
G02*
X189480000Y-93655000I-225000J0D01*
G01*
G37*
G36*
G01*
X189480000Y-95205000D02*
X188980000Y-95205000D01*
G75*
G02*
X188755000Y-94980000I0J225000D01*
G01*
X188755000Y-94530000D01*
G75*
G02*
X188980000Y-94305000I225000J0D01*
G01*
X189480000Y-94305000D01*
G75*
G02*
X189705000Y-94530000I0J-225000D01*
G01*
X189705000Y-94980000D01*
G75*
G02*
X189480000Y-95205000I-225000J0D01*
G01*
G37*
%TD*%
%TO.C,C129*%
G36*
G01*
X112645000Y-39680000D02*
X112145000Y-39680000D01*
G75*
G02*
X111920000Y-39455000I0J225000D01*
G01*
X111920000Y-39005000D01*
G75*
G02*
X112145000Y-38780000I225000J0D01*
G01*
X112645000Y-38780000D01*
G75*
G02*
X112870000Y-39005000I0J-225000D01*
G01*
X112870000Y-39455000D01*
G75*
G02*
X112645000Y-39680000I-225000J0D01*
G01*
G37*
G36*
G01*
X112645000Y-41230000D02*
X112145000Y-41230000D01*
G75*
G02*
X111920000Y-41005000I0J225000D01*
G01*
X111920000Y-40555000D01*
G75*
G02*
X112145000Y-40330000I225000J0D01*
G01*
X112645000Y-40330000D01*
G75*
G02*
X112870000Y-40555000I0J-225000D01*
G01*
X112870000Y-41005000D01*
G75*
G02*
X112645000Y-41230000I-225000J0D01*
G01*
G37*
%TD*%
%TO.C,C130*%
G36*
G01*
X112860000Y-45035000D02*
X112360000Y-45035000D01*
G75*
G02*
X112135000Y-44810000I0J225000D01*
G01*
X112135000Y-44360000D01*
G75*
G02*
X112360000Y-44135000I225000J0D01*
G01*
X112860000Y-44135000D01*
G75*
G02*
X113085000Y-44360000I0J-225000D01*
G01*
X113085000Y-44810000D01*
G75*
G02*
X112860000Y-45035000I-225000J0D01*
G01*
G37*
G36*
G01*
X112860000Y-43485000D02*
X112360000Y-43485000D01*
G75*
G02*
X112135000Y-43260000I0J225000D01*
G01*
X112135000Y-42810000D01*
G75*
G02*
X112360000Y-42585000I225000J0D01*
G01*
X112860000Y-42585000D01*
G75*
G02*
X113085000Y-42810000I0J-225000D01*
G01*
X113085000Y-43260000D01*
G75*
G02*
X112860000Y-43485000I-225000J0D01*
G01*
G37*
%TD*%
%TO.C,C131*%
G36*
G01*
X107765000Y-101985000D02*
X107765000Y-102485000D01*
G75*
G02*
X107540000Y-102710000I-225000J0D01*
G01*
X107090000Y-102710000D01*
G75*
G02*
X106865000Y-102485000I0J225000D01*
G01*
X106865000Y-101985000D01*
G75*
G02*
X107090000Y-101760000I225000J0D01*
G01*
X107540000Y-101760000D01*
G75*
G02*
X107765000Y-101985000I0J-225000D01*
G01*
G37*
G36*
G01*
X109315000Y-101985000D02*
X109315000Y-102485000D01*
G75*
G02*
X109090000Y-102710000I-225000J0D01*
G01*
X108640000Y-102710000D01*
G75*
G02*
X108415000Y-102485000I0J225000D01*
G01*
X108415000Y-101985000D01*
G75*
G02*
X108640000Y-101760000I225000J0D01*
G01*
X109090000Y-101760000D01*
G75*
G02*
X109315000Y-101985000I0J-225000D01*
G01*
G37*
%TD*%
%TO.C,C132*%
G36*
G01*
X202815000Y-63595000D02*
X202315000Y-63595000D01*
G75*
G02*
X202090000Y-63370000I0J225000D01*
G01*
X202090000Y-62920000D01*
G75*
G02*
X202315000Y-62695000I225000J0D01*
G01*
X202815000Y-62695000D01*
G75*
G02*
X203040000Y-62920000I0J-225000D01*
G01*
X203040000Y-63370000D01*
G75*
G02*
X202815000Y-63595000I-225000J0D01*
G01*
G37*
G36*
G01*
X202815000Y-62045000D02*
X202315000Y-62045000D01*
G75*
G02*
X202090000Y-61820000I0J225000D01*
G01*
X202090000Y-61370000D01*
G75*
G02*
X202315000Y-61145000I225000J0D01*
G01*
X202815000Y-61145000D01*
G75*
G02*
X203040000Y-61370000I0J-225000D01*
G01*
X203040000Y-61820000D01*
G75*
G02*
X202815000Y-62045000I-225000J0D01*
G01*
G37*
%TD*%
%TO.C,C133*%
G36*
G01*
X113280000Y-93440000D02*
X112780000Y-93440000D01*
G75*
G02*
X112555000Y-93215000I0J225000D01*
G01*
X112555000Y-92765000D01*
G75*
G02*
X112780000Y-92540000I225000J0D01*
G01*
X113280000Y-92540000D01*
G75*
G02*
X113505000Y-92765000I0J-225000D01*
G01*
X113505000Y-93215000D01*
G75*
G02*
X113280000Y-93440000I-225000J0D01*
G01*
G37*
G36*
G01*
X113280000Y-91890000D02*
X112780000Y-91890000D01*
G75*
G02*
X112555000Y-91665000I0J225000D01*
G01*
X112555000Y-91215000D01*
G75*
G02*
X112780000Y-90990000I225000J0D01*
G01*
X113280000Y-90990000D01*
G75*
G02*
X113505000Y-91215000I0J-225000D01*
G01*
X113505000Y-91665000D01*
G75*
G02*
X113280000Y-91890000I-225000J0D01*
G01*
G37*
%TD*%
%TO.C,C134*%
G36*
G01*
X193845000Y-66425000D02*
X193845000Y-66925000D01*
G75*
G02*
X193620000Y-67150000I-225000J0D01*
G01*
X193170000Y-67150000D01*
G75*
G02*
X192945000Y-66925000I0J225000D01*
G01*
X192945000Y-66425000D01*
G75*
G02*
X193170000Y-66200000I225000J0D01*
G01*
X193620000Y-66200000D01*
G75*
G02*
X193845000Y-66425000I0J-225000D01*
G01*
G37*
G36*
G01*
X195395000Y-66425000D02*
X195395000Y-66925000D01*
G75*
G02*
X195170000Y-67150000I-225000J0D01*
G01*
X194720000Y-67150000D01*
G75*
G02*
X194495000Y-66925000I0J225000D01*
G01*
X194495000Y-66425000D01*
G75*
G02*
X194720000Y-66200000I225000J0D01*
G01*
X195170000Y-66200000D01*
G75*
G02*
X195395000Y-66425000I0J-225000D01*
G01*
G37*
%TD*%
%TO.C,C135*%
G36*
G01*
X69465000Y-27260000D02*
X68965000Y-27260000D01*
G75*
G02*
X68740000Y-27035000I0J225000D01*
G01*
X68740000Y-26585000D01*
G75*
G02*
X68965000Y-26360000I225000J0D01*
G01*
X69465000Y-26360000D01*
G75*
G02*
X69690000Y-26585000I0J-225000D01*
G01*
X69690000Y-27035000D01*
G75*
G02*
X69465000Y-27260000I-225000J0D01*
G01*
G37*
G36*
G01*
X69465000Y-25710000D02*
X68965000Y-25710000D01*
G75*
G02*
X68740000Y-25485000I0J225000D01*
G01*
X68740000Y-25035000D01*
G75*
G02*
X68965000Y-24810000I225000J0D01*
G01*
X69465000Y-24810000D01*
G75*
G02*
X69690000Y-25035000I0J-225000D01*
G01*
X69690000Y-25485000D01*
G75*
G02*
X69465000Y-25710000I-225000J0D01*
G01*
G37*
%TD*%
%TO.C,C136*%
G36*
G01*
X108275000Y-96135000D02*
X108275000Y-95635000D01*
G75*
G02*
X108500000Y-95410000I225000J0D01*
G01*
X108950000Y-95410000D01*
G75*
G02*
X109175000Y-95635000I0J-225000D01*
G01*
X109175000Y-96135000D01*
G75*
G02*
X108950000Y-96360000I-225000J0D01*
G01*
X108500000Y-96360000D01*
G75*
G02*
X108275000Y-96135000I0J225000D01*
G01*
G37*
G36*
G01*
X106725000Y-96135000D02*
X106725000Y-95635000D01*
G75*
G02*
X106950000Y-95410000I225000J0D01*
G01*
X107400000Y-95410000D01*
G75*
G02*
X107625000Y-95635000I0J-225000D01*
G01*
X107625000Y-96135000D01*
G75*
G02*
X107400000Y-96360000I-225000J0D01*
G01*
X106950000Y-96360000D01*
G75*
G02*
X106725000Y-96135000I0J225000D01*
G01*
G37*
%TD*%
%TO.C,C137*%
G36*
G01*
X209300000Y-62555000D02*
X209800000Y-62555000D01*
G75*
G02*
X210025000Y-62780000I0J-225000D01*
G01*
X210025000Y-63230000D01*
G75*
G02*
X209800000Y-63455000I-225000J0D01*
G01*
X209300000Y-63455000D01*
G75*
G02*
X209075000Y-63230000I0J225000D01*
G01*
X209075000Y-62780000D01*
G75*
G02*
X209300000Y-62555000I225000J0D01*
G01*
G37*
G36*
G01*
X209300000Y-61005000D02*
X209800000Y-61005000D01*
G75*
G02*
X210025000Y-61230000I0J-225000D01*
G01*
X210025000Y-61680000D01*
G75*
G02*
X209800000Y-61905000I-225000J0D01*
G01*
X209300000Y-61905000D01*
G75*
G02*
X209075000Y-61680000I0J225000D01*
G01*
X209075000Y-61230000D01*
G75*
G02*
X209300000Y-61005000I225000J0D01*
G01*
G37*
%TD*%
%TO.C,C138*%
G36*
G01*
X69465000Y-32340000D02*
X68965000Y-32340000D01*
G75*
G02*
X68740000Y-32115000I0J225000D01*
G01*
X68740000Y-31665000D01*
G75*
G02*
X68965000Y-31440000I225000J0D01*
G01*
X69465000Y-31440000D01*
G75*
G02*
X69690000Y-31665000I0J-225000D01*
G01*
X69690000Y-32115000D01*
G75*
G02*
X69465000Y-32340000I-225000J0D01*
G01*
G37*
G36*
G01*
X69465000Y-30790000D02*
X68965000Y-30790000D01*
G75*
G02*
X68740000Y-30565000I0J225000D01*
G01*
X68740000Y-30115000D01*
G75*
G02*
X68965000Y-29890000I225000J0D01*
G01*
X69465000Y-29890000D01*
G75*
G02*
X69690000Y-30115000I0J-225000D01*
G01*
X69690000Y-30565000D01*
G75*
G02*
X69465000Y-30790000I-225000J0D01*
G01*
G37*
%TD*%
%TO.C,C139*%
G36*
G01*
X69465000Y-37560000D02*
X68965000Y-37560000D01*
G75*
G02*
X68740000Y-37335000I0J225000D01*
G01*
X68740000Y-36885000D01*
G75*
G02*
X68965000Y-36660000I225000J0D01*
G01*
X69465000Y-36660000D01*
G75*
G02*
X69690000Y-36885000I0J-225000D01*
G01*
X69690000Y-37335000D01*
G75*
G02*
X69465000Y-37560000I-225000J0D01*
G01*
G37*
G36*
G01*
X69465000Y-36010000D02*
X68965000Y-36010000D01*
G75*
G02*
X68740000Y-35785000I0J225000D01*
G01*
X68740000Y-35335000D01*
G75*
G02*
X68965000Y-35110000I225000J0D01*
G01*
X69465000Y-35110000D01*
G75*
G02*
X69690000Y-35335000I0J-225000D01*
G01*
X69690000Y-35785000D01*
G75*
G02*
X69465000Y-36010000I-225000J0D01*
G01*
G37*
%TD*%
%TO.C,C140*%
G36*
G01*
X104820000Y-84070000D02*
X104820000Y-83570000D01*
G75*
G02*
X105045000Y-83345000I225000J0D01*
G01*
X105495000Y-83345000D01*
G75*
G02*
X105720000Y-83570000I0J-225000D01*
G01*
X105720000Y-84070000D01*
G75*
G02*
X105495000Y-84295000I-225000J0D01*
G01*
X105045000Y-84295000D01*
G75*
G02*
X104820000Y-84070000I0J225000D01*
G01*
G37*
G36*
G01*
X106370000Y-84070000D02*
X106370000Y-83570000D01*
G75*
G02*
X106595000Y-83345000I225000J0D01*
G01*
X107045000Y-83345000D01*
G75*
G02*
X107270000Y-83570000I0J-225000D01*
G01*
X107270000Y-84070000D01*
G75*
G02*
X107045000Y-84295000I-225000J0D01*
G01*
X106595000Y-84295000D01*
G75*
G02*
X106370000Y-84070000I0J225000D01*
G01*
G37*
%TD*%
%TO.C,C141*%
G36*
G01*
X189480000Y-65080000D02*
X188980000Y-65080000D01*
G75*
G02*
X188755000Y-64855000I0J225000D01*
G01*
X188755000Y-64405000D01*
G75*
G02*
X188980000Y-64180000I225000J0D01*
G01*
X189480000Y-64180000D01*
G75*
G02*
X189705000Y-64405000I0J-225000D01*
G01*
X189705000Y-64855000D01*
G75*
G02*
X189480000Y-65080000I-225000J0D01*
G01*
G37*
G36*
G01*
X189480000Y-66630000D02*
X188980000Y-66630000D01*
G75*
G02*
X188755000Y-66405000I0J225000D01*
G01*
X188755000Y-65955000D01*
G75*
G02*
X188980000Y-65730000I225000J0D01*
G01*
X189480000Y-65730000D01*
G75*
G02*
X189705000Y-65955000I0J-225000D01*
G01*
X189705000Y-66405000D01*
G75*
G02*
X189480000Y-66630000I-225000J0D01*
G01*
G37*
%TD*%
%TO.C,C142*%
G36*
G01*
X109125000Y-84070000D02*
X109125000Y-83570000D01*
G75*
G02*
X109350000Y-83345000I225000J0D01*
G01*
X109800000Y-83345000D01*
G75*
G02*
X110025000Y-83570000I0J-225000D01*
G01*
X110025000Y-84070000D01*
G75*
G02*
X109800000Y-84295000I-225000J0D01*
G01*
X109350000Y-84295000D01*
G75*
G02*
X109125000Y-84070000I0J225000D01*
G01*
G37*
G36*
G01*
X110675000Y-84070000D02*
X110675000Y-83570000D01*
G75*
G02*
X110900000Y-83345000I225000J0D01*
G01*
X111350000Y-83345000D01*
G75*
G02*
X111575000Y-83570000I0J-225000D01*
G01*
X111575000Y-84070000D01*
G75*
G02*
X111350000Y-84295000I-225000J0D01*
G01*
X110900000Y-84295000D01*
G75*
G02*
X110675000Y-84070000I0J225000D01*
G01*
G37*
%TD*%
%TO.C,C143*%
G36*
G01*
X189480000Y-62820000D02*
X188980000Y-62820000D01*
G75*
G02*
X188755000Y-62595000I0J225000D01*
G01*
X188755000Y-62145000D01*
G75*
G02*
X188980000Y-61920000I225000J0D01*
G01*
X189480000Y-61920000D01*
G75*
G02*
X189705000Y-62145000I0J-225000D01*
G01*
X189705000Y-62595000D01*
G75*
G02*
X189480000Y-62820000I-225000J0D01*
G01*
G37*
G36*
G01*
X189480000Y-61270000D02*
X188980000Y-61270000D01*
G75*
G02*
X188755000Y-61045000I0J225000D01*
G01*
X188755000Y-60595000D01*
G75*
G02*
X188980000Y-60370000I225000J0D01*
G01*
X189480000Y-60370000D01*
G75*
G02*
X189705000Y-60595000I0J-225000D01*
G01*
X189705000Y-61045000D01*
G75*
G02*
X189480000Y-61270000I-225000J0D01*
G01*
G37*
%TD*%
%TO.C,C144*%
G36*
G01*
X69465000Y-42500000D02*
X68965000Y-42500000D01*
G75*
G02*
X68740000Y-42275000I0J225000D01*
G01*
X68740000Y-41825000D01*
G75*
G02*
X68965000Y-41600000I225000J0D01*
G01*
X69465000Y-41600000D01*
G75*
G02*
X69690000Y-41825000I0J-225000D01*
G01*
X69690000Y-42275000D01*
G75*
G02*
X69465000Y-42500000I-225000J0D01*
G01*
G37*
G36*
G01*
X69465000Y-40950000D02*
X68965000Y-40950000D01*
G75*
G02*
X68740000Y-40725000I0J225000D01*
G01*
X68740000Y-40275000D01*
G75*
G02*
X68965000Y-40050000I225000J0D01*
G01*
X69465000Y-40050000D01*
G75*
G02*
X69690000Y-40275000I0J-225000D01*
G01*
X69690000Y-40725000D01*
G75*
G02*
X69465000Y-40950000I-225000J0D01*
G01*
G37*
%TD*%
%TO.C,C145*%
G36*
G01*
X142335000Y-101985000D02*
X142335000Y-102485000D01*
G75*
G02*
X142110000Y-102710000I-225000J0D01*
G01*
X141660000Y-102710000D01*
G75*
G02*
X141435000Y-102485000I0J225000D01*
G01*
X141435000Y-101985000D01*
G75*
G02*
X141660000Y-101760000I225000J0D01*
G01*
X142110000Y-101760000D01*
G75*
G02*
X142335000Y-101985000I0J-225000D01*
G01*
G37*
G36*
G01*
X140785000Y-101985000D02*
X140785000Y-102485000D01*
G75*
G02*
X140560000Y-102710000I-225000J0D01*
G01*
X140110000Y-102710000D01*
G75*
G02*
X139885000Y-102485000I0J225000D01*
G01*
X139885000Y-101985000D01*
G75*
G02*
X140110000Y-101760000I225000J0D01*
G01*
X140560000Y-101760000D01*
G75*
G02*
X140785000Y-101985000I0J-225000D01*
G01*
G37*
%TD*%
%TO.C,C146*%
G36*
G01*
X174720000Y-20705000D02*
X174720000Y-21205000D01*
G75*
G02*
X174495000Y-21430000I-225000J0D01*
G01*
X174045000Y-21430000D01*
G75*
G02*
X173820000Y-21205000I0J225000D01*
G01*
X173820000Y-20705000D01*
G75*
G02*
X174045000Y-20480000I225000J0D01*
G01*
X174495000Y-20480000D01*
G75*
G02*
X174720000Y-20705000I0J-225000D01*
G01*
G37*
G36*
G01*
X173170000Y-20705000D02*
X173170000Y-21205000D01*
G75*
G02*
X172945000Y-21430000I-225000J0D01*
G01*
X172495000Y-21430000D01*
G75*
G02*
X172270000Y-21205000I0J225000D01*
G01*
X172270000Y-20705000D01*
G75*
G02*
X172495000Y-20480000I225000J0D01*
G01*
X172945000Y-20480000D01*
G75*
G02*
X173170000Y-20705000I0J-225000D01*
G01*
G37*
%TD*%
%TO.C,C147*%
G36*
G01*
X146300000Y-93300000D02*
X145800000Y-93300000D01*
G75*
G02*
X145575000Y-93075000I0J225000D01*
G01*
X145575000Y-92625000D01*
G75*
G02*
X145800000Y-92400000I225000J0D01*
G01*
X146300000Y-92400000D01*
G75*
G02*
X146525000Y-92625000I0J-225000D01*
G01*
X146525000Y-93075000D01*
G75*
G02*
X146300000Y-93300000I-225000J0D01*
G01*
G37*
G36*
G01*
X146300000Y-91750000D02*
X145800000Y-91750000D01*
G75*
G02*
X145575000Y-91525000I0J225000D01*
G01*
X145575000Y-91075000D01*
G75*
G02*
X145800000Y-90850000I225000J0D01*
G01*
X146300000Y-90850000D01*
G75*
G02*
X146525000Y-91075000I0J-225000D01*
G01*
X146525000Y-91525000D01*
G75*
G02*
X146300000Y-91750000I-225000J0D01*
G01*
G37*
%TD*%
%TO.C,C148*%
G36*
G01*
X172765000Y-39620000D02*
X172765000Y-39120000D01*
G75*
G02*
X172990000Y-38895000I225000J0D01*
G01*
X173440000Y-38895000D01*
G75*
G02*
X173665000Y-39120000I0J-225000D01*
G01*
X173665000Y-39620000D01*
G75*
G02*
X173440000Y-39845000I-225000J0D01*
G01*
X172990000Y-39845000D01*
G75*
G02*
X172765000Y-39620000I0J225000D01*
G01*
G37*
G36*
G01*
X174315000Y-39620000D02*
X174315000Y-39120000D01*
G75*
G02*
X174540000Y-38895000I225000J0D01*
G01*
X174990000Y-38895000D01*
G75*
G02*
X175215000Y-39120000I0J-225000D01*
G01*
X175215000Y-39620000D01*
G75*
G02*
X174990000Y-39845000I-225000J0D01*
G01*
X174540000Y-39845000D01*
G75*
G02*
X174315000Y-39620000I0J225000D01*
G01*
G37*
%TD*%
%TO.C,C149*%
G36*
G01*
X140240000Y-96135000D02*
X140240000Y-95635000D01*
G75*
G02*
X140465000Y-95410000I225000J0D01*
G01*
X140915000Y-95410000D01*
G75*
G02*
X141140000Y-95635000I0J-225000D01*
G01*
X141140000Y-96135000D01*
G75*
G02*
X140915000Y-96360000I-225000J0D01*
G01*
X140465000Y-96360000D01*
G75*
G02*
X140240000Y-96135000I0J225000D01*
G01*
G37*
G36*
G01*
X141790000Y-96135000D02*
X141790000Y-95635000D01*
G75*
G02*
X142015000Y-95410000I225000J0D01*
G01*
X142465000Y-95410000D01*
G75*
G02*
X142690000Y-95635000I0J-225000D01*
G01*
X142690000Y-96135000D01*
G75*
G02*
X142465000Y-96360000I-225000J0D01*
G01*
X142015000Y-96360000D01*
G75*
G02*
X141790000Y-96135000I0J225000D01*
G01*
G37*
%TD*%
%TO.C,C150*%
G36*
G01*
X173540000Y-29460000D02*
X173540000Y-28960000D01*
G75*
G02*
X173765000Y-28735000I225000J0D01*
G01*
X174215000Y-28735000D01*
G75*
G02*
X174440000Y-28960000I0J-225000D01*
G01*
X174440000Y-29460000D01*
G75*
G02*
X174215000Y-29685000I-225000J0D01*
G01*
X173765000Y-29685000D01*
G75*
G02*
X173540000Y-29460000I0J225000D01*
G01*
G37*
G36*
G01*
X171990000Y-29460000D02*
X171990000Y-28960000D01*
G75*
G02*
X172215000Y-28735000I225000J0D01*
G01*
X172665000Y-28735000D01*
G75*
G02*
X172890000Y-28960000I0J-225000D01*
G01*
X172890000Y-29460000D01*
G75*
G02*
X172665000Y-29685000I-225000J0D01*
G01*
X172215000Y-29685000D01*
G75*
G02*
X171990000Y-29460000I0J225000D01*
G01*
G37*
%TD*%
%TO.C,C151*%
G36*
G01*
X137840000Y-84070000D02*
X137840000Y-83570000D01*
G75*
G02*
X138065000Y-83345000I225000J0D01*
G01*
X138515000Y-83345000D01*
G75*
G02*
X138740000Y-83570000I0J-225000D01*
G01*
X138740000Y-84070000D01*
G75*
G02*
X138515000Y-84295000I-225000J0D01*
G01*
X138065000Y-84295000D01*
G75*
G02*
X137840000Y-84070000I0J225000D01*
G01*
G37*
G36*
G01*
X139390000Y-84070000D02*
X139390000Y-83570000D01*
G75*
G02*
X139615000Y-83345000I225000J0D01*
G01*
X140065000Y-83345000D01*
G75*
G02*
X140290000Y-83570000I0J-225000D01*
G01*
X140290000Y-84070000D01*
G75*
G02*
X140065000Y-84295000I-225000J0D01*
G01*
X139615000Y-84295000D01*
G75*
G02*
X139390000Y-84070000I0J225000D01*
G01*
G37*
%TD*%
%TO.C,C152*%
G36*
G01*
X142565000Y-49145000D02*
X142565000Y-48645000D01*
G75*
G02*
X142790000Y-48420000I225000J0D01*
G01*
X143240000Y-48420000D01*
G75*
G02*
X143465000Y-48645000I0J-225000D01*
G01*
X143465000Y-49145000D01*
G75*
G02*
X143240000Y-49370000I-225000J0D01*
G01*
X142790000Y-49370000D01*
G75*
G02*
X142565000Y-49145000I0J225000D01*
G01*
G37*
G36*
G01*
X141015000Y-49145000D02*
X141015000Y-48645000D01*
G75*
G02*
X141240000Y-48420000I225000J0D01*
G01*
X141690000Y-48420000D01*
G75*
G02*
X141915000Y-48645000I0J-225000D01*
G01*
X141915000Y-49145000D01*
G75*
G02*
X141690000Y-49370000I-225000J0D01*
G01*
X141240000Y-49370000D01*
G75*
G02*
X141015000Y-49145000I0J225000D01*
G01*
G37*
%TD*%
%TO.C,C153*%
G36*
G01*
X141650000Y-84070000D02*
X141650000Y-83570000D01*
G75*
G02*
X141875000Y-83345000I225000J0D01*
G01*
X142325000Y-83345000D01*
G75*
G02*
X142550000Y-83570000I0J-225000D01*
G01*
X142550000Y-84070000D01*
G75*
G02*
X142325000Y-84295000I-225000J0D01*
G01*
X141875000Y-84295000D01*
G75*
G02*
X141650000Y-84070000I0J225000D01*
G01*
G37*
G36*
G01*
X143200000Y-84070000D02*
X143200000Y-83570000D01*
G75*
G02*
X143425000Y-83345000I225000J0D01*
G01*
X143875000Y-83345000D01*
G75*
G02*
X144100000Y-83570000I0J-225000D01*
G01*
X144100000Y-84070000D01*
G75*
G02*
X143875000Y-84295000I-225000J0D01*
G01*
X143425000Y-84295000D01*
G75*
G02*
X143200000Y-84070000I0J225000D01*
G01*
G37*
%TD*%
%TO.C,C154*%
G36*
G01*
X147010000Y-49145000D02*
X147010000Y-48645000D01*
G75*
G02*
X147235000Y-48420000I225000J0D01*
G01*
X147685000Y-48420000D01*
G75*
G02*
X147910000Y-48645000I0J-225000D01*
G01*
X147910000Y-49145000D01*
G75*
G02*
X147685000Y-49370000I-225000J0D01*
G01*
X147235000Y-49370000D01*
G75*
G02*
X147010000Y-49145000I0J225000D01*
G01*
G37*
G36*
G01*
X145460000Y-49145000D02*
X145460000Y-48645000D01*
G75*
G02*
X145685000Y-48420000I225000J0D01*
G01*
X146135000Y-48420000D01*
G75*
G02*
X146360000Y-48645000I0J-225000D01*
G01*
X146360000Y-49145000D01*
G75*
G02*
X146135000Y-49370000I-225000J0D01*
G01*
X145685000Y-49370000D01*
G75*
G02*
X145460000Y-49145000I0J225000D01*
G01*
G37*
%TD*%
%TO.C,D101*%
G36*
G01*
X72917500Y-54231250D02*
X72917500Y-53718750D01*
G75*
G02*
X73136250Y-53500000I218750J0D01*
G01*
X73573750Y-53500000D01*
G75*
G02*
X73792500Y-53718750I0J-218750D01*
G01*
X73792500Y-54231250D01*
G75*
G02*
X73573750Y-54450000I-218750J0D01*
G01*
X73136250Y-54450000D01*
G75*
G02*
X72917500Y-54231250I0J218750D01*
G01*
G37*
G36*
G01*
X74492500Y-54231250D02*
X74492500Y-53718750D01*
G75*
G02*
X74711250Y-53500000I218750J0D01*
G01*
X75148750Y-53500000D01*
G75*
G02*
X75367500Y-53718750I0J-218750D01*
G01*
X75367500Y-54231250D01*
G75*
G02*
X75148750Y-54450000I-218750J0D01*
G01*
X74711250Y-54450000D01*
G75*
G02*
X74492500Y-54231250I0J218750D01*
G01*
G37*
%TD*%
%TO.C,D102*%
G36*
G01*
X158371250Y-70922500D02*
X157858750Y-70922500D01*
G75*
G02*
X157640000Y-70703750I0J218750D01*
G01*
X157640000Y-70266250D01*
G75*
G02*
X157858750Y-70047500I218750J0D01*
G01*
X158371250Y-70047500D01*
G75*
G02*
X158590000Y-70266250I0J-218750D01*
G01*
X158590000Y-70703750D01*
G75*
G02*
X158371250Y-70922500I-218750J0D01*
G01*
G37*
G36*
G01*
X158371250Y-72497500D02*
X157858750Y-72497500D01*
G75*
G02*
X157640000Y-72278750I0J218750D01*
G01*
X157640000Y-71841250D01*
G75*
G02*
X157858750Y-71622500I218750J0D01*
G01*
X158371250Y-71622500D01*
G75*
G02*
X158590000Y-71841250I0J-218750D01*
G01*
X158590000Y-72278750D01*
G75*
G02*
X158371250Y-72497500I-218750J0D01*
G01*
G37*
%TD*%
%TO.C,D103*%
G36*
G01*
X124716250Y-56952500D02*
X124203750Y-56952500D01*
G75*
G02*
X123985000Y-56733750I0J218750D01*
G01*
X123985000Y-56296250D01*
G75*
G02*
X124203750Y-56077500I218750J0D01*
G01*
X124716250Y-56077500D01*
G75*
G02*
X124935000Y-56296250I0J-218750D01*
G01*
X124935000Y-56733750D01*
G75*
G02*
X124716250Y-56952500I-218750J0D01*
G01*
G37*
G36*
G01*
X124716250Y-55377500D02*
X124203750Y-55377500D01*
G75*
G02*
X123985000Y-55158750I0J218750D01*
G01*
X123985000Y-54721250D01*
G75*
G02*
X124203750Y-54502500I218750J0D01*
G01*
X124716250Y-54502500D01*
G75*
G02*
X124935000Y-54721250I0J-218750D01*
G01*
X124935000Y-55158750D01*
G75*
G02*
X124716250Y-55377500I-218750J0D01*
G01*
G37*
%TD*%
%TO.C,D104*%
G36*
G01*
X74645000Y-86616250D02*
X74645000Y-86103750D01*
G75*
G02*
X74863750Y-85885000I218750J0D01*
G01*
X75301250Y-85885000D01*
G75*
G02*
X75520000Y-86103750I0J-218750D01*
G01*
X75520000Y-86616250D01*
G75*
G02*
X75301250Y-86835000I-218750J0D01*
G01*
X74863750Y-86835000D01*
G75*
G02*
X74645000Y-86616250I0J218750D01*
G01*
G37*
G36*
G01*
X73070000Y-86616250D02*
X73070000Y-86103750D01*
G75*
G02*
X73288750Y-85885000I218750J0D01*
G01*
X73726250Y-85885000D01*
G75*
G02*
X73945000Y-86103750I0J-218750D01*
G01*
X73945000Y-86616250D01*
G75*
G02*
X73726250Y-86835000I-218750J0D01*
G01*
X73288750Y-86835000D01*
G75*
G02*
X73070000Y-86616250I0J218750D01*
G01*
G37*
%TD*%
%TO.C,D105*%
G36*
G01*
X181325000Y-78361250D02*
X181325000Y-77848750D01*
G75*
G02*
X181543750Y-77630000I218750J0D01*
G01*
X181981250Y-77630000D01*
G75*
G02*
X182200000Y-77848750I0J-218750D01*
G01*
X182200000Y-78361250D01*
G75*
G02*
X181981250Y-78580000I-218750J0D01*
G01*
X181543750Y-78580000D01*
G75*
G02*
X181325000Y-78361250I0J218750D01*
G01*
G37*
G36*
G01*
X179750000Y-78361250D02*
X179750000Y-77848750D01*
G75*
G02*
X179968750Y-77630000I218750J0D01*
G01*
X180406250Y-77630000D01*
G75*
G02*
X180625000Y-77848750I0J-218750D01*
G01*
X180625000Y-78361250D01*
G75*
G02*
X180406250Y-78580000I-218750J0D01*
G01*
X179968750Y-78580000D01*
G75*
G02*
X179750000Y-78361250I0J218750D01*
G01*
G37*
%TD*%
%TO.C,D106*%
G36*
G01*
X91696250Y-53295000D02*
X91183750Y-53295000D01*
G75*
G02*
X90965000Y-53076250I0J218750D01*
G01*
X90965000Y-52638750D01*
G75*
G02*
X91183750Y-52420000I218750J0D01*
G01*
X91696250Y-52420000D01*
G75*
G02*
X91915000Y-52638750I0J-218750D01*
G01*
X91915000Y-53076250D01*
G75*
G02*
X91696250Y-53295000I-218750J0D01*
G01*
G37*
G36*
G01*
X91696250Y-51720000D02*
X91183750Y-51720000D01*
G75*
G02*
X90965000Y-51501250I0J218750D01*
G01*
X90965000Y-51063750D01*
G75*
G02*
X91183750Y-50845000I218750J0D01*
G01*
X91696250Y-50845000D01*
G75*
G02*
X91915000Y-51063750I0J-218750D01*
G01*
X91915000Y-51501250D01*
G75*
G02*
X91696250Y-51720000I-218750J0D01*
G01*
G37*
%TD*%
%TO.C,D107*%
G36*
G01*
X92331250Y-72497500D02*
X91818750Y-72497500D01*
G75*
G02*
X91600000Y-72278750I0J218750D01*
G01*
X91600000Y-71841250D01*
G75*
G02*
X91818750Y-71622500I218750J0D01*
G01*
X92331250Y-71622500D01*
G75*
G02*
X92550000Y-71841250I0J-218750D01*
G01*
X92550000Y-72278750D01*
G75*
G02*
X92331250Y-72497500I-218750J0D01*
G01*
G37*
G36*
G01*
X92331250Y-70922500D02*
X91818750Y-70922500D01*
G75*
G02*
X91600000Y-70703750I0J218750D01*
G01*
X91600000Y-70266250D01*
G75*
G02*
X91818750Y-70047500I218750J0D01*
G01*
X92331250Y-70047500D01*
G75*
G02*
X92550000Y-70266250I0J-218750D01*
G01*
X92550000Y-70703750D01*
G75*
G02*
X92331250Y-70922500I-218750J0D01*
G01*
G37*
%TD*%
%TO.C,D108*%
G36*
G01*
X180208000Y-45976250D02*
X180208000Y-45463750D01*
G75*
G02*
X180426750Y-45245000I218750J0D01*
G01*
X180864250Y-45245000D01*
G75*
G02*
X181083000Y-45463750I0J-218750D01*
G01*
X181083000Y-45976250D01*
G75*
G02*
X180864250Y-46195000I-218750J0D01*
G01*
X180426750Y-46195000D01*
G75*
G02*
X180208000Y-45976250I0J218750D01*
G01*
G37*
G36*
G01*
X178633000Y-45976250D02*
X178633000Y-45463750D01*
G75*
G02*
X178851750Y-45245000I218750J0D01*
G01*
X179289250Y-45245000D01*
G75*
G02*
X179508000Y-45463750I0J-218750D01*
G01*
X179508000Y-45976250D01*
G75*
G02*
X179289250Y-46195000I-218750J0D01*
G01*
X178851750Y-46195000D01*
G75*
G02*
X178633000Y-45976250I0J218750D01*
G01*
G37*
%TD*%
%TO.C,D109*%
G36*
G01*
X125351250Y-70770000D02*
X124838750Y-70770000D01*
G75*
G02*
X124620000Y-70551250I0J218750D01*
G01*
X124620000Y-70113750D01*
G75*
G02*
X124838750Y-69895000I218750J0D01*
G01*
X125351250Y-69895000D01*
G75*
G02*
X125570000Y-70113750I0J-218750D01*
G01*
X125570000Y-70551250D01*
G75*
G02*
X125351250Y-70770000I-218750J0D01*
G01*
G37*
G36*
G01*
X125351250Y-72345000D02*
X124838750Y-72345000D01*
G75*
G02*
X124620000Y-72126250I0J218750D01*
G01*
X124620000Y-71688750D01*
G75*
G02*
X124838750Y-71470000I218750J0D01*
G01*
X125351250Y-71470000D01*
G75*
G02*
X125570000Y-71688750I0J-218750D01*
G01*
X125570000Y-72126250D01*
G75*
G02*
X125351250Y-72345000I-218750J0D01*
G01*
G37*
%TD*%
%TO.C,D110*%
G36*
G01*
X157736250Y-57740000D02*
X157223750Y-57740000D01*
G75*
G02*
X157005000Y-57521250I0J218750D01*
G01*
X157005000Y-57083750D01*
G75*
G02*
X157223750Y-56865000I218750J0D01*
G01*
X157736250Y-56865000D01*
G75*
G02*
X157955000Y-57083750I0J-218750D01*
G01*
X157955000Y-57521250D01*
G75*
G02*
X157736250Y-57740000I-218750J0D01*
G01*
G37*
G36*
G01*
X157736250Y-56165000D02*
X157223750Y-56165000D01*
G75*
G02*
X157005000Y-55946250I0J218750D01*
G01*
X157005000Y-55508750D01*
G75*
G02*
X157223750Y-55290000I218750J0D01*
G01*
X157736250Y-55290000D01*
G75*
G02*
X157955000Y-55508750I0J-218750D01*
G01*
X157955000Y-55946250D01*
G75*
G02*
X157736250Y-56165000I-218750J0D01*
G01*
G37*
%TD*%
D10*
%TO.C,J102*%
X192790000Y-26645000D03*
X192290000Y-26645000D03*
X191790000Y-26645000D03*
X191290000Y-26645000D03*
X193790000Y-26645000D03*
X194790000Y-26645000D03*
X194290000Y-26645000D03*
X193290000Y-26645000D03*
X196390000Y-26645000D03*
X196090000Y-26645000D03*
X195590000Y-26645000D03*
X195290000Y-26645000D03*
X190490000Y-26645000D03*
X190790000Y-26645000D03*
X189990000Y-26645000D03*
X189690000Y-26645000D03*
%TD*%
%TO.C,R101*%
G36*
G01*
X141750000Y-42270000D02*
X141750000Y-42820000D01*
G75*
G02*
X141550000Y-43020000I-200000J0D01*
G01*
X141150000Y-43020000D01*
G75*
G02*
X140950000Y-42820000I0J200000D01*
G01*
X140950000Y-42270000D01*
G75*
G02*
X141150000Y-42070000I200000J0D01*
G01*
X141550000Y-42070000D01*
G75*
G02*
X141750000Y-42270000I0J-200000D01*
G01*
G37*
G36*
G01*
X140100000Y-42270000D02*
X140100000Y-42820000D01*
G75*
G02*
X139900000Y-43020000I-200000J0D01*
G01*
X139500000Y-43020000D01*
G75*
G02*
X139300000Y-42820000I0J200000D01*
G01*
X139300000Y-42270000D01*
G75*
G02*
X139500000Y-42070000I200000J0D01*
G01*
X139900000Y-42070000D01*
G75*
G02*
X140100000Y-42270000I0J-200000D01*
G01*
G37*
%TD*%
%TO.C,R102*%
G36*
G01*
X46145000Y-77110000D02*
X46145000Y-76560000D01*
G75*
G02*
X46345000Y-76360000I200000J0D01*
G01*
X46745000Y-76360000D01*
G75*
G02*
X46945000Y-76560000I0J-200000D01*
G01*
X46945000Y-77110000D01*
G75*
G02*
X46745000Y-77310000I-200000J0D01*
G01*
X46345000Y-77310000D01*
G75*
G02*
X46145000Y-77110000I0J200000D01*
G01*
G37*
G36*
G01*
X44495000Y-77110000D02*
X44495000Y-76560000D01*
G75*
G02*
X44695000Y-76360000I200000J0D01*
G01*
X45095000Y-76360000D01*
G75*
G02*
X45295000Y-76560000I0J-200000D01*
G01*
X45295000Y-77110000D01*
G75*
G02*
X45095000Y-77310000I-200000J0D01*
G01*
X44695000Y-77310000D01*
G75*
G02*
X44495000Y-77110000I0J200000D01*
G01*
G37*
%TD*%
%TO.C,R103*%
G36*
G01*
X179345000Y-96920000D02*
X178795000Y-96920000D01*
G75*
G02*
X178595000Y-96720000I0J200000D01*
G01*
X178595000Y-96320000D01*
G75*
G02*
X178795000Y-96120000I200000J0D01*
G01*
X179345000Y-96120000D01*
G75*
G02*
X179545000Y-96320000I0J-200000D01*
G01*
X179545000Y-96720000D01*
G75*
G02*
X179345000Y-96920000I-200000J0D01*
G01*
G37*
G36*
G01*
X179345000Y-98570000D02*
X178795000Y-98570000D01*
G75*
G02*
X178595000Y-98370000I0J200000D01*
G01*
X178595000Y-97970000D01*
G75*
G02*
X178795000Y-97770000I200000J0D01*
G01*
X179345000Y-97770000D01*
G75*
G02*
X179545000Y-97970000I0J-200000D01*
G01*
X179545000Y-98370000D01*
G75*
G02*
X179345000Y-98570000I-200000J0D01*
G01*
G37*
%TD*%
%TO.C,R104*%
G36*
G01*
X68625000Y-54250000D02*
X68625000Y-53700000D01*
G75*
G02*
X68825000Y-53500000I200000J0D01*
G01*
X69225000Y-53500000D01*
G75*
G02*
X69425000Y-53700000I0J-200000D01*
G01*
X69425000Y-54250000D01*
G75*
G02*
X69225000Y-54450000I-200000J0D01*
G01*
X68825000Y-54450000D01*
G75*
G02*
X68625000Y-54250000I0J200000D01*
G01*
G37*
G36*
G01*
X70275000Y-54250000D02*
X70275000Y-53700000D01*
G75*
G02*
X70475000Y-53500000I200000J0D01*
G01*
X70875000Y-53500000D01*
G75*
G02*
X71075000Y-53700000I0J-200000D01*
G01*
X71075000Y-54250000D01*
G75*
G02*
X70875000Y-54450000I-200000J0D01*
G01*
X70475000Y-54450000D01*
G75*
G02*
X70275000Y-54250000I0J200000D01*
G01*
G37*
%TD*%
%TO.C,R105*%
G36*
G01*
X158390000Y-75140000D02*
X157840000Y-75140000D01*
G75*
G02*
X157640000Y-74940000I0J200000D01*
G01*
X157640000Y-74540000D01*
G75*
G02*
X157840000Y-74340000I200000J0D01*
G01*
X158390000Y-74340000D01*
G75*
G02*
X158590000Y-74540000I0J-200000D01*
G01*
X158590000Y-74940000D01*
G75*
G02*
X158390000Y-75140000I-200000J0D01*
G01*
G37*
G36*
G01*
X158390000Y-76790000D02*
X157840000Y-76790000D01*
G75*
G02*
X157640000Y-76590000I0J200000D01*
G01*
X157640000Y-76190000D01*
G75*
G02*
X157840000Y-75990000I200000J0D01*
G01*
X158390000Y-75990000D01*
G75*
G02*
X158590000Y-76190000I0J-200000D01*
G01*
X158590000Y-76590000D01*
G75*
G02*
X158390000Y-76790000I-200000J0D01*
G01*
G37*
%TD*%
%TO.C,R106*%
G36*
G01*
X124735000Y-51010000D02*
X124185000Y-51010000D01*
G75*
G02*
X123985000Y-50810000I0J200000D01*
G01*
X123985000Y-50410000D01*
G75*
G02*
X124185000Y-50210000I200000J0D01*
G01*
X124735000Y-50210000D01*
G75*
G02*
X124935000Y-50410000I0J-200000D01*
G01*
X124935000Y-50810000D01*
G75*
G02*
X124735000Y-51010000I-200000J0D01*
G01*
G37*
G36*
G01*
X124735000Y-52660000D02*
X124185000Y-52660000D01*
G75*
G02*
X123985000Y-52460000I0J200000D01*
G01*
X123985000Y-52060000D01*
G75*
G02*
X124185000Y-51860000I200000J0D01*
G01*
X124735000Y-51860000D01*
G75*
G02*
X124935000Y-52060000I0J-200000D01*
G01*
X124935000Y-52460000D01*
G75*
G02*
X124735000Y-52660000I-200000J0D01*
G01*
G37*
%TD*%
%TO.C,R107*%
G36*
G01*
X47135000Y-109580000D02*
X47135000Y-110130000D01*
G75*
G02*
X46935000Y-110330000I-200000J0D01*
G01*
X46535000Y-110330000D01*
G75*
G02*
X46335000Y-110130000I0J200000D01*
G01*
X46335000Y-109580000D01*
G75*
G02*
X46535000Y-109380000I200000J0D01*
G01*
X46935000Y-109380000D01*
G75*
G02*
X47135000Y-109580000I0J-200000D01*
G01*
G37*
G36*
G01*
X45485000Y-109580000D02*
X45485000Y-110130000D01*
G75*
G02*
X45285000Y-110330000I-200000J0D01*
G01*
X44885000Y-110330000D01*
G75*
G02*
X44685000Y-110130000I0J200000D01*
G01*
X44685000Y-109580000D01*
G75*
G02*
X44885000Y-109380000I200000J0D01*
G01*
X45285000Y-109380000D01*
G75*
G02*
X45485000Y-109580000I0J-200000D01*
G01*
G37*
%TD*%
%TO.C,R108*%
G36*
G01*
X193465000Y-100605000D02*
X193465000Y-100055000D01*
G75*
G02*
X193665000Y-99855000I200000J0D01*
G01*
X194065000Y-99855000D01*
G75*
G02*
X194265000Y-100055000I0J-200000D01*
G01*
X194265000Y-100605000D01*
G75*
G02*
X194065000Y-100805000I-200000J0D01*
G01*
X193665000Y-100805000D01*
G75*
G02*
X193465000Y-100605000I0J200000D01*
G01*
G37*
G36*
G01*
X191815000Y-100605000D02*
X191815000Y-100055000D01*
G75*
G02*
X192015000Y-99855000I200000J0D01*
G01*
X192415000Y-99855000D01*
G75*
G02*
X192615000Y-100055000I0J-200000D01*
G01*
X192615000Y-100605000D01*
G75*
G02*
X192415000Y-100805000I-200000J0D01*
G01*
X192015000Y-100805000D01*
G75*
G02*
X191815000Y-100605000I0J200000D01*
G01*
G37*
%TD*%
%TO.C,R109*%
G36*
G01*
X109175000Y-42905000D02*
X109175000Y-43455000D01*
G75*
G02*
X108975000Y-43655000I-200000J0D01*
G01*
X108575000Y-43655000D01*
G75*
G02*
X108375000Y-43455000I0J200000D01*
G01*
X108375000Y-42905000D01*
G75*
G02*
X108575000Y-42705000I200000J0D01*
G01*
X108975000Y-42705000D01*
G75*
G02*
X109175000Y-42905000I0J-200000D01*
G01*
G37*
G36*
G01*
X107525000Y-42905000D02*
X107525000Y-43455000D01*
G75*
G02*
X107325000Y-43655000I-200000J0D01*
G01*
X106925000Y-43655000D01*
G75*
G02*
X106725000Y-43455000I0J200000D01*
G01*
X106725000Y-42905000D01*
G75*
G02*
X106925000Y-42705000I200000J0D01*
G01*
X107325000Y-42705000D01*
G75*
G02*
X107525000Y-42905000I0J-200000D01*
G01*
G37*
%TD*%
%TO.C,R110*%
G36*
G01*
X68625000Y-86635000D02*
X68625000Y-86085000D01*
G75*
G02*
X68825000Y-85885000I200000J0D01*
G01*
X69225000Y-85885000D01*
G75*
G02*
X69425000Y-86085000I0J-200000D01*
G01*
X69425000Y-86635000D01*
G75*
G02*
X69225000Y-86835000I-200000J0D01*
G01*
X68825000Y-86835000D01*
G75*
G02*
X68625000Y-86635000I0J200000D01*
G01*
G37*
G36*
G01*
X70275000Y-86635000D02*
X70275000Y-86085000D01*
G75*
G02*
X70475000Y-85885000I200000J0D01*
G01*
X70875000Y-85885000D01*
G75*
G02*
X71075000Y-86085000I0J-200000D01*
G01*
X71075000Y-86635000D01*
G75*
G02*
X70875000Y-86835000I-200000J0D01*
G01*
X70475000Y-86835000D01*
G75*
G02*
X70275000Y-86635000I0J200000D01*
G01*
G37*
%TD*%
%TO.C,R111*%
G36*
G01*
X184195000Y-78380000D02*
X184195000Y-77830000D01*
G75*
G02*
X184395000Y-77630000I200000J0D01*
G01*
X184795000Y-77630000D01*
G75*
G02*
X184995000Y-77830000I0J-200000D01*
G01*
X184995000Y-78380000D01*
G75*
G02*
X184795000Y-78580000I-200000J0D01*
G01*
X184395000Y-78580000D01*
G75*
G02*
X184195000Y-78380000I0J200000D01*
G01*
G37*
G36*
G01*
X185845000Y-78380000D02*
X185845000Y-77830000D01*
G75*
G02*
X186045000Y-77630000I200000J0D01*
G01*
X186445000Y-77630000D01*
G75*
G02*
X186645000Y-77830000I0J-200000D01*
G01*
X186645000Y-78380000D01*
G75*
G02*
X186445000Y-78580000I-200000J0D01*
G01*
X186045000Y-78580000D01*
G75*
G02*
X185845000Y-78380000I0J200000D01*
G01*
G37*
%TD*%
%TO.C,R112*%
G36*
G01*
X91715000Y-56090000D02*
X91165000Y-56090000D01*
G75*
G02*
X90965000Y-55890000I0J200000D01*
G01*
X90965000Y-55490000D01*
G75*
G02*
X91165000Y-55290000I200000J0D01*
G01*
X91715000Y-55290000D01*
G75*
G02*
X91915000Y-55490000I0J-200000D01*
G01*
X91915000Y-55890000D01*
G75*
G02*
X91715000Y-56090000I-200000J0D01*
G01*
G37*
G36*
G01*
X91715000Y-57740000D02*
X91165000Y-57740000D01*
G75*
G02*
X90965000Y-57540000I0J200000D01*
G01*
X90965000Y-57140000D01*
G75*
G02*
X91165000Y-56940000I200000J0D01*
G01*
X91715000Y-56940000D01*
G75*
G02*
X91915000Y-57140000I0J-200000D01*
G01*
X91915000Y-57540000D01*
G75*
G02*
X91715000Y-57740000I-200000J0D01*
G01*
G37*
%TD*%
%TO.C,R113*%
G36*
G01*
X112120000Y-99485000D02*
X112670000Y-99485000D01*
G75*
G02*
X112870000Y-99685000I0J-200000D01*
G01*
X112870000Y-100085000D01*
G75*
G02*
X112670000Y-100285000I-200000J0D01*
G01*
X112120000Y-100285000D01*
G75*
G02*
X111920000Y-100085000I0J200000D01*
G01*
X111920000Y-99685000D01*
G75*
G02*
X112120000Y-99485000I200000J0D01*
G01*
G37*
G36*
G01*
X112120000Y-97835000D02*
X112670000Y-97835000D01*
G75*
G02*
X112870000Y-98035000I0J-200000D01*
G01*
X112870000Y-98435000D01*
G75*
G02*
X112670000Y-98635000I-200000J0D01*
G01*
X112120000Y-98635000D01*
G75*
G02*
X111920000Y-98435000I0J200000D01*
G01*
X111920000Y-98035000D01*
G75*
G02*
X112120000Y-97835000I200000J0D01*
G01*
G37*
%TD*%
%TO.C,R114*%
G36*
G01*
X199345000Y-66400000D02*
X199345000Y-66950000D01*
G75*
G02*
X199145000Y-67150000I-200000J0D01*
G01*
X198745000Y-67150000D01*
G75*
G02*
X198545000Y-66950000I0J200000D01*
G01*
X198545000Y-66400000D01*
G75*
G02*
X198745000Y-66200000I200000J0D01*
G01*
X199145000Y-66200000D01*
G75*
G02*
X199345000Y-66400000I0J-200000D01*
G01*
G37*
G36*
G01*
X197695000Y-66400000D02*
X197695000Y-66950000D01*
G75*
G02*
X197495000Y-67150000I-200000J0D01*
G01*
X197095000Y-67150000D01*
G75*
G02*
X196895000Y-66950000I0J200000D01*
G01*
X196895000Y-66400000D01*
G75*
G02*
X197095000Y-66200000I200000J0D01*
G01*
X197495000Y-66200000D01*
G75*
G02*
X197695000Y-66400000I0J-200000D01*
G01*
G37*
%TD*%
%TO.C,R115*%
G36*
G01*
X73235000Y-23220000D02*
X73235000Y-23770000D01*
G75*
G02*
X73035000Y-23970000I-200000J0D01*
G01*
X72635000Y-23970000D01*
G75*
G02*
X72435000Y-23770000I0J200000D01*
G01*
X72435000Y-23220000D01*
G75*
G02*
X72635000Y-23020000I200000J0D01*
G01*
X73035000Y-23020000D01*
G75*
G02*
X73235000Y-23220000I0J-200000D01*
G01*
G37*
G36*
G01*
X74885000Y-23220000D02*
X74885000Y-23770000D01*
G75*
G02*
X74685000Y-23970000I-200000J0D01*
G01*
X74285000Y-23970000D01*
G75*
G02*
X74085000Y-23770000I0J200000D01*
G01*
X74085000Y-23220000D01*
G75*
G02*
X74285000Y-23020000I200000J0D01*
G01*
X74685000Y-23020000D01*
G75*
G02*
X74885000Y-23220000I0J-200000D01*
G01*
G37*
%TD*%
%TO.C,R116*%
G36*
G01*
X74085000Y-28850000D02*
X74085000Y-28300000D01*
G75*
G02*
X74285000Y-28100000I200000J0D01*
G01*
X74685000Y-28100000D01*
G75*
G02*
X74885000Y-28300000I0J-200000D01*
G01*
X74885000Y-28850000D01*
G75*
G02*
X74685000Y-29050000I-200000J0D01*
G01*
X74285000Y-29050000D01*
G75*
G02*
X74085000Y-28850000I0J200000D01*
G01*
G37*
G36*
G01*
X72435000Y-28850000D02*
X72435000Y-28300000D01*
G75*
G02*
X72635000Y-28100000I200000J0D01*
G01*
X73035000Y-28100000D01*
G75*
G02*
X73235000Y-28300000I0J-200000D01*
G01*
X73235000Y-28850000D01*
G75*
G02*
X73035000Y-29050000I-200000J0D01*
G01*
X72635000Y-29050000D01*
G75*
G02*
X72435000Y-28850000I0J200000D01*
G01*
G37*
%TD*%
%TO.C,R117*%
G36*
G01*
X92350000Y-76980000D02*
X91800000Y-76980000D01*
G75*
G02*
X91600000Y-76780000I0J200000D01*
G01*
X91600000Y-76380000D01*
G75*
G02*
X91800000Y-76180000I200000J0D01*
G01*
X92350000Y-76180000D01*
G75*
G02*
X92550000Y-76380000I0J-200000D01*
G01*
X92550000Y-76780000D01*
G75*
G02*
X92350000Y-76980000I-200000J0D01*
G01*
G37*
G36*
G01*
X92350000Y-75330000D02*
X91800000Y-75330000D01*
G75*
G02*
X91600000Y-75130000I0J200000D01*
G01*
X91600000Y-74730000D01*
G75*
G02*
X91800000Y-74530000I200000J0D01*
G01*
X92350000Y-74530000D01*
G75*
G02*
X92550000Y-74730000I0J-200000D01*
G01*
X92550000Y-75130000D01*
G75*
G02*
X92350000Y-75330000I-200000J0D01*
G01*
G37*
%TD*%
%TO.C,R118*%
G36*
G01*
X184575000Y-45995000D02*
X184575000Y-45445000D01*
G75*
G02*
X184775000Y-45245000I200000J0D01*
G01*
X185175000Y-45245000D01*
G75*
G02*
X185375000Y-45445000I0J-200000D01*
G01*
X185375000Y-45995000D01*
G75*
G02*
X185175000Y-46195000I-200000J0D01*
G01*
X184775000Y-46195000D01*
G75*
G02*
X184575000Y-45995000I0J200000D01*
G01*
G37*
G36*
G01*
X182925000Y-45995000D02*
X182925000Y-45445000D01*
G75*
G02*
X183125000Y-45245000I200000J0D01*
G01*
X183525000Y-45245000D01*
G75*
G02*
X183725000Y-45445000I0J-200000D01*
G01*
X183725000Y-45995000D01*
G75*
G02*
X183525000Y-46195000I-200000J0D01*
G01*
X183125000Y-46195000D01*
G75*
G02*
X182925000Y-45995000I0J200000D01*
G01*
G37*
%TD*%
%TO.C,R119*%
G36*
G01*
X72245000Y-33930000D02*
X72245000Y-33380000D01*
G75*
G02*
X72445000Y-33180000I200000J0D01*
G01*
X72845000Y-33180000D01*
G75*
G02*
X73045000Y-33380000I0J-200000D01*
G01*
X73045000Y-33930000D01*
G75*
G02*
X72845000Y-34130000I-200000J0D01*
G01*
X72445000Y-34130000D01*
G75*
G02*
X72245000Y-33930000I0J200000D01*
G01*
G37*
G36*
G01*
X73895000Y-33930000D02*
X73895000Y-33380000D01*
G75*
G02*
X74095000Y-33180000I200000J0D01*
G01*
X74495000Y-33180000D01*
G75*
G02*
X74695000Y-33380000I0J-200000D01*
G01*
X74695000Y-33930000D01*
G75*
G02*
X74495000Y-34130000I-200000J0D01*
G01*
X74095000Y-34130000D01*
G75*
G02*
X73895000Y-33930000I0J200000D01*
G01*
G37*
%TD*%
%TO.C,R120*%
G36*
G01*
X74085000Y-39010000D02*
X74085000Y-38460000D01*
G75*
G02*
X74285000Y-38260000I200000J0D01*
G01*
X74685000Y-38260000D01*
G75*
G02*
X74885000Y-38460000I0J-200000D01*
G01*
X74885000Y-39010000D01*
G75*
G02*
X74685000Y-39210000I-200000J0D01*
G01*
X74285000Y-39210000D01*
G75*
G02*
X74085000Y-39010000I0J200000D01*
G01*
G37*
G36*
G01*
X72435000Y-39010000D02*
X72435000Y-38460000D01*
G75*
G02*
X72635000Y-38260000I200000J0D01*
G01*
X73035000Y-38260000D01*
G75*
G02*
X73235000Y-38460000I0J-200000D01*
G01*
X73235000Y-39010000D01*
G75*
G02*
X73035000Y-39210000I-200000J0D01*
G01*
X72635000Y-39210000D01*
G75*
G02*
X72435000Y-39010000I0J200000D01*
G01*
G37*
%TD*%
%TO.C,R121*%
G36*
G01*
X146325000Y-87205000D02*
X145775000Y-87205000D01*
G75*
G02*
X145575000Y-87005000I0J200000D01*
G01*
X145575000Y-86605000D01*
G75*
G02*
X145775000Y-86405000I200000J0D01*
G01*
X146325000Y-86405000D01*
G75*
G02*
X146525000Y-86605000I0J-200000D01*
G01*
X146525000Y-87005000D01*
G75*
G02*
X146325000Y-87205000I-200000J0D01*
G01*
G37*
G36*
G01*
X146325000Y-88855000D02*
X145775000Y-88855000D01*
G75*
G02*
X145575000Y-88655000I0J200000D01*
G01*
X145575000Y-88255000D01*
G75*
G02*
X145775000Y-88055000I200000J0D01*
G01*
X146325000Y-88055000D01*
G75*
G02*
X146525000Y-88255000I0J-200000D01*
G01*
X146525000Y-88655000D01*
G75*
G02*
X146325000Y-88855000I-200000J0D01*
G01*
G37*
%TD*%
%TO.C,R122*%
G36*
G01*
X172765000Y-43455000D02*
X172765000Y-42905000D01*
G75*
G02*
X172965000Y-42705000I200000J0D01*
G01*
X173365000Y-42705000D01*
G75*
G02*
X173565000Y-42905000I0J-200000D01*
G01*
X173565000Y-43455000D01*
G75*
G02*
X173365000Y-43655000I-200000J0D01*
G01*
X172965000Y-43655000D01*
G75*
G02*
X172765000Y-43455000I0J200000D01*
G01*
G37*
G36*
G01*
X174415000Y-43455000D02*
X174415000Y-42905000D01*
G75*
G02*
X174615000Y-42705000I200000J0D01*
G01*
X175015000Y-42705000D01*
G75*
G02*
X175215000Y-42905000I0J-200000D01*
G01*
X175215000Y-43455000D01*
G75*
G02*
X175015000Y-43655000I-200000J0D01*
G01*
X174615000Y-43655000D01*
G75*
G02*
X174415000Y-43455000I0J200000D01*
G01*
G37*
%TD*%
%TO.C,R123*%
G36*
G01*
X125370000Y-76790000D02*
X124820000Y-76790000D01*
G75*
G02*
X124620000Y-76590000I0J200000D01*
G01*
X124620000Y-76190000D01*
G75*
G02*
X124820000Y-75990000I200000J0D01*
G01*
X125370000Y-75990000D01*
G75*
G02*
X125570000Y-76190000I0J-200000D01*
G01*
X125570000Y-76590000D01*
G75*
G02*
X125370000Y-76790000I-200000J0D01*
G01*
G37*
G36*
G01*
X125370000Y-75140000D02*
X124820000Y-75140000D01*
G75*
G02*
X124620000Y-74940000I0J200000D01*
G01*
X124620000Y-74540000D01*
G75*
G02*
X124820000Y-74340000I200000J0D01*
G01*
X125370000Y-74340000D01*
G75*
G02*
X125570000Y-74540000I0J-200000D01*
G01*
X125570000Y-74940000D01*
G75*
G02*
X125370000Y-75140000I-200000J0D01*
G01*
G37*
%TD*%
%TO.C,R124*%
G36*
G01*
X157755000Y-51645000D02*
X157205000Y-51645000D01*
G75*
G02*
X157005000Y-51445000I0J200000D01*
G01*
X157005000Y-51045000D01*
G75*
G02*
X157205000Y-50845000I200000J0D01*
G01*
X157755000Y-50845000D01*
G75*
G02*
X157955000Y-51045000I0J-200000D01*
G01*
X157955000Y-51445000D01*
G75*
G02*
X157755000Y-51645000I-200000J0D01*
G01*
G37*
G36*
G01*
X157755000Y-53295000D02*
X157205000Y-53295000D01*
G75*
G02*
X157005000Y-53095000I0J200000D01*
G01*
X157005000Y-52695000D01*
G75*
G02*
X157205000Y-52495000I200000J0D01*
G01*
X157755000Y-52495000D01*
G75*
G02*
X157955000Y-52695000I0J-200000D01*
G01*
X157955000Y-53095000D01*
G75*
G02*
X157755000Y-53295000I-200000J0D01*
G01*
G37*
%TD*%
%TO.C,R125*%
G36*
G01*
X197760000Y-35705000D02*
X197210000Y-35705000D01*
G75*
G02*
X197010000Y-35505000I0J200000D01*
G01*
X197010000Y-35105000D01*
G75*
G02*
X197210000Y-34905000I200000J0D01*
G01*
X197760000Y-34905000D01*
G75*
G02*
X197960000Y-35105000I0J-200000D01*
G01*
X197960000Y-35505000D01*
G75*
G02*
X197760000Y-35705000I-200000J0D01*
G01*
G37*
G36*
G01*
X197760000Y-34055000D02*
X197210000Y-34055000D01*
G75*
G02*
X197010000Y-33855000I0J200000D01*
G01*
X197010000Y-33455000D01*
G75*
G02*
X197210000Y-33255000I200000J0D01*
G01*
X197760000Y-33255000D01*
G75*
G02*
X197960000Y-33455000I0J-200000D01*
G01*
X197960000Y-33855000D01*
G75*
G02*
X197760000Y-34055000I-200000J0D01*
G01*
G37*
%TD*%
%TO.C,R126*%
G36*
G01*
X195855000Y-34055000D02*
X195305000Y-34055000D01*
G75*
G02*
X195105000Y-33855000I0J200000D01*
G01*
X195105000Y-33455000D01*
G75*
G02*
X195305000Y-33255000I200000J0D01*
G01*
X195855000Y-33255000D01*
G75*
G02*
X196055000Y-33455000I0J-200000D01*
G01*
X196055000Y-33855000D01*
G75*
G02*
X195855000Y-34055000I-200000J0D01*
G01*
G37*
G36*
G01*
X195855000Y-35705000D02*
X195305000Y-35705000D01*
G75*
G02*
X195105000Y-35505000I0J200000D01*
G01*
X195105000Y-35105000D01*
G75*
G02*
X195305000Y-34905000I200000J0D01*
G01*
X195855000Y-34905000D01*
G75*
G02*
X196055000Y-35105000I0J-200000D01*
G01*
X196055000Y-35505000D01*
G75*
G02*
X195855000Y-35705000I-200000J0D01*
G01*
G37*
%TD*%
%TO.C,R127*%
G36*
G01*
X191410000Y-31705000D02*
X190860000Y-31705000D01*
G75*
G02*
X190660000Y-31505000I0J200000D01*
G01*
X190660000Y-31105000D01*
G75*
G02*
X190860000Y-30905000I200000J0D01*
G01*
X191410000Y-30905000D01*
G75*
G02*
X191610000Y-31105000I0J-200000D01*
G01*
X191610000Y-31505000D01*
G75*
G02*
X191410000Y-31705000I-200000J0D01*
G01*
G37*
G36*
G01*
X191410000Y-30055000D02*
X190860000Y-30055000D01*
G75*
G02*
X190660000Y-29855000I0J200000D01*
G01*
X190660000Y-29455000D01*
G75*
G02*
X190860000Y-29255000I200000J0D01*
G01*
X191410000Y-29255000D01*
G75*
G02*
X191610000Y-29455000I0J-200000D01*
G01*
X191610000Y-29855000D01*
G75*
G02*
X191410000Y-30055000I-200000J0D01*
G01*
G37*
%TD*%
%TO.C,R128*%
G36*
G01*
X193315000Y-31705000D02*
X192765000Y-31705000D01*
G75*
G02*
X192565000Y-31505000I0J200000D01*
G01*
X192565000Y-31105000D01*
G75*
G02*
X192765000Y-30905000I200000J0D01*
G01*
X193315000Y-30905000D01*
G75*
G02*
X193515000Y-31105000I0J-200000D01*
G01*
X193515000Y-31505000D01*
G75*
G02*
X193315000Y-31705000I-200000J0D01*
G01*
G37*
G36*
G01*
X193315000Y-30055000D02*
X192765000Y-30055000D01*
G75*
G02*
X192565000Y-29855000I0J200000D01*
G01*
X192565000Y-29455000D01*
G75*
G02*
X192765000Y-29255000I200000J0D01*
G01*
X193315000Y-29255000D01*
G75*
G02*
X193515000Y-29455000I0J-200000D01*
G01*
X193515000Y-29855000D01*
G75*
G02*
X193315000Y-30055000I-200000J0D01*
G01*
G37*
%TD*%
D11*
%TO.C,SW101*%
X73025000Y-58560000D03*
X70485000Y-67170000D03*
X70485000Y-58560000D03*
X73025000Y-67170000D03*
%TD*%
D12*
%TO.C,SW102*%
X170040000Y-72390000D03*
X161430000Y-74930000D03*
X170040000Y-74930000D03*
X161430000Y-72390000D03*
%TD*%
%TO.C,SW103*%
X137020000Y-52705000D03*
X128410000Y-55245000D03*
X137020000Y-55245000D03*
X128410000Y-52705000D03*
%TD*%
D13*
%TO.C,SW104*%
X138930000Y-34430000D03*
X142395000Y-34430000D03*
X138930000Y-36530000D03*
X142395000Y-36530000D03*
%TD*%
D14*
%TO.C,SW105*%
X51575000Y-74430000D03*
X51575000Y-70965000D03*
X53675000Y-74430000D03*
X53675000Y-70965000D03*
%TD*%
D13*
%TO.C,SW106*%
X176050000Y-93045000D03*
X172585000Y-93045000D03*
X176050000Y-90945000D03*
X172585000Y-90945000D03*
%TD*%
D14*
%TO.C,SW107*%
X55385000Y-74430000D03*
X55385000Y-70965000D03*
X57485000Y-74430000D03*
X57485000Y-70965000D03*
%TD*%
D13*
%TO.C,SW108*%
X176050000Y-89235000D03*
X172585000Y-89235000D03*
X176050000Y-87135000D03*
X172585000Y-87135000D03*
%TD*%
%TO.C,SW109*%
X138930000Y-30620000D03*
X142395000Y-30620000D03*
X138930000Y-32720000D03*
X142395000Y-32720000D03*
%TD*%
D11*
%TO.C,SW110*%
X73025000Y-98920000D03*
X70485000Y-90310000D03*
X70485000Y-98920000D03*
X73025000Y-90310000D03*
%TD*%
%TO.C,SW111*%
X184150000Y-81420000D03*
X181610000Y-90030000D03*
X181610000Y-81420000D03*
X184150000Y-90030000D03*
%TD*%
D12*
%TO.C,SW112*%
X104000000Y-52705000D03*
X95390000Y-55245000D03*
X104000000Y-55245000D03*
X95390000Y-52705000D03*
%TD*%
D14*
%TO.C,SW113*%
X53675000Y-103985000D03*
X53675000Y-107450000D03*
X51575000Y-103985000D03*
X51575000Y-107450000D03*
%TD*%
%TO.C,SW114*%
X193180000Y-97290000D03*
X193180000Y-93825000D03*
X195280000Y-97290000D03*
X195280000Y-93825000D03*
%TD*%
D13*
%TO.C,SW115*%
X105910000Y-34430000D03*
X109375000Y-34430000D03*
X105910000Y-36530000D03*
X109375000Y-36530000D03*
%TD*%
D14*
%TO.C,SW116*%
X57485000Y-103985000D03*
X57485000Y-107450000D03*
X55385000Y-103985000D03*
X55385000Y-107450000D03*
%TD*%
%TO.C,SW117*%
X199250000Y-93845000D03*
X199250000Y-97310000D03*
X197150000Y-93845000D03*
X197150000Y-97310000D03*
%TD*%
D13*
%TO.C,SW118*%
X105910000Y-30620000D03*
X109375000Y-30620000D03*
X105910000Y-32720000D03*
X109375000Y-32720000D03*
%TD*%
D12*
%TO.C,SW119*%
X95390000Y-72390000D03*
X104000000Y-74930000D03*
X95390000Y-74930000D03*
X104000000Y-72390000D03*
%TD*%
D11*
%TO.C,SW120*%
X183515000Y-49670000D03*
X180975000Y-58280000D03*
X180975000Y-49670000D03*
X183515000Y-58280000D03*
%TD*%
D13*
%TO.C,SW121*%
X106545000Y-90945000D03*
X110010000Y-90945000D03*
X106545000Y-93045000D03*
X110010000Y-93045000D03*
%TD*%
D14*
%TO.C,SW122*%
X195280000Y-60805000D03*
X195280000Y-64270000D03*
X193180000Y-60805000D03*
X193180000Y-64270000D03*
%TD*%
D13*
%TO.C,SW123*%
X110010000Y-89235000D03*
X106545000Y-89235000D03*
X110010000Y-87135000D03*
X106545000Y-87135000D03*
%TD*%
D14*
%TO.C,SW124*%
X197150000Y-64290000D03*
X197150000Y-60825000D03*
X199250000Y-64290000D03*
X199250000Y-60825000D03*
%TD*%
D13*
%TO.C,SW125*%
X71620000Y-24905000D03*
X75085000Y-24905000D03*
X71620000Y-27005000D03*
X75085000Y-27005000D03*
%TD*%
%TO.C,SW126*%
X75085000Y-32085000D03*
X71620000Y-32085000D03*
X75085000Y-29985000D03*
X71620000Y-29985000D03*
%TD*%
%TO.C,SW127*%
X71620000Y-35065000D03*
X75085000Y-35065000D03*
X71620000Y-37165000D03*
X75085000Y-37165000D03*
%TD*%
%TO.C,SW128*%
X75085000Y-42245000D03*
X71620000Y-42245000D03*
X75085000Y-40145000D03*
X71620000Y-40145000D03*
%TD*%
D12*
%TO.C,SW129*%
X128410000Y-72390000D03*
X137020000Y-74930000D03*
X128410000Y-74930000D03*
X137020000Y-72390000D03*
%TD*%
%TO.C,SW130*%
X170040000Y-52705000D03*
X161430000Y-55245000D03*
X170040000Y-55245000D03*
X161430000Y-52705000D03*
%TD*%
D13*
%TO.C,SW131*%
X143030000Y-93045000D03*
X139565000Y-93045000D03*
X143030000Y-90945000D03*
X139565000Y-90945000D03*
%TD*%
%TO.C,SW132*%
X176050000Y-36530000D03*
X172585000Y-36530000D03*
X176050000Y-34430000D03*
X172585000Y-34430000D03*
%TD*%
%TO.C,SW133*%
X143030000Y-89235000D03*
X139565000Y-89235000D03*
X143030000Y-87135000D03*
X139565000Y-87135000D03*
%TD*%
%TO.C,SW134*%
X172585000Y-30620000D03*
X176050000Y-30620000D03*
X172585000Y-32720000D03*
X176050000Y-32720000D03*
%TD*%
D15*
%TO.C,U101*%
X53260000Y-59920000D03*
D16*
X45540000Y-67170000D03*
D15*
X53260000Y-61320000D03*
X53260000Y-58520000D03*
X54660000Y-61320000D03*
X54660000Y-59920000D03*
X54660000Y-58520000D03*
X51860000Y-61320000D03*
X51860000Y-59920000D03*
X51860000Y-58520000D03*
D16*
X46810000Y-67170000D03*
X48080000Y-67170000D03*
X49350000Y-67170000D03*
X50620000Y-67170000D03*
X51890000Y-67170000D03*
X53160000Y-67170000D03*
X54430000Y-67170000D03*
X55700000Y-67170000D03*
X56970000Y-67170000D03*
X58240000Y-67170000D03*
X59510000Y-67170000D03*
X60780000Y-67170000D03*
X62050000Y-67170000D03*
D17*
X63300000Y-65405000D03*
D16*
X62050000Y-49670000D03*
X60780000Y-49670000D03*
X59510000Y-49670000D03*
X58240000Y-49670000D03*
X56970000Y-49670000D03*
X55700000Y-49670000D03*
X54430000Y-49670000D03*
X53160000Y-49670000D03*
X51890000Y-49670000D03*
X50620000Y-49670000D03*
X49350000Y-49670000D03*
X48080000Y-49670000D03*
X46810000Y-49670000D03*
X45540000Y-49670000D03*
D17*
X63300000Y-64135000D03*
X63300000Y-62865000D03*
X63300000Y-61595000D03*
X63300000Y-60325000D03*
X63300000Y-59055000D03*
X63300000Y-57785000D03*
X63300000Y-56515000D03*
X63300000Y-55245000D03*
X63300000Y-53975000D03*
X63300000Y-52705000D03*
X63300000Y-51435000D03*
%TD*%
D18*
%TO.C,U102*%
X46670000Y-73490000D03*
X44770000Y-73490000D03*
X44770000Y-71290000D03*
X45720000Y-71290000D03*
X46670000Y-71290000D03*
%TD*%
D19*
%TO.C,U103*%
X173525000Y-98110000D03*
X173525000Y-99060000D03*
X173525000Y-100010000D03*
X175725000Y-100010000D03*
X175725000Y-98110000D03*
%TD*%
%TO.C,U104*%
X139870000Y-24450000D03*
X139870000Y-25400000D03*
X139870000Y-26350000D03*
X142070000Y-26350000D03*
X142070000Y-24450000D03*
%TD*%
D16*
%TO.C,U105*%
X153035000Y-81480000D03*
X154305000Y-81480000D03*
X155575000Y-81480000D03*
X156845000Y-81480000D03*
X158115000Y-81480000D03*
X159385000Y-81480000D03*
X160655000Y-81480000D03*
X161925000Y-81480000D03*
X163195000Y-81480000D03*
X164465000Y-81480000D03*
X165735000Y-81480000D03*
D17*
X151270000Y-99240000D03*
X151270000Y-97970000D03*
X151270000Y-96700000D03*
X151270000Y-95430000D03*
X151270000Y-94160000D03*
X151270000Y-92890000D03*
X151270000Y-91620000D03*
X151270000Y-90350000D03*
X151270000Y-89080000D03*
X151270000Y-87810000D03*
X151270000Y-86540000D03*
X151270000Y-85270000D03*
X151270000Y-84000000D03*
X151270000Y-82730000D03*
D16*
X167005000Y-81480000D03*
D17*
X168770000Y-82730000D03*
X168770000Y-84000000D03*
X168770000Y-85270000D03*
X168770000Y-86540000D03*
X168770000Y-87810000D03*
X168770000Y-89080000D03*
X168770000Y-90350000D03*
X168770000Y-91620000D03*
X168770000Y-92890000D03*
X168770000Y-94160000D03*
X168770000Y-95430000D03*
X168770000Y-96700000D03*
X168770000Y-97970000D03*
D15*
X160120000Y-92920000D03*
X161520000Y-92920000D03*
X162920000Y-92920000D03*
X160120000Y-90120000D03*
X161520000Y-90120000D03*
X162920000Y-90120000D03*
X160120000Y-91520000D03*
X162920000Y-91520000D03*
D17*
X168770000Y-99240000D03*
D15*
X161520000Y-91520000D03*
%TD*%
D16*
%TO.C,U106*%
X133350000Y-46155000D03*
X132080000Y-46155000D03*
X130810000Y-46155000D03*
X129540000Y-46155000D03*
X128270000Y-46155000D03*
X127000000Y-46155000D03*
X125730000Y-46155000D03*
X124460000Y-46155000D03*
X123190000Y-46155000D03*
X121920000Y-46155000D03*
X120650000Y-46155000D03*
D17*
X135115000Y-28395000D03*
X135115000Y-29665000D03*
X135115000Y-30935000D03*
X135115000Y-32205000D03*
X135115000Y-33475000D03*
X135115000Y-34745000D03*
X135115000Y-36015000D03*
X135115000Y-37285000D03*
X135115000Y-38555000D03*
X135115000Y-39825000D03*
X135115000Y-41095000D03*
X135115000Y-42365000D03*
X135115000Y-43635000D03*
X135115000Y-44905000D03*
D16*
X119380000Y-46155000D03*
D17*
X117615000Y-44905000D03*
X117615000Y-43635000D03*
X117615000Y-42365000D03*
X117615000Y-41095000D03*
X117615000Y-39825000D03*
X117615000Y-38555000D03*
X117615000Y-37285000D03*
X117615000Y-36015000D03*
X117615000Y-34745000D03*
X117615000Y-33475000D03*
X117615000Y-32205000D03*
X117615000Y-30935000D03*
X117615000Y-29665000D03*
D15*
X126265000Y-34715000D03*
X124865000Y-34715000D03*
X123465000Y-34715000D03*
X126265000Y-37515000D03*
X124865000Y-37515000D03*
X123465000Y-37515000D03*
X126265000Y-36115000D03*
X123465000Y-36115000D03*
D17*
X117615000Y-28395000D03*
D15*
X124865000Y-36115000D03*
%TD*%
D18*
%TO.C,U107*%
X46670000Y-104310000D03*
X45720000Y-104310000D03*
X44770000Y-104310000D03*
X44770000Y-106510000D03*
X46670000Y-106510000D03*
%TD*%
%TO.C,U108*%
X206690000Y-93515000D03*
X205740000Y-93515000D03*
X204790000Y-93515000D03*
X204790000Y-95715000D03*
X206690000Y-95715000D03*
%TD*%
D19*
%TO.C,U109*%
X109050000Y-24450000D03*
X109050000Y-26350000D03*
X106850000Y-26350000D03*
X106850000Y-25400000D03*
X106850000Y-24450000D03*
%TD*%
D17*
%TO.C,U110*%
X63300000Y-83820000D03*
X63300000Y-85090000D03*
X63300000Y-86360000D03*
X63300000Y-87630000D03*
X63300000Y-88900000D03*
X63300000Y-90170000D03*
X63300000Y-91440000D03*
X63300000Y-92710000D03*
X63300000Y-93980000D03*
X63300000Y-95250000D03*
X63300000Y-96520000D03*
D16*
X45540000Y-82055000D03*
X46810000Y-82055000D03*
X48080000Y-82055000D03*
X49350000Y-82055000D03*
X50620000Y-82055000D03*
X51890000Y-82055000D03*
X53160000Y-82055000D03*
X54430000Y-82055000D03*
X55700000Y-82055000D03*
X56970000Y-82055000D03*
X58240000Y-82055000D03*
X59510000Y-82055000D03*
X60780000Y-82055000D03*
X62050000Y-82055000D03*
D17*
X63300000Y-97790000D03*
D16*
X62050000Y-99555000D03*
X60780000Y-99555000D03*
X59510000Y-99555000D03*
X58240000Y-99555000D03*
X56970000Y-99555000D03*
X55700000Y-99555000D03*
X54430000Y-99555000D03*
X53160000Y-99555000D03*
X51890000Y-99555000D03*
X50620000Y-99555000D03*
X49350000Y-99555000D03*
X48080000Y-99555000D03*
X46810000Y-99555000D03*
D15*
X51860000Y-90905000D03*
X51860000Y-92305000D03*
X51860000Y-93705000D03*
X54660000Y-90905000D03*
X54660000Y-92305000D03*
X54660000Y-93705000D03*
X53260000Y-90905000D03*
X53260000Y-93705000D03*
D16*
X45540000Y-99555000D03*
D15*
X53260000Y-92305000D03*
%TD*%
%TO.C,U111*%
X199470000Y-79145000D03*
D16*
X207190000Y-71895000D03*
D15*
X199470000Y-77745000D03*
X199470000Y-80545000D03*
X198070000Y-77745000D03*
X198070000Y-79145000D03*
X198070000Y-80545000D03*
X200870000Y-77745000D03*
X200870000Y-79145000D03*
X200870000Y-80545000D03*
D16*
X205920000Y-71895000D03*
X204650000Y-71895000D03*
X203380000Y-71895000D03*
X202110000Y-71895000D03*
X200840000Y-71895000D03*
X199570000Y-71895000D03*
X198300000Y-71895000D03*
X197030000Y-71895000D03*
X195760000Y-71895000D03*
X194490000Y-71895000D03*
X193220000Y-71895000D03*
X191950000Y-71895000D03*
X190680000Y-71895000D03*
D17*
X189430000Y-73660000D03*
D16*
X190680000Y-89395000D03*
X191950000Y-89395000D03*
X193220000Y-89395000D03*
X194490000Y-89395000D03*
X195760000Y-89395000D03*
X197030000Y-89395000D03*
X198300000Y-89395000D03*
X199570000Y-89395000D03*
X200840000Y-89395000D03*
X202110000Y-89395000D03*
X203380000Y-89395000D03*
X204650000Y-89395000D03*
X205920000Y-89395000D03*
X207190000Y-89395000D03*
D17*
X189430000Y-74930000D03*
X189430000Y-76200000D03*
X189430000Y-77470000D03*
X189430000Y-78740000D03*
X189430000Y-80010000D03*
X189430000Y-81280000D03*
X189430000Y-82550000D03*
X189430000Y-83820000D03*
X189430000Y-85090000D03*
X189430000Y-86360000D03*
X189430000Y-87630000D03*
%TD*%
D15*
%TO.C,U112*%
X91845000Y-36115000D03*
D17*
X84595000Y-28395000D03*
D15*
X90445000Y-36115000D03*
X93245000Y-36115000D03*
X90445000Y-37515000D03*
X91845000Y-37515000D03*
X93245000Y-37515000D03*
X90445000Y-34715000D03*
X91845000Y-34715000D03*
X93245000Y-34715000D03*
D17*
X84595000Y-29665000D03*
X84595000Y-30935000D03*
X84595000Y-32205000D03*
X84595000Y-33475000D03*
X84595000Y-34745000D03*
X84595000Y-36015000D03*
X84595000Y-37285000D03*
X84595000Y-38555000D03*
X84595000Y-39825000D03*
X84595000Y-41095000D03*
X84595000Y-42365000D03*
X84595000Y-43635000D03*
X84595000Y-44905000D03*
D16*
X86360000Y-46155000D03*
D17*
X102095000Y-44905000D03*
X102095000Y-43635000D03*
X102095000Y-42365000D03*
X102095000Y-41095000D03*
X102095000Y-39825000D03*
X102095000Y-38555000D03*
X102095000Y-37285000D03*
X102095000Y-36015000D03*
X102095000Y-34745000D03*
X102095000Y-33475000D03*
X102095000Y-32205000D03*
X102095000Y-30935000D03*
X102095000Y-29665000D03*
X102095000Y-28395000D03*
D16*
X87630000Y-46155000D03*
X88900000Y-46155000D03*
X90170000Y-46155000D03*
X91440000Y-46155000D03*
X92710000Y-46155000D03*
X93980000Y-46155000D03*
X95250000Y-46155000D03*
X96520000Y-46155000D03*
X97790000Y-46155000D03*
X99060000Y-46155000D03*
X100330000Y-46155000D03*
%TD*%
D19*
%TO.C,U113*%
X106850000Y-98110000D03*
X106850000Y-99060000D03*
X106850000Y-100010000D03*
X109050000Y-100010000D03*
X109050000Y-98110000D03*
%TD*%
D18*
%TO.C,U114*%
X206690000Y-63330000D03*
X204790000Y-63330000D03*
X204790000Y-61130000D03*
X205740000Y-61130000D03*
X206690000Y-61130000D03*
%TD*%
D20*
%TO.C,U115*%
X53975000Y-34990000D03*
X53975000Y-34290000D03*
X53975000Y-33590000D03*
X53975000Y-32890000D03*
X53975000Y-32190000D03*
X53975000Y-31490000D03*
X53975000Y-30790000D03*
X53975000Y-30090000D03*
X53975000Y-29390000D03*
X53975000Y-28690000D03*
X53975000Y-27990000D03*
X53975000Y-27290000D03*
%TD*%
D15*
%TO.C,U116*%
X94845000Y-91520000D03*
D17*
X102095000Y-99240000D03*
D15*
X96245000Y-91520000D03*
X93445000Y-91520000D03*
X96245000Y-90120000D03*
X94845000Y-90120000D03*
X93445000Y-90120000D03*
X96245000Y-92920000D03*
X94845000Y-92920000D03*
X93445000Y-92920000D03*
D17*
X102095000Y-97970000D03*
X102095000Y-96700000D03*
X102095000Y-95430000D03*
X102095000Y-94160000D03*
X102095000Y-92890000D03*
X102095000Y-91620000D03*
X102095000Y-90350000D03*
X102095000Y-89080000D03*
X102095000Y-87810000D03*
X102095000Y-86540000D03*
X102095000Y-85270000D03*
X102095000Y-84000000D03*
X102095000Y-82730000D03*
D16*
X100330000Y-81480000D03*
D17*
X84595000Y-82730000D03*
X84595000Y-84000000D03*
X84595000Y-85270000D03*
X84595000Y-86540000D03*
X84595000Y-87810000D03*
X84595000Y-89080000D03*
X84595000Y-90350000D03*
X84595000Y-91620000D03*
X84595000Y-92890000D03*
X84595000Y-94160000D03*
X84595000Y-95430000D03*
X84595000Y-96700000D03*
X84595000Y-97970000D03*
X84595000Y-99240000D03*
D16*
X99060000Y-81480000D03*
X97790000Y-81480000D03*
X96520000Y-81480000D03*
X95250000Y-81480000D03*
X93980000Y-81480000D03*
X92710000Y-81480000D03*
X91440000Y-81480000D03*
X90170000Y-81480000D03*
X88900000Y-81480000D03*
X87630000Y-81480000D03*
X86360000Y-81480000D03*
%TD*%
D17*
%TO.C,U117*%
X189430000Y-55245000D03*
X189430000Y-53975000D03*
X189430000Y-52705000D03*
X189430000Y-51435000D03*
X189430000Y-50165000D03*
X189430000Y-48895000D03*
X189430000Y-47625000D03*
X189430000Y-46355000D03*
X189430000Y-45085000D03*
X189430000Y-43815000D03*
X189430000Y-42545000D03*
D16*
X207190000Y-57010000D03*
X205920000Y-57010000D03*
X204650000Y-57010000D03*
X203380000Y-57010000D03*
X202110000Y-57010000D03*
X200840000Y-57010000D03*
X199570000Y-57010000D03*
X198300000Y-57010000D03*
X197030000Y-57010000D03*
X195760000Y-57010000D03*
X194490000Y-57010000D03*
X193220000Y-57010000D03*
X191950000Y-57010000D03*
X190680000Y-57010000D03*
D17*
X189430000Y-41275000D03*
D16*
X190680000Y-39510000D03*
X191950000Y-39510000D03*
X193220000Y-39510000D03*
X194490000Y-39510000D03*
X195760000Y-39510000D03*
X197030000Y-39510000D03*
X198300000Y-39510000D03*
X199570000Y-39510000D03*
X200840000Y-39510000D03*
X202110000Y-39510000D03*
X203380000Y-39510000D03*
X204650000Y-39510000D03*
X205920000Y-39510000D03*
D15*
X200870000Y-48160000D03*
X200870000Y-46760000D03*
X200870000Y-45360000D03*
X198070000Y-48160000D03*
X198070000Y-46760000D03*
X198070000Y-45360000D03*
X199470000Y-48160000D03*
X199470000Y-45360000D03*
D16*
X207190000Y-39510000D03*
D15*
X199470000Y-46760000D03*
%TD*%
D19*
%TO.C,U118*%
X142070000Y-98110000D03*
X142070000Y-100010000D03*
X139870000Y-100010000D03*
X139870000Y-99060000D03*
X139870000Y-98110000D03*
%TD*%
%TO.C,U119*%
X174455000Y-24130000D03*
X174455000Y-26030000D03*
X172255000Y-26030000D03*
X172255000Y-25080000D03*
X172255000Y-24130000D03*
%TD*%
D15*
%TO.C,U120*%
X127865000Y-91520000D03*
D17*
X135115000Y-99240000D03*
D15*
X129265000Y-91520000D03*
X126465000Y-91520000D03*
X129265000Y-90120000D03*
X127865000Y-90120000D03*
X126465000Y-90120000D03*
X129265000Y-92920000D03*
X127865000Y-92920000D03*
X126465000Y-92920000D03*
D17*
X135115000Y-97970000D03*
X135115000Y-96700000D03*
X135115000Y-95430000D03*
X135115000Y-94160000D03*
X135115000Y-92890000D03*
X135115000Y-91620000D03*
X135115000Y-90350000D03*
X135115000Y-89080000D03*
X135115000Y-87810000D03*
X135115000Y-86540000D03*
X135115000Y-85270000D03*
X135115000Y-84000000D03*
X135115000Y-82730000D03*
D16*
X133350000Y-81480000D03*
D17*
X117615000Y-82730000D03*
X117615000Y-84000000D03*
X117615000Y-85270000D03*
X117615000Y-86540000D03*
X117615000Y-87810000D03*
X117615000Y-89080000D03*
X117615000Y-90350000D03*
X117615000Y-91620000D03*
X117615000Y-92890000D03*
X117615000Y-94160000D03*
X117615000Y-95430000D03*
X117615000Y-96700000D03*
X117615000Y-97970000D03*
X117615000Y-99240000D03*
D16*
X132080000Y-81480000D03*
X130810000Y-81480000D03*
X129540000Y-81480000D03*
X128270000Y-81480000D03*
X127000000Y-81480000D03*
X125730000Y-81480000D03*
X124460000Y-81480000D03*
X123190000Y-81480000D03*
X121920000Y-81480000D03*
X120650000Y-81480000D03*
X119380000Y-81480000D03*
%TD*%
%TO.C,U121*%
X167005000Y-46155000D03*
X165735000Y-46155000D03*
X164465000Y-46155000D03*
X163195000Y-46155000D03*
X161925000Y-46155000D03*
X160655000Y-46155000D03*
X159385000Y-46155000D03*
X158115000Y-46155000D03*
X156845000Y-46155000D03*
X155575000Y-46155000D03*
X154305000Y-46155000D03*
D17*
X168770000Y-28395000D03*
X168770000Y-29665000D03*
X168770000Y-30935000D03*
X168770000Y-32205000D03*
X168770000Y-33475000D03*
X168770000Y-34745000D03*
X168770000Y-36015000D03*
X168770000Y-37285000D03*
X168770000Y-38555000D03*
X168770000Y-39825000D03*
X168770000Y-41095000D03*
X168770000Y-42365000D03*
X168770000Y-43635000D03*
X168770000Y-44905000D03*
D16*
X153035000Y-46155000D03*
D17*
X151270000Y-44905000D03*
X151270000Y-43635000D03*
X151270000Y-42365000D03*
X151270000Y-41095000D03*
X151270000Y-39825000D03*
X151270000Y-38555000D03*
X151270000Y-37285000D03*
X151270000Y-36015000D03*
X151270000Y-34745000D03*
X151270000Y-33475000D03*
X151270000Y-32205000D03*
X151270000Y-30935000D03*
X151270000Y-29665000D03*
D15*
X159920000Y-34715000D03*
X158520000Y-34715000D03*
X157120000Y-34715000D03*
X159920000Y-37515000D03*
X158520000Y-37515000D03*
X157120000Y-37515000D03*
X159920000Y-36115000D03*
X157120000Y-36115000D03*
D17*
X151270000Y-28395000D03*
D15*
X158520000Y-36115000D03*
%TD*%
M02*
