%TF.GenerationSoftware,KiCad,Pcbnew,(5.1.12)-1*%
%TF.CreationDate,2022-05-26T18:44:23+02:00*%
%TF.ProjectId,esp32solarminer,65737033-3273-46f6-9c61-726d696e6572,0.3*%
%TF.SameCoordinates,Original*%
%TF.FileFunction,Copper,L2,Bot*%
%TF.FilePolarity,Positive*%
%FSLAX46Y46*%
G04 Gerber Fmt 4.6, Leading zero omitted, Abs format (unit mm)*
G04 Created by KiCad (PCBNEW (5.1.12)-1) date 2022-05-26 18:44:23*
%MOMM*%
%LPD*%
G01*
G04 APERTURE LIST*
%TA.AperFunction,ComponentPad*%
%ADD10R,3.000000X3.000000*%
%TD*%
%TA.AperFunction,ComponentPad*%
%ADD11C,3.000000*%
%TD*%
%TA.AperFunction,ComponentPad*%
%ADD12O,1.000000X1.600000*%
%TD*%
%TA.AperFunction,ComponentPad*%
%ADD13O,0.900000X2.100000*%
%TD*%
%TA.AperFunction,ComponentPad*%
%ADD14C,0.400000*%
%TD*%
%TA.AperFunction,ViaPad*%
%ADD15C,0.800000*%
%TD*%
%TA.AperFunction,Conductor*%
%ADD16C,0.250000*%
%TD*%
%TA.AperFunction,Conductor*%
%ADD17C,0.254000*%
%TD*%
%TA.AperFunction,Conductor*%
%ADD18C,0.100000*%
%TD*%
G04 APERTURE END LIST*
D10*
%TO.P,J101,1*%
%TO.N,/VUSB*%
X184150000Y-24130000D03*
D11*
%TO.P,J101,2*%
%TO.N,GND*%
X179070000Y-24130000D03*
%TD*%
D12*
%TO.P,J102,S1*%
%TO.N,GND*%
X197360000Y-21625000D03*
X188720000Y-21625000D03*
D13*
X197360000Y-25805000D03*
X188720000Y-25805000D03*
%TD*%
D14*
%TO.P,U101,41_10*%
%TO.N,N/C*%
X52560000Y-59920000D03*
%TO.P,U101,41_11*%
X52560000Y-61320000D03*
%TO.P,U101,41_12*%
X52560000Y-58520000D03*
%TO.P,U101,41_13*%
X53960000Y-61320000D03*
%TO.P,U101,41_14*%
X53960000Y-59920000D03*
%TO.P,U101,41_15*%
X53960000Y-58520000D03*
%TO.P,U101,41_16*%
X51860000Y-60620000D03*
%TO.P,U101,41_17*%
X51860000Y-59220000D03*
%TO.P,U101,41_18*%
X53260000Y-60620000D03*
%TO.P,U101,41_19*%
X53260000Y-59220000D03*
%TO.P,U101,41_20*%
X54660000Y-60620000D03*
%TO.P,U101,41_21*%
X54660000Y-59220000D03*
%TD*%
%TO.P,U105,41_21*%
%TO.N,N/C*%
X160820000Y-90120000D03*
%TO.P,U105,41_20*%
X162220000Y-90120000D03*
%TO.P,U105,41_19*%
X160820000Y-91520000D03*
%TO.P,U105,41_18*%
X162220000Y-91520000D03*
%TO.P,U105,41_17*%
X160820000Y-92920000D03*
%TO.P,U105,41_16*%
X162220000Y-92920000D03*
%TO.P,U105,41_15*%
X160120000Y-90820000D03*
%TO.P,U105,41_14*%
X161520000Y-90820000D03*
%TO.P,U105,41_13*%
X162920000Y-90820000D03*
%TO.P,U105,41_12*%
X160120000Y-92220000D03*
%TO.P,U105,41_11*%
X162920000Y-92220000D03*
%TO.P,U105,41_10*%
X161520000Y-92220000D03*
%TD*%
%TO.P,U106,41_21*%
%TO.N,N/C*%
X125565000Y-37515000D03*
%TO.P,U106,41_20*%
X124165000Y-37515000D03*
%TO.P,U106,41_19*%
X125565000Y-36115000D03*
%TO.P,U106,41_18*%
X124165000Y-36115000D03*
%TO.P,U106,41_17*%
X125565000Y-34715000D03*
%TO.P,U106,41_16*%
X124165000Y-34715000D03*
%TO.P,U106,41_15*%
X126265000Y-36815000D03*
%TO.P,U106,41_14*%
X124865000Y-36815000D03*
%TO.P,U106,41_13*%
X123465000Y-36815000D03*
%TO.P,U106,41_12*%
X126265000Y-35415000D03*
%TO.P,U106,41_11*%
X123465000Y-35415000D03*
%TO.P,U106,41_10*%
X124865000Y-35415000D03*
%TD*%
%TO.P,U110,41_21*%
%TO.N,N/C*%
X54660000Y-91605000D03*
%TO.P,U110,41_20*%
X54660000Y-93005000D03*
%TO.P,U110,41_19*%
X53260000Y-91605000D03*
%TO.P,U110,41_18*%
X53260000Y-93005000D03*
%TO.P,U110,41_17*%
X51860000Y-91605000D03*
%TO.P,U110,41_16*%
X51860000Y-93005000D03*
%TO.P,U110,41_15*%
X53960000Y-90905000D03*
%TO.P,U110,41_14*%
X53960000Y-92305000D03*
%TO.P,U110,41_13*%
X53960000Y-93705000D03*
%TO.P,U110,41_12*%
X52560000Y-90905000D03*
%TO.P,U110,41_11*%
X52560000Y-93705000D03*
%TO.P,U110,41_10*%
X52560000Y-92305000D03*
%TD*%
%TO.P,U111,41_10*%
%TO.N,N/C*%
X200170000Y-79145000D03*
%TO.P,U111,41_11*%
X200170000Y-77745000D03*
%TO.P,U111,41_12*%
X200170000Y-80545000D03*
%TO.P,U111,41_13*%
X198770000Y-77745000D03*
%TO.P,U111,41_14*%
X198770000Y-79145000D03*
%TO.P,U111,41_15*%
X198770000Y-80545000D03*
%TO.P,U111,41_16*%
X200870000Y-78445000D03*
%TO.P,U111,41_17*%
X200870000Y-79845000D03*
%TO.P,U111,41_18*%
X199470000Y-78445000D03*
%TO.P,U111,41_19*%
X199470000Y-79845000D03*
%TO.P,U111,41_20*%
X198070000Y-78445000D03*
%TO.P,U111,41_21*%
X198070000Y-79845000D03*
%TD*%
%TO.P,U112,41_10*%
%TO.N,N/C*%
X91845000Y-35415000D03*
%TO.P,U112,41_11*%
X90445000Y-35415000D03*
%TO.P,U112,41_12*%
X93245000Y-35415000D03*
%TO.P,U112,41_13*%
X90445000Y-36815000D03*
%TO.P,U112,41_14*%
X91845000Y-36815000D03*
%TO.P,U112,41_15*%
X93245000Y-36815000D03*
%TO.P,U112,41_16*%
X91145000Y-34715000D03*
%TO.P,U112,41_17*%
X92545000Y-34715000D03*
%TO.P,U112,41_18*%
X91145000Y-36115000D03*
%TO.P,U112,41_19*%
X92545000Y-36115000D03*
%TO.P,U112,41_20*%
X91145000Y-37515000D03*
%TO.P,U112,41_21*%
X92545000Y-37515000D03*
%TD*%
%TO.P,U116,41_10*%
%TO.N,N/C*%
X94845000Y-92220000D03*
%TO.P,U116,41_11*%
X96245000Y-92220000D03*
%TO.P,U116,41_12*%
X93445000Y-92220000D03*
%TO.P,U116,41_13*%
X96245000Y-90820000D03*
%TO.P,U116,41_14*%
X94845000Y-90820000D03*
%TO.P,U116,41_15*%
X93445000Y-90820000D03*
%TO.P,U116,41_16*%
X95545000Y-92920000D03*
%TO.P,U116,41_17*%
X94145000Y-92920000D03*
%TO.P,U116,41_18*%
X95545000Y-91520000D03*
%TO.P,U116,41_19*%
X94145000Y-91520000D03*
%TO.P,U116,41_20*%
X95545000Y-90120000D03*
%TO.P,U116,41_21*%
X94145000Y-90120000D03*
%TD*%
%TO.P,U117,41_21*%
%TO.N,N/C*%
X198070000Y-47460000D03*
%TO.P,U117,41_20*%
X198070000Y-46060000D03*
%TO.P,U117,41_19*%
X199470000Y-47460000D03*
%TO.P,U117,41_18*%
X199470000Y-46060000D03*
%TO.P,U117,41_17*%
X200870000Y-47460000D03*
%TO.P,U117,41_16*%
X200870000Y-46060000D03*
%TO.P,U117,41_15*%
X198770000Y-48160000D03*
%TO.P,U117,41_14*%
X198770000Y-46760000D03*
%TO.P,U117,41_13*%
X198770000Y-45360000D03*
%TO.P,U117,41_12*%
X200170000Y-48160000D03*
%TO.P,U117,41_11*%
X200170000Y-45360000D03*
%TO.P,U117,41_10*%
X200170000Y-46760000D03*
%TD*%
%TO.P,U120,41_10*%
%TO.N,N/C*%
X127865000Y-92220000D03*
%TO.P,U120,41_11*%
X129265000Y-92220000D03*
%TO.P,U120,41_12*%
X126465000Y-92220000D03*
%TO.P,U120,41_13*%
X129265000Y-90820000D03*
%TO.P,U120,41_14*%
X127865000Y-90820000D03*
%TO.P,U120,41_15*%
X126465000Y-90820000D03*
%TO.P,U120,41_16*%
X128565000Y-92920000D03*
%TO.P,U120,41_17*%
X127165000Y-92920000D03*
%TO.P,U120,41_18*%
X128565000Y-91520000D03*
%TO.P,U120,41_19*%
X127165000Y-91520000D03*
%TO.P,U120,41_20*%
X128565000Y-90120000D03*
%TO.P,U120,41_21*%
X127165000Y-90120000D03*
%TD*%
%TO.P,U121,41_21*%
%TO.N,N/C*%
X159220000Y-37515000D03*
%TO.P,U121,41_20*%
X157820000Y-37515000D03*
%TO.P,U121,41_19*%
X159220000Y-36115000D03*
%TO.P,U121,41_18*%
X157820000Y-36115000D03*
%TO.P,U121,41_17*%
X159220000Y-34715000D03*
%TO.P,U121,41_16*%
X157820000Y-34715000D03*
%TO.P,U121,41_15*%
X159920000Y-36815000D03*
%TO.P,U121,41_14*%
X158520000Y-36815000D03*
%TO.P,U121,41_13*%
X157120000Y-36815000D03*
%TO.P,U121,41_12*%
X159920000Y-35415000D03*
%TO.P,U121,41_11*%
X157120000Y-35415000D03*
%TO.P,U121,41_10*%
X158520000Y-35415000D03*
%TD*%
D15*
%TO.N,GND*%
X146050000Y-91186000D03*
X202565000Y-63119000D03*
X172466000Y-29210000D03*
X175895000Y-34417000D03*
X48895000Y-104648000D03*
X52070000Y-109855000D03*
X51562000Y-107442000D03*
X109855000Y-90932000D03*
X106426000Y-87249000D03*
X140716000Y-95885000D03*
X158115000Y-74803000D03*
X186309000Y-78232000D03*
X185039000Y-45720000D03*
X139954000Y-29210000D03*
X142621000Y-30607000D03*
X142240000Y-34417000D03*
X107061000Y-29083000D03*
X109093000Y-30734000D03*
X109093000Y-34544000D03*
X51435000Y-74422000D03*
%TO.N,/VUSB*%
X45720000Y-73401600D03*
X196362700Y-28592100D03*
X171737000Y-97617000D03*
X104862300Y-99525600D03*
X200255800Y-61207700D03*
X138423200Y-99726200D03*
X139614800Y-27765800D03*
X109389300Y-25400000D03*
X45533300Y-102752000D03*
%TO.N,GND*%
X110871000Y-74930000D03*
X135255000Y-67818000D03*
X128651000Y-63754000D03*
X115951000Y-62738000D03*
X90551000Y-63754000D03*
X83439000Y-50038000D03*
X78867000Y-42926000D03*
X93599000Y-41910000D03*
X99187000Y-37846000D03*
X120523000Y-41910000D03*
X141859000Y-55118000D03*
X175387000Y-61722000D03*
X200787000Y-52578000D03*
X193167000Y-49530000D03*
X165227000Y-42926000D03*
X170815000Y-46990000D03*
X81915000Y-71374000D03*
X77851000Y-72898000D03*
X50927000Y-46482000D03*
X51435000Y-52070000D03*
X47371000Y-58166000D03*
X66167000Y-43942000D03*
X72771000Y-44450000D03*
X66675000Y-49530000D03*
X66167000Y-56642000D03*
X101219000Y-76454000D03*
X137287000Y-79502000D03*
X132715000Y-76454000D03*
X70231000Y-83058000D03*
X67183000Y-92710000D03*
X66675000Y-37338000D03*
X78359000Y-27686000D03*
X121031000Y-52578000D03*
X167767000Y-69342000D03*
X177419000Y-78994000D03*
X46863000Y-91694000D03*
X46863000Y-87630000D03*
X50292000Y-77089000D03*
X54737000Y-69342000D03*
X51689000Y-69723000D03*
X51746860Y-58428039D03*
X55880000Y-35687000D03*
X56642000Y-30353000D03*
X70358000Y-29337000D03*
X69215000Y-25260000D03*
X70485000Y-36068000D03*
X89662000Y-53467000D03*
X108966000Y-38100000D03*
X122428000Y-49784000D03*
X137922000Y-25527000D03*
X140970000Y-39370000D03*
X198628000Y-49530000D03*
X202311000Y-74549000D03*
X187071000Y-84963000D03*
X177292000Y-89916000D03*
X174498000Y-94361000D03*
X130048000Y-88138000D03*
X96012000Y-87503000D03*
X106820000Y-83820000D03*
X110490000Y-94361000D03*
X105918000Y-95885000D03*
X90551000Y-73406000D03*
X92075000Y-73914000D03*
X72263000Y-86487000D03*
X72136000Y-54229000D03*
X174752000Y-37719000D03*
X205740000Y-59690000D03*
X205486000Y-87122000D03*
X205740000Y-92837000D03*
X203327000Y-91440000D03*
%TO.N,/RST9*%
X137227600Y-36652300D03*
X132252600Y-32683900D03*
%TO.N,/RST6*%
X194674600Y-92229000D03*
X204094800Y-73266500D03*
%TO.N,/RST10*%
X104340200Y-36615700D03*
X93387800Y-32230400D03*
%TO.N,/RST7*%
X194963000Y-59447200D03*
X195775100Y-55263500D03*
%TO.N,/RST8*%
X171015200Y-36662600D03*
X159726200Y-32493400D03*
%TO.N,/ACTIONLLED10*%
X92631400Y-49112100D03*
X88760900Y-36867600D03*
%TO.N,/ACTIONLLED3*%
X92959900Y-73193100D03*
X100118400Y-92154500D03*
%TO.N,/ACTIONLLED4*%
X124139600Y-71095300D03*
X132252600Y-91546900D03*
%TO.N,/ACTIONLLED8*%
X155421600Y-53270700D03*
X152929500Y-41384700D03*
%TO.N,/D+*%
X172694600Y-73066300D03*
X179181800Y-50952300D03*
X167216700Y-72524600D03*
%TO.N,/D9-*%
X135007500Y-52805100D03*
X124403000Y-43949700D03*
%TO.N,/D9+*%
X130907000Y-55205100D03*
X121192300Y-44651800D03*
%TO.N,Net-(SW108-Pad2)*%
X170754300Y-87577900D03*
X164694700Y-83945300D03*
%TO.N,/D10-*%
X100835900Y-51904000D03*
X93778200Y-44582500D03*
%TO.N,/D10+*%
X97750900Y-55036000D03*
X86513700Y-44582500D03*
%TO.N,/BUT2*%
X73352500Y-31340900D03*
X86180600Y-33560100D03*
%TO.N,/BUT3*%
X75760000Y-36031600D03*
X88403500Y-44536300D03*
%TO.N,/D8+*%
X168116900Y-55107100D03*
X154297000Y-43949700D03*
%TO.N,/RSTDISP*%
X82089900Y-33529100D03*
X58353600Y-34111000D03*
%TO.N,/DispCS*%
X86671900Y-35645700D03*
X59289200Y-32734000D03*
%TO.N,/MOSI*%
X87938400Y-38284500D03*
X56598000Y-33577800D03*
%TO.N,/SCK*%
X94331000Y-34905500D03*
X57721200Y-32834300D03*
%TD*%
D16*
%TO.N,/VUSB*%
X48673300Y-99525600D02*
X48673300Y-76354900D01*
X48673300Y-76354900D02*
X45720000Y-73401600D01*
X48673300Y-99525600D02*
X104862300Y-99525600D01*
X45533300Y-102752000D02*
X48673300Y-99612000D01*
X48673300Y-99612000D02*
X48673300Y-99525600D01*
X138423200Y-99605600D02*
X140411800Y-97617000D01*
X140411800Y-97617000D02*
X171737000Y-97617000D01*
X171737000Y-97617000D02*
X171737000Y-89726500D01*
X171737000Y-89726500D02*
X200255800Y-61207700D01*
X200255800Y-61207700D02*
X196500400Y-57452300D01*
X196500400Y-57452300D02*
X196500400Y-28729800D01*
X196500400Y-28729800D02*
X196362700Y-28592100D01*
X184150000Y-24130000D02*
X185975300Y-24130000D01*
X196362700Y-28592100D02*
X189752900Y-28592100D01*
X189752900Y-28592100D02*
X185975300Y-24814500D01*
X185975300Y-24814500D02*
X185975300Y-24130000D01*
X138423200Y-99605600D02*
X138423200Y-99726200D01*
X104862300Y-99525600D02*
X104942300Y-99605600D01*
X104942300Y-99605600D02*
X138423200Y-99605600D01*
X139614800Y-27765800D02*
X139496200Y-27884400D01*
X139496200Y-27884400D02*
X111873700Y-27884400D01*
X111873700Y-27884400D02*
X109389300Y-25400000D01*
X182324700Y-24130000D02*
X178688900Y-27765800D01*
X178688900Y-27765800D02*
X139614800Y-27765800D01*
X184150000Y-24130000D02*
X182324700Y-24130000D01*
%TO.N,GND*%
X46863000Y-91694000D02*
X46863000Y-87630000D01*
X51435000Y-74422000D02*
X50292000Y-75565000D01*
X50292000Y-75565000D02*
X50292000Y-77089000D01*
X54737000Y-69342000D02*
X52197000Y-69342000D01*
X51816000Y-69723000D02*
X51689000Y-69723000D01*
X52197000Y-69342000D02*
X51816000Y-69723000D01*
X51484821Y-58166000D02*
X51746860Y-58428039D01*
X47371000Y-58166000D02*
X51484821Y-58166000D01*
X55880000Y-35687000D02*
X55626000Y-35433000D01*
X55626000Y-35433000D02*
X55626000Y-31369000D01*
X55626000Y-31369000D02*
X56642000Y-30353000D01*
X69215000Y-28194000D02*
X69215000Y-25260000D01*
X70358000Y-29337000D02*
X69215000Y-28194000D01*
X70485000Y-36068000D02*
X70485000Y-37338000D01*
X70485000Y-37338000D02*
X69596000Y-38227000D01*
X67564000Y-38227000D02*
X66675000Y-37338000D01*
X69596000Y-38227000D02*
X67564000Y-38227000D01*
X109093000Y-30734000D02*
X109093000Y-34544000D01*
X107061000Y-29083000D02*
X107061000Y-29972000D01*
X107823000Y-30734000D02*
X109093000Y-30734000D01*
X107061000Y-29972000D02*
X107823000Y-30734000D01*
X109093000Y-34544000D02*
X107950000Y-35687000D01*
X107950000Y-35687000D02*
X107950000Y-36957000D01*
X108966000Y-37973000D02*
X108966000Y-38100000D01*
X107950000Y-36957000D02*
X108966000Y-37973000D01*
X121031000Y-51181000D02*
X121031000Y-52578000D01*
X122428000Y-49784000D02*
X121031000Y-51181000D01*
X142240000Y-34417000D02*
X142240000Y-35179000D01*
X142240000Y-35179000D02*
X140843000Y-36576000D01*
X140843000Y-39243000D02*
X140970000Y-39370000D01*
X140843000Y-36576000D02*
X140843000Y-39243000D01*
X90551000Y-73406000D02*
X91567000Y-73406000D01*
X91567000Y-73406000D02*
X92075000Y-73914000D01*
X205486000Y-92583000D02*
X205740000Y-92837000D01*
X203581000Y-91186000D02*
X203327000Y-91440000D01*
X205486000Y-91186000D02*
X203581000Y-91186000D01*
X205486000Y-87122000D02*
X205486000Y-91186000D01*
X205486000Y-91186000D02*
X205486000Y-92583000D01*
%TO.N,/RST9*%
X132252600Y-32683900D02*
X133259200Y-32683900D01*
X133259200Y-32683900D02*
X137227600Y-36652300D01*
%TO.N,/RST6*%
X204094800Y-73266500D02*
X204094800Y-82808800D01*
X204094800Y-82808800D02*
X194674600Y-92229000D01*
%TO.N,/RST10*%
X93387800Y-32230400D02*
X99954900Y-32230400D01*
X99954900Y-32230400D02*
X104340200Y-36615700D01*
%TO.N,/RST7*%
X195775100Y-55263500D02*
X195775100Y-58635100D01*
X195775100Y-58635100D02*
X194963000Y-59447200D01*
%TO.N,/RST8*%
X159726200Y-32493400D02*
X166846000Y-32493400D01*
X166846000Y-32493400D02*
X171015200Y-36662600D01*
%TO.N,/ACTIONLLED10*%
X88760900Y-36867600D02*
X92631400Y-40738100D01*
X92631400Y-40738100D02*
X92631400Y-49112100D01*
%TO.N,/ACTIONLLED3*%
X100118400Y-92154500D02*
X100118400Y-80351600D01*
X100118400Y-80351600D02*
X92959900Y-73193100D01*
%TO.N,/ACTIONLLED4*%
X132252600Y-91546900D02*
X132252600Y-79208300D01*
X132252600Y-79208300D02*
X124139600Y-71095300D01*
%TO.N,/ACTIONLLED8*%
X152929500Y-41384700D02*
X152929500Y-50778600D01*
X152929500Y-50778600D02*
X155421600Y-53270700D01*
%TO.N,/D+*%
X172152900Y-72524600D02*
X172694600Y-73066300D01*
X167216700Y-72524600D02*
X172152900Y-72524600D01*
X172152900Y-72524600D02*
X172152900Y-57981200D01*
X172152900Y-57981200D02*
X179181800Y-50952300D01*
%TO.N,/D9-*%
X124403000Y-43949700D02*
X133258400Y-52805100D01*
X133258400Y-52805100D02*
X135007500Y-52805100D01*
%TO.N,/D9+*%
X121192300Y-44651800D02*
X121192300Y-45490400D01*
X121192300Y-45490400D02*
X130907000Y-55205100D01*
%TO.N,Net-(SW108-Pad2)*%
X164694700Y-83945300D02*
X167121700Y-83945300D01*
X167121700Y-83945300D02*
X170754300Y-87577900D01*
%TO.N,/D10-*%
X93778200Y-44582500D02*
X93778200Y-44846300D01*
X93778200Y-44846300D02*
X100835900Y-51904000D01*
%TO.N,/D10+*%
X86513700Y-44582500D02*
X96967200Y-55036000D01*
X96967200Y-55036000D02*
X97750900Y-55036000D01*
%TO.N,/BUT2*%
X86180600Y-33560100D02*
X83961400Y-31340900D01*
X83961400Y-31340900D02*
X73352500Y-31340900D01*
%TO.N,/BUT3*%
X88403500Y-44536300D02*
X79898800Y-36031600D01*
X79898800Y-36031600D02*
X75760000Y-36031600D01*
%TO.N,/D8+*%
X154297000Y-43949700D02*
X165454400Y-55107100D01*
X165454400Y-55107100D02*
X168116900Y-55107100D01*
%TO.N,/RSTDISP*%
X58353600Y-34111000D02*
X81508000Y-34111000D01*
X81508000Y-34111000D02*
X82089900Y-33529100D01*
%TO.N,/DispCS*%
X59289200Y-32734000D02*
X83760200Y-32734000D01*
X83760200Y-32734000D02*
X86671900Y-35645700D01*
%TO.N,/MOSI*%
X56598000Y-33577800D02*
X58196800Y-35176600D01*
X58196800Y-35176600D02*
X84830500Y-35176600D01*
X84830500Y-35176600D02*
X87938400Y-38284500D01*
%TO.N,/SCK*%
X57721200Y-32834300D02*
X59964500Y-30591000D01*
X59964500Y-30591000D02*
X90016500Y-30591000D01*
X90016500Y-30591000D02*
X94331000Y-34905500D01*
%TD*%
D17*
%TO.N,GND*%
X215382869Y-19724722D02*
X215496246Y-19758953D01*
X215600819Y-19814555D01*
X215692596Y-19889407D01*
X215768091Y-19980664D01*
X215824419Y-20084844D01*
X215859440Y-20197976D01*
X215875001Y-20346031D01*
X215875001Y-37211000D01*
X208407000Y-37211000D01*
X208382224Y-37213440D01*
X208358399Y-37220667D01*
X208336443Y-37232403D01*
X208317197Y-37248197D01*
X208301403Y-37267443D01*
X208289667Y-37289399D01*
X208282440Y-37313224D01*
X208280000Y-37338000D01*
X208280000Y-58674000D01*
X208281137Y-58690958D01*
X208286864Y-58715187D01*
X208297208Y-58737833D01*
X208311771Y-58758026D01*
X208329993Y-58774990D01*
X208351175Y-58788073D01*
X208374502Y-58796772D01*
X208399078Y-58800753D01*
X215875001Y-59267998D01*
X215875000Y-70231000D01*
X208407000Y-70231000D01*
X208382224Y-70233440D01*
X208358399Y-70240667D01*
X208336443Y-70252403D01*
X208317197Y-70268197D01*
X208301403Y-70287443D01*
X208289667Y-70309399D01*
X208282440Y-70333224D01*
X208280000Y-70358000D01*
X208280000Y-90678000D01*
X208282440Y-90702776D01*
X208289667Y-90726601D01*
X208301403Y-90748557D01*
X208317197Y-90767803D01*
X208336443Y-90783597D01*
X208358399Y-90795333D01*
X208382224Y-90802560D01*
X208407000Y-90805000D01*
X215875000Y-90805000D01*
X215875000Y-111727721D01*
X215860278Y-111877869D01*
X215826047Y-111991246D01*
X215770446Y-112095817D01*
X215695594Y-112187595D01*
X215604335Y-112263091D01*
X215500160Y-112319419D01*
X215387024Y-112354440D01*
X215238979Y-112370000D01*
X169926000Y-112370000D01*
X169926000Y-106395852D01*
X207300000Y-106395852D01*
X207300000Y-106964148D01*
X207410869Y-107521523D01*
X207628346Y-108046560D01*
X207944074Y-108519080D01*
X208345920Y-108920926D01*
X208818440Y-109236654D01*
X209343477Y-109454131D01*
X209900852Y-109565000D01*
X210469148Y-109565000D01*
X211026523Y-109454131D01*
X211551560Y-109236654D01*
X212024080Y-108920926D01*
X212425926Y-108519080D01*
X212741654Y-108046560D01*
X212959131Y-107521523D01*
X213070000Y-106964148D01*
X213070000Y-106395852D01*
X212959131Y-105838477D01*
X212741654Y-105313440D01*
X212425926Y-104840920D01*
X212024080Y-104439074D01*
X211551560Y-104123346D01*
X211026523Y-103905869D01*
X210469148Y-103795000D01*
X209900852Y-103795000D01*
X209343477Y-103905869D01*
X208818440Y-104123346D01*
X208345920Y-104439074D01*
X207944074Y-104840920D01*
X207628346Y-105313440D01*
X207410869Y-105838477D01*
X207300000Y-106395852D01*
X169926000Y-106395852D01*
X169926000Y-100330000D01*
X169923560Y-100305224D01*
X169916333Y-100281399D01*
X169904597Y-100259443D01*
X169888803Y-100240197D01*
X169869557Y-100224403D01*
X169847601Y-100212667D01*
X169823776Y-100205440D01*
X169799000Y-100203000D01*
X149479000Y-100203000D01*
X149454224Y-100205440D01*
X149430399Y-100212667D01*
X149408443Y-100224403D01*
X149389197Y-100240197D01*
X149373403Y-100259443D01*
X149361667Y-100281399D01*
X149354440Y-100305224D01*
X149352000Y-100330000D01*
X149352000Y-112370000D01*
X136398000Y-112370000D01*
X136398000Y-100365600D01*
X137605650Y-100365600D01*
X137619263Y-100385974D01*
X137763426Y-100530137D01*
X137932944Y-100643405D01*
X138121302Y-100721426D01*
X138321261Y-100761200D01*
X138525139Y-100761200D01*
X138725098Y-100721426D01*
X138913456Y-100643405D01*
X139082974Y-100530137D01*
X139227137Y-100385974D01*
X139340405Y-100216456D01*
X139418426Y-100028098D01*
X139458200Y-99828139D01*
X139458200Y-99645401D01*
X140726602Y-98377000D01*
X171033289Y-98377000D01*
X171077226Y-98420937D01*
X171246744Y-98534205D01*
X171435102Y-98612226D01*
X171635061Y-98652000D01*
X171838939Y-98652000D01*
X172038898Y-98612226D01*
X172227256Y-98534205D01*
X172396774Y-98420937D01*
X172540937Y-98276774D01*
X172654205Y-98107256D01*
X172732226Y-97918898D01*
X172772000Y-97718939D01*
X172772000Y-97515061D01*
X172732226Y-97315102D01*
X172654205Y-97126744D01*
X172540937Y-96957226D01*
X172497000Y-96913289D01*
X172497000Y-92127061D01*
X193639600Y-92127061D01*
X193639600Y-92330939D01*
X193679374Y-92530898D01*
X193757395Y-92719256D01*
X193870663Y-92888774D01*
X194014826Y-93032937D01*
X194184344Y-93146205D01*
X194372702Y-93224226D01*
X194572661Y-93264000D01*
X194776539Y-93264000D01*
X194976498Y-93224226D01*
X195164856Y-93146205D01*
X195334374Y-93032937D01*
X195478537Y-92888774D01*
X195591805Y-92719256D01*
X195669826Y-92530898D01*
X195709600Y-92330939D01*
X195709600Y-92268801D01*
X204605803Y-83372599D01*
X204634801Y-83348801D01*
X204729774Y-83233076D01*
X204800346Y-83101047D01*
X204843803Y-82957786D01*
X204854800Y-82846133D01*
X204858477Y-82808800D01*
X204854800Y-82771467D01*
X204854800Y-73970211D01*
X204898737Y-73926274D01*
X205012005Y-73756756D01*
X205090026Y-73568398D01*
X205129800Y-73368439D01*
X205129800Y-73164561D01*
X205090026Y-72964602D01*
X205012005Y-72776244D01*
X204898737Y-72606726D01*
X204754574Y-72462563D01*
X204585056Y-72349295D01*
X204396698Y-72271274D01*
X204196739Y-72231500D01*
X203992861Y-72231500D01*
X203792902Y-72271274D01*
X203604544Y-72349295D01*
X203435026Y-72462563D01*
X203290863Y-72606726D01*
X203177595Y-72776244D01*
X203099574Y-72964602D01*
X203059800Y-73164561D01*
X203059800Y-73368439D01*
X203099574Y-73568398D01*
X203177595Y-73756756D01*
X203290863Y-73926274D01*
X203334800Y-73970211D01*
X203334801Y-82493997D01*
X194634799Y-91194000D01*
X194572661Y-91194000D01*
X194372702Y-91233774D01*
X194184344Y-91311795D01*
X194014826Y-91425063D01*
X193870663Y-91569226D01*
X193757395Y-91738744D01*
X193679374Y-91927102D01*
X193639600Y-92127061D01*
X172497000Y-92127061D01*
X172497000Y-90041301D01*
X184175541Y-78362760D01*
X197235000Y-78362760D01*
X197235000Y-78527240D01*
X197267089Y-78688560D01*
X197330033Y-78840521D01*
X197421413Y-78977281D01*
X197537719Y-79093587D01*
X197614664Y-79145000D01*
X197537719Y-79196413D01*
X197421413Y-79312719D01*
X197330033Y-79449479D01*
X197267089Y-79601440D01*
X197235000Y-79762760D01*
X197235000Y-79927240D01*
X197267089Y-80088560D01*
X197330033Y-80240521D01*
X197421413Y-80377281D01*
X197537719Y-80493587D01*
X197674479Y-80584967D01*
X197826440Y-80647911D01*
X197943754Y-80671246D01*
X197967089Y-80788560D01*
X198030033Y-80940521D01*
X198121413Y-81077281D01*
X198237719Y-81193587D01*
X198374479Y-81284967D01*
X198526440Y-81347911D01*
X198687760Y-81380000D01*
X198852240Y-81380000D01*
X199013560Y-81347911D01*
X199165521Y-81284967D01*
X199302281Y-81193587D01*
X199418587Y-81077281D01*
X199470000Y-81000336D01*
X199521413Y-81077281D01*
X199637719Y-81193587D01*
X199774479Y-81284967D01*
X199926440Y-81347911D01*
X200087760Y-81380000D01*
X200252240Y-81380000D01*
X200413560Y-81347911D01*
X200565521Y-81284967D01*
X200702281Y-81193587D01*
X200818587Y-81077281D01*
X200909967Y-80940521D01*
X200972911Y-80788560D01*
X200996246Y-80671246D01*
X201113560Y-80647911D01*
X201265521Y-80584967D01*
X201402281Y-80493587D01*
X201518587Y-80377281D01*
X201609967Y-80240521D01*
X201672911Y-80088560D01*
X201705000Y-79927240D01*
X201705000Y-79762760D01*
X201672911Y-79601440D01*
X201609967Y-79449479D01*
X201518587Y-79312719D01*
X201402281Y-79196413D01*
X201325336Y-79145000D01*
X201402281Y-79093587D01*
X201518587Y-78977281D01*
X201609967Y-78840521D01*
X201672911Y-78688560D01*
X201705000Y-78527240D01*
X201705000Y-78362760D01*
X201672911Y-78201440D01*
X201609967Y-78049479D01*
X201518587Y-77912719D01*
X201402281Y-77796413D01*
X201265521Y-77705033D01*
X201113560Y-77642089D01*
X200996246Y-77618754D01*
X200972911Y-77501440D01*
X200909967Y-77349479D01*
X200818587Y-77212719D01*
X200702281Y-77096413D01*
X200565521Y-77005033D01*
X200413560Y-76942089D01*
X200252240Y-76910000D01*
X200087760Y-76910000D01*
X199926440Y-76942089D01*
X199774479Y-77005033D01*
X199637719Y-77096413D01*
X199521413Y-77212719D01*
X199470000Y-77289664D01*
X199418587Y-77212719D01*
X199302281Y-77096413D01*
X199165521Y-77005033D01*
X199013560Y-76942089D01*
X198852240Y-76910000D01*
X198687760Y-76910000D01*
X198526440Y-76942089D01*
X198374479Y-77005033D01*
X198237719Y-77096413D01*
X198121413Y-77212719D01*
X198030033Y-77349479D01*
X197967089Y-77501440D01*
X197943754Y-77618754D01*
X197826440Y-77642089D01*
X197674479Y-77705033D01*
X197537719Y-77796413D01*
X197421413Y-77912719D01*
X197330033Y-78049479D01*
X197267089Y-78201440D01*
X197235000Y-78362760D01*
X184175541Y-78362760D01*
X200295602Y-62242700D01*
X200357739Y-62242700D01*
X200557698Y-62202926D01*
X200746056Y-62124905D01*
X200915574Y-62011637D01*
X201059737Y-61867474D01*
X201173005Y-61697956D01*
X201251026Y-61509598D01*
X201290800Y-61309639D01*
X201290800Y-61105761D01*
X201251026Y-60905802D01*
X201173005Y-60717444D01*
X201059737Y-60547926D01*
X200915574Y-60403763D01*
X200746056Y-60290495D01*
X200557698Y-60212474D01*
X200357739Y-60172700D01*
X200295602Y-60172700D01*
X197260400Y-57137499D01*
X197260400Y-47669933D01*
X197267089Y-47703560D01*
X197330033Y-47855521D01*
X197421413Y-47992281D01*
X197537719Y-48108587D01*
X197674479Y-48199967D01*
X197826440Y-48262911D01*
X197943754Y-48286246D01*
X197967089Y-48403560D01*
X198030033Y-48555521D01*
X198121413Y-48692281D01*
X198237719Y-48808587D01*
X198374479Y-48899967D01*
X198526440Y-48962911D01*
X198687760Y-48995000D01*
X198852240Y-48995000D01*
X199013560Y-48962911D01*
X199165521Y-48899967D01*
X199302281Y-48808587D01*
X199418587Y-48692281D01*
X199470000Y-48615336D01*
X199521413Y-48692281D01*
X199637719Y-48808587D01*
X199774479Y-48899967D01*
X199926440Y-48962911D01*
X200087760Y-48995000D01*
X200252240Y-48995000D01*
X200413560Y-48962911D01*
X200565521Y-48899967D01*
X200702281Y-48808587D01*
X200818587Y-48692281D01*
X200909967Y-48555521D01*
X200972911Y-48403560D01*
X200996246Y-48286246D01*
X201113560Y-48262911D01*
X201265521Y-48199967D01*
X201402281Y-48108587D01*
X201518587Y-47992281D01*
X201609967Y-47855521D01*
X201672911Y-47703560D01*
X201705000Y-47542240D01*
X201705000Y-47377760D01*
X201672911Y-47216440D01*
X201609967Y-47064479D01*
X201518587Y-46927719D01*
X201402281Y-46811413D01*
X201325336Y-46760000D01*
X201402281Y-46708587D01*
X201518587Y-46592281D01*
X201609967Y-46455521D01*
X201672911Y-46303560D01*
X201705000Y-46142240D01*
X201705000Y-45977760D01*
X201672911Y-45816440D01*
X201609967Y-45664479D01*
X201518587Y-45527719D01*
X201402281Y-45411413D01*
X201265521Y-45320033D01*
X201113560Y-45257089D01*
X200996246Y-45233754D01*
X200972911Y-45116440D01*
X200909967Y-44964479D01*
X200818587Y-44827719D01*
X200702281Y-44711413D01*
X200565521Y-44620033D01*
X200413560Y-44557089D01*
X200252240Y-44525000D01*
X200087760Y-44525000D01*
X199926440Y-44557089D01*
X199774479Y-44620033D01*
X199637719Y-44711413D01*
X199521413Y-44827719D01*
X199470000Y-44904664D01*
X199418587Y-44827719D01*
X199302281Y-44711413D01*
X199165521Y-44620033D01*
X199013560Y-44557089D01*
X198852240Y-44525000D01*
X198687760Y-44525000D01*
X198526440Y-44557089D01*
X198374479Y-44620033D01*
X198237719Y-44711413D01*
X198121413Y-44827719D01*
X198030033Y-44964479D01*
X197967089Y-45116440D01*
X197943754Y-45233754D01*
X197826440Y-45257089D01*
X197674479Y-45320033D01*
X197537719Y-45411413D01*
X197421413Y-45527719D01*
X197330033Y-45664479D01*
X197267089Y-45816440D01*
X197260400Y-45850067D01*
X197260400Y-29111547D01*
X197279905Y-29082356D01*
X197357926Y-28893998D01*
X197397700Y-28694039D01*
X197397700Y-28490161D01*
X197357926Y-28290202D01*
X197279905Y-28101844D01*
X197166637Y-27932326D01*
X197022474Y-27788163D01*
X196852956Y-27674895D01*
X196664598Y-27596874D01*
X196464639Y-27557100D01*
X196260761Y-27557100D01*
X196060802Y-27596874D01*
X195872444Y-27674895D01*
X195702926Y-27788163D01*
X195658989Y-27832100D01*
X190067702Y-27832100D01*
X189448431Y-27212829D01*
X189551587Y-27113391D01*
X189673809Y-26937545D01*
X189759376Y-26741233D01*
X189805000Y-26532000D01*
X189805000Y-26201193D01*
X189869978Y-26228108D01*
X190055448Y-26265000D01*
X190244552Y-26265000D01*
X190430022Y-26228108D01*
X190604731Y-26155741D01*
X190761964Y-26050681D01*
X190895681Y-25916964D01*
X191000741Y-25759731D01*
X191073108Y-25585022D01*
X191110000Y-25399552D01*
X191110000Y-25210448D01*
X194970000Y-25210448D01*
X194970000Y-25399552D01*
X195006892Y-25585022D01*
X195079259Y-25759731D01*
X195184319Y-25916964D01*
X195318036Y-26050681D01*
X195475269Y-26155741D01*
X195649978Y-26228108D01*
X195835448Y-26265000D01*
X196024552Y-26265000D01*
X196210022Y-26228108D01*
X196275000Y-26201193D01*
X196275000Y-26532000D01*
X196320624Y-26741233D01*
X196406191Y-26937545D01*
X196528413Y-27113391D01*
X196682592Y-27262014D01*
X196862803Y-27377702D01*
X197065999Y-27449408D01*
X197233000Y-27322502D01*
X197233000Y-25932000D01*
X197487000Y-25932000D01*
X197487000Y-27322502D01*
X197654001Y-27449408D01*
X197857197Y-27377702D01*
X198037408Y-27262014D01*
X198191587Y-27113391D01*
X198313809Y-26937545D01*
X198399376Y-26741233D01*
X198445000Y-26532000D01*
X198445000Y-25932000D01*
X197487000Y-25932000D01*
X197233000Y-25932000D01*
X197213000Y-25932000D01*
X197213000Y-25678000D01*
X197233000Y-25678000D01*
X197233000Y-24287498D01*
X197487000Y-24287498D01*
X197487000Y-25678000D01*
X198445000Y-25678000D01*
X198445000Y-25078000D01*
X198399376Y-24868767D01*
X198313809Y-24672455D01*
X198191587Y-24496609D01*
X198037408Y-24347986D01*
X197857197Y-24232298D01*
X197654001Y-24160592D01*
X197487000Y-24287498D01*
X197233000Y-24287498D01*
X197065999Y-24160592D01*
X196862803Y-24232298D01*
X196682592Y-24347986D01*
X196528413Y-24496609D01*
X196502947Y-24533248D01*
X196384731Y-24454259D01*
X196210022Y-24381892D01*
X196024552Y-24345000D01*
X195835448Y-24345000D01*
X195649978Y-24381892D01*
X195475269Y-24454259D01*
X195318036Y-24559319D01*
X195184319Y-24693036D01*
X195079259Y-24850269D01*
X195006892Y-25024978D01*
X194970000Y-25210448D01*
X191110000Y-25210448D01*
X191073108Y-25024978D01*
X191000741Y-24850269D01*
X190895681Y-24693036D01*
X190761964Y-24559319D01*
X190604731Y-24454259D01*
X190430022Y-24381892D01*
X190244552Y-24345000D01*
X190055448Y-24345000D01*
X189869978Y-24381892D01*
X189695269Y-24454259D01*
X189577053Y-24533248D01*
X189551587Y-24496609D01*
X189397408Y-24347986D01*
X189217197Y-24232298D01*
X189014001Y-24160592D01*
X188847000Y-24287498D01*
X188847000Y-25678000D01*
X188867000Y-25678000D01*
X188867000Y-25932000D01*
X188847000Y-25932000D01*
X188847000Y-25952000D01*
X188593000Y-25952000D01*
X188593000Y-25932000D01*
X188573000Y-25932000D01*
X188573000Y-25678000D01*
X188593000Y-25678000D01*
X188593000Y-24287498D01*
X188425999Y-24160592D01*
X188222803Y-24232298D01*
X188042592Y-24347986D01*
X187888413Y-24496609D01*
X187766191Y-24672455D01*
X187680624Y-24868767D01*
X187635000Y-25078000D01*
X187635000Y-25399399D01*
X186735300Y-24499699D01*
X186735300Y-24167333D01*
X186738977Y-24130000D01*
X186724303Y-23981014D01*
X186680846Y-23837753D01*
X186610274Y-23705724D01*
X186515301Y-23589999D01*
X186399576Y-23495026D01*
X186288072Y-23435425D01*
X186288072Y-22630000D01*
X186275812Y-22505518D01*
X186239502Y-22385820D01*
X186180537Y-22275506D01*
X186101185Y-22178815D01*
X186004494Y-22099463D01*
X185894180Y-22040498D01*
X185774482Y-22004188D01*
X185650000Y-21991928D01*
X182650000Y-21991928D01*
X182525518Y-22004188D01*
X182405820Y-22040498D01*
X182295506Y-22099463D01*
X182198815Y-22178815D01*
X182119463Y-22275506D01*
X182060498Y-22385820D01*
X182024188Y-22505518D01*
X182011928Y-22630000D01*
X182011928Y-23435425D01*
X181900424Y-23495026D01*
X181784699Y-23589999D01*
X181760901Y-23618997D01*
X181208285Y-24171613D01*
X181214902Y-24087176D01*
X181165334Y-23669549D01*
X181035243Y-23269617D01*
X180877214Y-22973962D01*
X180561653Y-22817952D01*
X179249605Y-24130000D01*
X179263748Y-24144143D01*
X179084143Y-24323748D01*
X179070000Y-24309605D01*
X177757952Y-25621653D01*
X177913962Y-25937214D01*
X178288745Y-26128020D01*
X178693551Y-26242044D01*
X179105566Y-26274333D01*
X178374099Y-27005800D01*
X170057413Y-27005800D01*
X170099074Y-24172824D01*
X176925098Y-24172824D01*
X176974666Y-24590451D01*
X177104757Y-24990383D01*
X177262786Y-25286038D01*
X177578347Y-25442048D01*
X178890395Y-24130000D01*
X177578347Y-22817952D01*
X177262786Y-22973962D01*
X177071980Y-23348745D01*
X176957956Y-23753551D01*
X176925098Y-24172824D01*
X170099074Y-24172824D01*
X170121640Y-22638347D01*
X177757952Y-22638347D01*
X179070000Y-23950395D01*
X180382048Y-22638347D01*
X180226038Y-22322786D01*
X179851255Y-22131980D01*
X179446449Y-22017956D01*
X179027176Y-21985098D01*
X178609549Y-22034666D01*
X178209617Y-22164757D01*
X177913962Y-22322786D01*
X177757952Y-22638347D01*
X170121640Y-22638347D01*
X170134674Y-21752000D01*
X187585000Y-21752000D01*
X187585000Y-22052000D01*
X187631585Y-22270987D01*
X187719997Y-22476678D01*
X187846839Y-22661169D01*
X188007236Y-22817369D01*
X188195024Y-22939276D01*
X188418126Y-23019119D01*
X188593000Y-22892954D01*
X188593000Y-21752000D01*
X188847000Y-21752000D01*
X188847000Y-22892954D01*
X189021874Y-23019119D01*
X189244976Y-22939276D01*
X189432764Y-22817369D01*
X189593161Y-22661169D01*
X189720003Y-22476678D01*
X189808415Y-22270987D01*
X189855000Y-22052000D01*
X189855000Y-21752000D01*
X196225000Y-21752000D01*
X196225000Y-22052000D01*
X196271585Y-22270987D01*
X196359997Y-22476678D01*
X196486839Y-22661169D01*
X196647236Y-22817369D01*
X196835024Y-22939276D01*
X197058126Y-23019119D01*
X197233000Y-22892954D01*
X197233000Y-21752000D01*
X197487000Y-21752000D01*
X197487000Y-22892954D01*
X197661874Y-23019119D01*
X197884976Y-22939276D01*
X198072764Y-22817369D01*
X198233161Y-22661169D01*
X198360003Y-22476678D01*
X198448415Y-22270987D01*
X198495000Y-22052000D01*
X198495000Y-21752000D01*
X197487000Y-21752000D01*
X197233000Y-21752000D01*
X196225000Y-21752000D01*
X189855000Y-21752000D01*
X188847000Y-21752000D01*
X188593000Y-21752000D01*
X187585000Y-21752000D01*
X170134674Y-21752000D01*
X170142821Y-21198000D01*
X187585000Y-21198000D01*
X187585000Y-21498000D01*
X188593000Y-21498000D01*
X188593000Y-20357046D01*
X188847000Y-20357046D01*
X188847000Y-21498000D01*
X189855000Y-21498000D01*
X189855000Y-21198000D01*
X196225000Y-21198000D01*
X196225000Y-21498000D01*
X197233000Y-21498000D01*
X197233000Y-20357046D01*
X197487000Y-20357046D01*
X197487000Y-21498000D01*
X198495000Y-21498000D01*
X198495000Y-21198000D01*
X198448415Y-20979013D01*
X198360003Y-20773322D01*
X198233161Y-20588831D01*
X198072764Y-20432631D01*
X197884976Y-20310724D01*
X197661874Y-20230881D01*
X197487000Y-20357046D01*
X197233000Y-20357046D01*
X197058126Y-20230881D01*
X196835024Y-20310724D01*
X196647236Y-20432631D01*
X196486839Y-20588831D01*
X196359997Y-20773322D01*
X196271585Y-20979013D01*
X196225000Y-21198000D01*
X189855000Y-21198000D01*
X189808415Y-20979013D01*
X189720003Y-20773322D01*
X189593161Y-20588831D01*
X189432764Y-20432631D01*
X189244976Y-20310724D01*
X189021874Y-20230881D01*
X188847000Y-20357046D01*
X188593000Y-20357046D01*
X188418126Y-20230881D01*
X188195024Y-20310724D01*
X188007236Y-20432631D01*
X187846839Y-20588831D01*
X187719997Y-20773322D01*
X187631585Y-20979013D01*
X187585000Y-21198000D01*
X170142821Y-21198000D01*
X170164705Y-19710000D01*
X215232721Y-19710000D01*
X215382869Y-19724722D01*
%TA.AperFunction,Conductor*%
D18*
G36*
X215382869Y-19724722D02*
G01*
X215496246Y-19758953D01*
X215600819Y-19814555D01*
X215692596Y-19889407D01*
X215768091Y-19980664D01*
X215824419Y-20084844D01*
X215859440Y-20197976D01*
X215875001Y-20346031D01*
X215875001Y-37211000D01*
X208407000Y-37211000D01*
X208382224Y-37213440D01*
X208358399Y-37220667D01*
X208336443Y-37232403D01*
X208317197Y-37248197D01*
X208301403Y-37267443D01*
X208289667Y-37289399D01*
X208282440Y-37313224D01*
X208280000Y-37338000D01*
X208280000Y-58674000D01*
X208281137Y-58690958D01*
X208286864Y-58715187D01*
X208297208Y-58737833D01*
X208311771Y-58758026D01*
X208329993Y-58774990D01*
X208351175Y-58788073D01*
X208374502Y-58796772D01*
X208399078Y-58800753D01*
X215875001Y-59267998D01*
X215875000Y-70231000D01*
X208407000Y-70231000D01*
X208382224Y-70233440D01*
X208358399Y-70240667D01*
X208336443Y-70252403D01*
X208317197Y-70268197D01*
X208301403Y-70287443D01*
X208289667Y-70309399D01*
X208282440Y-70333224D01*
X208280000Y-70358000D01*
X208280000Y-90678000D01*
X208282440Y-90702776D01*
X208289667Y-90726601D01*
X208301403Y-90748557D01*
X208317197Y-90767803D01*
X208336443Y-90783597D01*
X208358399Y-90795333D01*
X208382224Y-90802560D01*
X208407000Y-90805000D01*
X215875000Y-90805000D01*
X215875000Y-111727721D01*
X215860278Y-111877869D01*
X215826047Y-111991246D01*
X215770446Y-112095817D01*
X215695594Y-112187595D01*
X215604335Y-112263091D01*
X215500160Y-112319419D01*
X215387024Y-112354440D01*
X215238979Y-112370000D01*
X169926000Y-112370000D01*
X169926000Y-106395852D01*
X207300000Y-106395852D01*
X207300000Y-106964148D01*
X207410869Y-107521523D01*
X207628346Y-108046560D01*
X207944074Y-108519080D01*
X208345920Y-108920926D01*
X208818440Y-109236654D01*
X209343477Y-109454131D01*
X209900852Y-109565000D01*
X210469148Y-109565000D01*
X211026523Y-109454131D01*
X211551560Y-109236654D01*
X212024080Y-108920926D01*
X212425926Y-108519080D01*
X212741654Y-108046560D01*
X212959131Y-107521523D01*
X213070000Y-106964148D01*
X213070000Y-106395852D01*
X212959131Y-105838477D01*
X212741654Y-105313440D01*
X212425926Y-104840920D01*
X212024080Y-104439074D01*
X211551560Y-104123346D01*
X211026523Y-103905869D01*
X210469148Y-103795000D01*
X209900852Y-103795000D01*
X209343477Y-103905869D01*
X208818440Y-104123346D01*
X208345920Y-104439074D01*
X207944074Y-104840920D01*
X207628346Y-105313440D01*
X207410869Y-105838477D01*
X207300000Y-106395852D01*
X169926000Y-106395852D01*
X169926000Y-100330000D01*
X169923560Y-100305224D01*
X169916333Y-100281399D01*
X169904597Y-100259443D01*
X169888803Y-100240197D01*
X169869557Y-100224403D01*
X169847601Y-100212667D01*
X169823776Y-100205440D01*
X169799000Y-100203000D01*
X149479000Y-100203000D01*
X149454224Y-100205440D01*
X149430399Y-100212667D01*
X149408443Y-100224403D01*
X149389197Y-100240197D01*
X149373403Y-100259443D01*
X149361667Y-100281399D01*
X149354440Y-100305224D01*
X149352000Y-100330000D01*
X149352000Y-112370000D01*
X136398000Y-112370000D01*
X136398000Y-100365600D01*
X137605650Y-100365600D01*
X137619263Y-100385974D01*
X137763426Y-100530137D01*
X137932944Y-100643405D01*
X138121302Y-100721426D01*
X138321261Y-100761200D01*
X138525139Y-100761200D01*
X138725098Y-100721426D01*
X138913456Y-100643405D01*
X139082974Y-100530137D01*
X139227137Y-100385974D01*
X139340405Y-100216456D01*
X139418426Y-100028098D01*
X139458200Y-99828139D01*
X139458200Y-99645401D01*
X140726602Y-98377000D01*
X171033289Y-98377000D01*
X171077226Y-98420937D01*
X171246744Y-98534205D01*
X171435102Y-98612226D01*
X171635061Y-98652000D01*
X171838939Y-98652000D01*
X172038898Y-98612226D01*
X172227256Y-98534205D01*
X172396774Y-98420937D01*
X172540937Y-98276774D01*
X172654205Y-98107256D01*
X172732226Y-97918898D01*
X172772000Y-97718939D01*
X172772000Y-97515061D01*
X172732226Y-97315102D01*
X172654205Y-97126744D01*
X172540937Y-96957226D01*
X172497000Y-96913289D01*
X172497000Y-92127061D01*
X193639600Y-92127061D01*
X193639600Y-92330939D01*
X193679374Y-92530898D01*
X193757395Y-92719256D01*
X193870663Y-92888774D01*
X194014826Y-93032937D01*
X194184344Y-93146205D01*
X194372702Y-93224226D01*
X194572661Y-93264000D01*
X194776539Y-93264000D01*
X194976498Y-93224226D01*
X195164856Y-93146205D01*
X195334374Y-93032937D01*
X195478537Y-92888774D01*
X195591805Y-92719256D01*
X195669826Y-92530898D01*
X195709600Y-92330939D01*
X195709600Y-92268801D01*
X204605803Y-83372599D01*
X204634801Y-83348801D01*
X204729774Y-83233076D01*
X204800346Y-83101047D01*
X204843803Y-82957786D01*
X204854800Y-82846133D01*
X204858477Y-82808800D01*
X204854800Y-82771467D01*
X204854800Y-73970211D01*
X204898737Y-73926274D01*
X205012005Y-73756756D01*
X205090026Y-73568398D01*
X205129800Y-73368439D01*
X205129800Y-73164561D01*
X205090026Y-72964602D01*
X205012005Y-72776244D01*
X204898737Y-72606726D01*
X204754574Y-72462563D01*
X204585056Y-72349295D01*
X204396698Y-72271274D01*
X204196739Y-72231500D01*
X203992861Y-72231500D01*
X203792902Y-72271274D01*
X203604544Y-72349295D01*
X203435026Y-72462563D01*
X203290863Y-72606726D01*
X203177595Y-72776244D01*
X203099574Y-72964602D01*
X203059800Y-73164561D01*
X203059800Y-73368439D01*
X203099574Y-73568398D01*
X203177595Y-73756756D01*
X203290863Y-73926274D01*
X203334800Y-73970211D01*
X203334801Y-82493997D01*
X194634799Y-91194000D01*
X194572661Y-91194000D01*
X194372702Y-91233774D01*
X194184344Y-91311795D01*
X194014826Y-91425063D01*
X193870663Y-91569226D01*
X193757395Y-91738744D01*
X193679374Y-91927102D01*
X193639600Y-92127061D01*
X172497000Y-92127061D01*
X172497000Y-90041301D01*
X184175541Y-78362760D01*
X197235000Y-78362760D01*
X197235000Y-78527240D01*
X197267089Y-78688560D01*
X197330033Y-78840521D01*
X197421413Y-78977281D01*
X197537719Y-79093587D01*
X197614664Y-79145000D01*
X197537719Y-79196413D01*
X197421413Y-79312719D01*
X197330033Y-79449479D01*
X197267089Y-79601440D01*
X197235000Y-79762760D01*
X197235000Y-79927240D01*
X197267089Y-80088560D01*
X197330033Y-80240521D01*
X197421413Y-80377281D01*
X197537719Y-80493587D01*
X197674479Y-80584967D01*
X197826440Y-80647911D01*
X197943754Y-80671246D01*
X197967089Y-80788560D01*
X198030033Y-80940521D01*
X198121413Y-81077281D01*
X198237719Y-81193587D01*
X198374479Y-81284967D01*
X198526440Y-81347911D01*
X198687760Y-81380000D01*
X198852240Y-81380000D01*
X199013560Y-81347911D01*
X199165521Y-81284967D01*
X199302281Y-81193587D01*
X199418587Y-81077281D01*
X199470000Y-81000336D01*
X199521413Y-81077281D01*
X199637719Y-81193587D01*
X199774479Y-81284967D01*
X199926440Y-81347911D01*
X200087760Y-81380000D01*
X200252240Y-81380000D01*
X200413560Y-81347911D01*
X200565521Y-81284967D01*
X200702281Y-81193587D01*
X200818587Y-81077281D01*
X200909967Y-80940521D01*
X200972911Y-80788560D01*
X200996246Y-80671246D01*
X201113560Y-80647911D01*
X201265521Y-80584967D01*
X201402281Y-80493587D01*
X201518587Y-80377281D01*
X201609967Y-80240521D01*
X201672911Y-80088560D01*
X201705000Y-79927240D01*
X201705000Y-79762760D01*
X201672911Y-79601440D01*
X201609967Y-79449479D01*
X201518587Y-79312719D01*
X201402281Y-79196413D01*
X201325336Y-79145000D01*
X201402281Y-79093587D01*
X201518587Y-78977281D01*
X201609967Y-78840521D01*
X201672911Y-78688560D01*
X201705000Y-78527240D01*
X201705000Y-78362760D01*
X201672911Y-78201440D01*
X201609967Y-78049479D01*
X201518587Y-77912719D01*
X201402281Y-77796413D01*
X201265521Y-77705033D01*
X201113560Y-77642089D01*
X200996246Y-77618754D01*
X200972911Y-77501440D01*
X200909967Y-77349479D01*
X200818587Y-77212719D01*
X200702281Y-77096413D01*
X200565521Y-77005033D01*
X200413560Y-76942089D01*
X200252240Y-76910000D01*
X200087760Y-76910000D01*
X199926440Y-76942089D01*
X199774479Y-77005033D01*
X199637719Y-77096413D01*
X199521413Y-77212719D01*
X199470000Y-77289664D01*
X199418587Y-77212719D01*
X199302281Y-77096413D01*
X199165521Y-77005033D01*
X199013560Y-76942089D01*
X198852240Y-76910000D01*
X198687760Y-76910000D01*
X198526440Y-76942089D01*
X198374479Y-77005033D01*
X198237719Y-77096413D01*
X198121413Y-77212719D01*
X198030033Y-77349479D01*
X197967089Y-77501440D01*
X197943754Y-77618754D01*
X197826440Y-77642089D01*
X197674479Y-77705033D01*
X197537719Y-77796413D01*
X197421413Y-77912719D01*
X197330033Y-78049479D01*
X197267089Y-78201440D01*
X197235000Y-78362760D01*
X184175541Y-78362760D01*
X200295602Y-62242700D01*
X200357739Y-62242700D01*
X200557698Y-62202926D01*
X200746056Y-62124905D01*
X200915574Y-62011637D01*
X201059737Y-61867474D01*
X201173005Y-61697956D01*
X201251026Y-61509598D01*
X201290800Y-61309639D01*
X201290800Y-61105761D01*
X201251026Y-60905802D01*
X201173005Y-60717444D01*
X201059737Y-60547926D01*
X200915574Y-60403763D01*
X200746056Y-60290495D01*
X200557698Y-60212474D01*
X200357739Y-60172700D01*
X200295602Y-60172700D01*
X197260400Y-57137499D01*
X197260400Y-47669933D01*
X197267089Y-47703560D01*
X197330033Y-47855521D01*
X197421413Y-47992281D01*
X197537719Y-48108587D01*
X197674479Y-48199967D01*
X197826440Y-48262911D01*
X197943754Y-48286246D01*
X197967089Y-48403560D01*
X198030033Y-48555521D01*
X198121413Y-48692281D01*
X198237719Y-48808587D01*
X198374479Y-48899967D01*
X198526440Y-48962911D01*
X198687760Y-48995000D01*
X198852240Y-48995000D01*
X199013560Y-48962911D01*
X199165521Y-48899967D01*
X199302281Y-48808587D01*
X199418587Y-48692281D01*
X199470000Y-48615336D01*
X199521413Y-48692281D01*
X199637719Y-48808587D01*
X199774479Y-48899967D01*
X199926440Y-48962911D01*
X200087760Y-48995000D01*
X200252240Y-48995000D01*
X200413560Y-48962911D01*
X200565521Y-48899967D01*
X200702281Y-48808587D01*
X200818587Y-48692281D01*
X200909967Y-48555521D01*
X200972911Y-48403560D01*
X200996246Y-48286246D01*
X201113560Y-48262911D01*
X201265521Y-48199967D01*
X201402281Y-48108587D01*
X201518587Y-47992281D01*
X201609967Y-47855521D01*
X201672911Y-47703560D01*
X201705000Y-47542240D01*
X201705000Y-47377760D01*
X201672911Y-47216440D01*
X201609967Y-47064479D01*
X201518587Y-46927719D01*
X201402281Y-46811413D01*
X201325336Y-46760000D01*
X201402281Y-46708587D01*
X201518587Y-46592281D01*
X201609967Y-46455521D01*
X201672911Y-46303560D01*
X201705000Y-46142240D01*
X201705000Y-45977760D01*
X201672911Y-45816440D01*
X201609967Y-45664479D01*
X201518587Y-45527719D01*
X201402281Y-45411413D01*
X201265521Y-45320033D01*
X201113560Y-45257089D01*
X200996246Y-45233754D01*
X200972911Y-45116440D01*
X200909967Y-44964479D01*
X200818587Y-44827719D01*
X200702281Y-44711413D01*
X200565521Y-44620033D01*
X200413560Y-44557089D01*
X200252240Y-44525000D01*
X200087760Y-44525000D01*
X199926440Y-44557089D01*
X199774479Y-44620033D01*
X199637719Y-44711413D01*
X199521413Y-44827719D01*
X199470000Y-44904664D01*
X199418587Y-44827719D01*
X199302281Y-44711413D01*
X199165521Y-44620033D01*
X199013560Y-44557089D01*
X198852240Y-44525000D01*
X198687760Y-44525000D01*
X198526440Y-44557089D01*
X198374479Y-44620033D01*
X198237719Y-44711413D01*
X198121413Y-44827719D01*
X198030033Y-44964479D01*
X197967089Y-45116440D01*
X197943754Y-45233754D01*
X197826440Y-45257089D01*
X197674479Y-45320033D01*
X197537719Y-45411413D01*
X197421413Y-45527719D01*
X197330033Y-45664479D01*
X197267089Y-45816440D01*
X197260400Y-45850067D01*
X197260400Y-29111547D01*
X197279905Y-29082356D01*
X197357926Y-28893998D01*
X197397700Y-28694039D01*
X197397700Y-28490161D01*
X197357926Y-28290202D01*
X197279905Y-28101844D01*
X197166637Y-27932326D01*
X197022474Y-27788163D01*
X196852956Y-27674895D01*
X196664598Y-27596874D01*
X196464639Y-27557100D01*
X196260761Y-27557100D01*
X196060802Y-27596874D01*
X195872444Y-27674895D01*
X195702926Y-27788163D01*
X195658989Y-27832100D01*
X190067702Y-27832100D01*
X189448431Y-27212829D01*
X189551587Y-27113391D01*
X189673809Y-26937545D01*
X189759376Y-26741233D01*
X189805000Y-26532000D01*
X189805000Y-26201193D01*
X189869978Y-26228108D01*
X190055448Y-26265000D01*
X190244552Y-26265000D01*
X190430022Y-26228108D01*
X190604731Y-26155741D01*
X190761964Y-26050681D01*
X190895681Y-25916964D01*
X191000741Y-25759731D01*
X191073108Y-25585022D01*
X191110000Y-25399552D01*
X191110000Y-25210448D01*
X194970000Y-25210448D01*
X194970000Y-25399552D01*
X195006892Y-25585022D01*
X195079259Y-25759731D01*
X195184319Y-25916964D01*
X195318036Y-26050681D01*
X195475269Y-26155741D01*
X195649978Y-26228108D01*
X195835448Y-26265000D01*
X196024552Y-26265000D01*
X196210022Y-26228108D01*
X196275000Y-26201193D01*
X196275000Y-26532000D01*
X196320624Y-26741233D01*
X196406191Y-26937545D01*
X196528413Y-27113391D01*
X196682592Y-27262014D01*
X196862803Y-27377702D01*
X197065999Y-27449408D01*
X197233000Y-27322502D01*
X197233000Y-25932000D01*
X197487000Y-25932000D01*
X197487000Y-27322502D01*
X197654001Y-27449408D01*
X197857197Y-27377702D01*
X198037408Y-27262014D01*
X198191587Y-27113391D01*
X198313809Y-26937545D01*
X198399376Y-26741233D01*
X198445000Y-26532000D01*
X198445000Y-25932000D01*
X197487000Y-25932000D01*
X197233000Y-25932000D01*
X197213000Y-25932000D01*
X197213000Y-25678000D01*
X197233000Y-25678000D01*
X197233000Y-24287498D01*
X197487000Y-24287498D01*
X197487000Y-25678000D01*
X198445000Y-25678000D01*
X198445000Y-25078000D01*
X198399376Y-24868767D01*
X198313809Y-24672455D01*
X198191587Y-24496609D01*
X198037408Y-24347986D01*
X197857197Y-24232298D01*
X197654001Y-24160592D01*
X197487000Y-24287498D01*
X197233000Y-24287498D01*
X197065999Y-24160592D01*
X196862803Y-24232298D01*
X196682592Y-24347986D01*
X196528413Y-24496609D01*
X196502947Y-24533248D01*
X196384731Y-24454259D01*
X196210022Y-24381892D01*
X196024552Y-24345000D01*
X195835448Y-24345000D01*
X195649978Y-24381892D01*
X195475269Y-24454259D01*
X195318036Y-24559319D01*
X195184319Y-24693036D01*
X195079259Y-24850269D01*
X195006892Y-25024978D01*
X194970000Y-25210448D01*
X191110000Y-25210448D01*
X191073108Y-25024978D01*
X191000741Y-24850269D01*
X190895681Y-24693036D01*
X190761964Y-24559319D01*
X190604731Y-24454259D01*
X190430022Y-24381892D01*
X190244552Y-24345000D01*
X190055448Y-24345000D01*
X189869978Y-24381892D01*
X189695269Y-24454259D01*
X189577053Y-24533248D01*
X189551587Y-24496609D01*
X189397408Y-24347986D01*
X189217197Y-24232298D01*
X189014001Y-24160592D01*
X188847000Y-24287498D01*
X188847000Y-25678000D01*
X188867000Y-25678000D01*
X188867000Y-25932000D01*
X188847000Y-25932000D01*
X188847000Y-25952000D01*
X188593000Y-25952000D01*
X188593000Y-25932000D01*
X188573000Y-25932000D01*
X188573000Y-25678000D01*
X188593000Y-25678000D01*
X188593000Y-24287498D01*
X188425999Y-24160592D01*
X188222803Y-24232298D01*
X188042592Y-24347986D01*
X187888413Y-24496609D01*
X187766191Y-24672455D01*
X187680624Y-24868767D01*
X187635000Y-25078000D01*
X187635000Y-25399399D01*
X186735300Y-24499699D01*
X186735300Y-24167333D01*
X186738977Y-24130000D01*
X186724303Y-23981014D01*
X186680846Y-23837753D01*
X186610274Y-23705724D01*
X186515301Y-23589999D01*
X186399576Y-23495026D01*
X186288072Y-23435425D01*
X186288072Y-22630000D01*
X186275812Y-22505518D01*
X186239502Y-22385820D01*
X186180537Y-22275506D01*
X186101185Y-22178815D01*
X186004494Y-22099463D01*
X185894180Y-22040498D01*
X185774482Y-22004188D01*
X185650000Y-21991928D01*
X182650000Y-21991928D01*
X182525518Y-22004188D01*
X182405820Y-22040498D01*
X182295506Y-22099463D01*
X182198815Y-22178815D01*
X182119463Y-22275506D01*
X182060498Y-22385820D01*
X182024188Y-22505518D01*
X182011928Y-22630000D01*
X182011928Y-23435425D01*
X181900424Y-23495026D01*
X181784699Y-23589999D01*
X181760901Y-23618997D01*
X181208285Y-24171613D01*
X181214902Y-24087176D01*
X181165334Y-23669549D01*
X181035243Y-23269617D01*
X180877214Y-22973962D01*
X180561653Y-22817952D01*
X179249605Y-24130000D01*
X179263748Y-24144143D01*
X179084143Y-24323748D01*
X179070000Y-24309605D01*
X177757952Y-25621653D01*
X177913962Y-25937214D01*
X178288745Y-26128020D01*
X178693551Y-26242044D01*
X179105566Y-26274333D01*
X178374099Y-27005800D01*
X170057413Y-27005800D01*
X170099074Y-24172824D01*
X176925098Y-24172824D01*
X176974666Y-24590451D01*
X177104757Y-24990383D01*
X177262786Y-25286038D01*
X177578347Y-25442048D01*
X178890395Y-24130000D01*
X177578347Y-22817952D01*
X177262786Y-22973962D01*
X177071980Y-23348745D01*
X176957956Y-23753551D01*
X176925098Y-24172824D01*
X170099074Y-24172824D01*
X170121640Y-22638347D01*
X177757952Y-22638347D01*
X179070000Y-23950395D01*
X180382048Y-22638347D01*
X180226038Y-22322786D01*
X179851255Y-22131980D01*
X179446449Y-22017956D01*
X179027176Y-21985098D01*
X178609549Y-22034666D01*
X178209617Y-22164757D01*
X177913962Y-22322786D01*
X177757952Y-22638347D01*
X170121640Y-22638347D01*
X170134674Y-21752000D01*
X187585000Y-21752000D01*
X187585000Y-22052000D01*
X187631585Y-22270987D01*
X187719997Y-22476678D01*
X187846839Y-22661169D01*
X188007236Y-22817369D01*
X188195024Y-22939276D01*
X188418126Y-23019119D01*
X188593000Y-22892954D01*
X188593000Y-21752000D01*
X188847000Y-21752000D01*
X188847000Y-22892954D01*
X189021874Y-23019119D01*
X189244976Y-22939276D01*
X189432764Y-22817369D01*
X189593161Y-22661169D01*
X189720003Y-22476678D01*
X189808415Y-22270987D01*
X189855000Y-22052000D01*
X189855000Y-21752000D01*
X196225000Y-21752000D01*
X196225000Y-22052000D01*
X196271585Y-22270987D01*
X196359997Y-22476678D01*
X196486839Y-22661169D01*
X196647236Y-22817369D01*
X196835024Y-22939276D01*
X197058126Y-23019119D01*
X197233000Y-22892954D01*
X197233000Y-21752000D01*
X197487000Y-21752000D01*
X197487000Y-22892954D01*
X197661874Y-23019119D01*
X197884976Y-22939276D01*
X198072764Y-22817369D01*
X198233161Y-22661169D01*
X198360003Y-22476678D01*
X198448415Y-22270987D01*
X198495000Y-22052000D01*
X198495000Y-21752000D01*
X197487000Y-21752000D01*
X197233000Y-21752000D01*
X196225000Y-21752000D01*
X189855000Y-21752000D01*
X188847000Y-21752000D01*
X188593000Y-21752000D01*
X187585000Y-21752000D01*
X170134674Y-21752000D01*
X170142821Y-21198000D01*
X187585000Y-21198000D01*
X187585000Y-21498000D01*
X188593000Y-21498000D01*
X188593000Y-20357046D01*
X188847000Y-20357046D01*
X188847000Y-21498000D01*
X189855000Y-21498000D01*
X189855000Y-21198000D01*
X196225000Y-21198000D01*
X196225000Y-21498000D01*
X197233000Y-21498000D01*
X197233000Y-20357046D01*
X197487000Y-20357046D01*
X197487000Y-21498000D01*
X198495000Y-21498000D01*
X198495000Y-21198000D01*
X198448415Y-20979013D01*
X198360003Y-20773322D01*
X198233161Y-20588831D01*
X198072764Y-20432631D01*
X197884976Y-20310724D01*
X197661874Y-20230881D01*
X197487000Y-20357046D01*
X197233000Y-20357046D01*
X197058126Y-20230881D01*
X196835024Y-20310724D01*
X196647236Y-20432631D01*
X196486839Y-20588831D01*
X196359997Y-20773322D01*
X196271585Y-20979013D01*
X196225000Y-21198000D01*
X189855000Y-21198000D01*
X189808415Y-20979013D01*
X189720003Y-20773322D01*
X189593161Y-20588831D01*
X189432764Y-20432631D01*
X189244976Y-20310724D01*
X189021874Y-20230881D01*
X188847000Y-20357046D01*
X188593000Y-20357046D01*
X188418126Y-20230881D01*
X188195024Y-20310724D01*
X188007236Y-20432631D01*
X187846839Y-20588831D01*
X187719997Y-20773322D01*
X187631585Y-20979013D01*
X187585000Y-21198000D01*
X170142821Y-21198000D01*
X170164705Y-19710000D01*
X215232721Y-19710000D01*
X215382869Y-19724722D01*
G37*
%TD.AperFunction*%
D17*
X82804000Y-27432000D02*
X82806440Y-27456776D01*
X82813667Y-27480601D01*
X82825403Y-27502557D01*
X82841197Y-27521803D01*
X82860443Y-27537597D01*
X82882399Y-27549333D01*
X82906224Y-27556560D01*
X82931000Y-27559000D01*
X103124000Y-27559000D01*
X103148776Y-27556560D01*
X103172601Y-27549333D01*
X103194557Y-27537597D01*
X103213803Y-27521803D01*
X103229597Y-27502557D01*
X103241333Y-27480601D01*
X103248560Y-27456776D01*
X103251000Y-27432000D01*
X103251000Y-19710000D01*
X116205000Y-19710000D01*
X116205000Y-27124400D01*
X112188502Y-27124400D01*
X110424300Y-25360199D01*
X110424300Y-25298061D01*
X110384526Y-25098102D01*
X110306505Y-24909744D01*
X110193237Y-24740226D01*
X110049074Y-24596063D01*
X109879556Y-24482795D01*
X109691198Y-24404774D01*
X109491239Y-24365000D01*
X109287361Y-24365000D01*
X109087402Y-24404774D01*
X108899044Y-24482795D01*
X108729526Y-24596063D01*
X108585363Y-24740226D01*
X108472095Y-24909744D01*
X108394074Y-25098102D01*
X108354300Y-25298061D01*
X108354300Y-25501939D01*
X108394074Y-25701898D01*
X108472095Y-25890256D01*
X108585363Y-26059774D01*
X108729526Y-26203937D01*
X108899044Y-26317205D01*
X109087402Y-26395226D01*
X109287361Y-26435000D01*
X109349499Y-26435000D01*
X111309901Y-28395403D01*
X111333699Y-28424401D01*
X111449424Y-28519374D01*
X111581453Y-28589946D01*
X111724714Y-28633403D01*
X111836367Y-28644400D01*
X111836376Y-28644400D01*
X111873699Y-28648076D01*
X111911022Y-28644400D01*
X139066767Y-28644400D01*
X139124544Y-28683005D01*
X139312902Y-28761026D01*
X139512861Y-28800800D01*
X139716739Y-28800800D01*
X139916698Y-28761026D01*
X140105056Y-28683005D01*
X140274574Y-28569737D01*
X140318511Y-28525800D01*
X178651578Y-28525800D01*
X178688900Y-28529476D01*
X178726222Y-28525800D01*
X178726233Y-28525800D01*
X178837886Y-28514803D01*
X178981147Y-28471346D01*
X179113176Y-28400774D01*
X179228901Y-28305801D01*
X179252704Y-28276797D01*
X182011928Y-25517574D01*
X182011928Y-25630000D01*
X182024188Y-25754482D01*
X182060498Y-25874180D01*
X182119463Y-25984494D01*
X182198815Y-26081185D01*
X182295506Y-26160537D01*
X182405820Y-26219502D01*
X182525518Y-26255812D01*
X182650000Y-26268072D01*
X185650000Y-26268072D01*
X185774482Y-26255812D01*
X185894180Y-26219502D01*
X186004494Y-26160537D01*
X186101185Y-26081185D01*
X186130934Y-26044935D01*
X189189100Y-29103102D01*
X189212899Y-29132101D01*
X189241897Y-29155899D01*
X189328623Y-29227074D01*
X189408559Y-29269801D01*
X189460653Y-29297646D01*
X189603914Y-29341103D01*
X189715567Y-29352100D01*
X189715576Y-29352100D01*
X189752899Y-29355776D01*
X189790222Y-29352100D01*
X195658989Y-29352100D01*
X195702926Y-29396037D01*
X195740401Y-29421077D01*
X195740400Y-54228500D01*
X195673161Y-54228500D01*
X195473202Y-54268274D01*
X195284844Y-54346295D01*
X195115326Y-54459563D01*
X194971163Y-54603726D01*
X194857895Y-54773244D01*
X194779874Y-54961602D01*
X194740100Y-55161561D01*
X194740100Y-55365439D01*
X194779874Y-55565398D01*
X194857895Y-55753756D01*
X194971163Y-55923274D01*
X195015100Y-55967211D01*
X195015101Y-58320297D01*
X194923198Y-58412200D01*
X194861061Y-58412200D01*
X194661102Y-58451974D01*
X194472744Y-58529995D01*
X194303226Y-58643263D01*
X194159063Y-58787426D01*
X194045795Y-58956944D01*
X193967774Y-59145302D01*
X193928000Y-59345261D01*
X193928000Y-59549139D01*
X193967774Y-59749098D01*
X194045795Y-59937456D01*
X194159063Y-60106974D01*
X194303226Y-60251137D01*
X194472744Y-60364405D01*
X194661102Y-60442426D01*
X194861061Y-60482200D01*
X195064939Y-60482200D01*
X195264898Y-60442426D01*
X195453256Y-60364405D01*
X195622774Y-60251137D01*
X195766937Y-60106974D01*
X195880205Y-59937456D01*
X195958226Y-59749098D01*
X195998000Y-59549139D01*
X195998000Y-59487002D01*
X196286102Y-59198899D01*
X196315101Y-59175101D01*
X196410074Y-59059376D01*
X196480646Y-58927347D01*
X196524103Y-58784086D01*
X196535100Y-58672433D01*
X196535100Y-58672423D01*
X196538776Y-58635100D01*
X196535100Y-58597777D01*
X196535100Y-58561801D01*
X199180998Y-61207700D01*
X171225998Y-89162701D01*
X171197000Y-89186499D01*
X171173202Y-89215497D01*
X171173201Y-89215498D01*
X171102026Y-89302224D01*
X171031454Y-89434254D01*
X170987998Y-89577515D01*
X170973324Y-89726500D01*
X170977001Y-89763832D01*
X170977000Y-96857000D01*
X140449122Y-96857000D01*
X140411799Y-96853324D01*
X140374476Y-96857000D01*
X140374467Y-96857000D01*
X140262814Y-96867997D01*
X140119553Y-96911454D01*
X139987523Y-96982026D01*
X139903883Y-97050668D01*
X139871799Y-97076999D01*
X139848001Y-97105997D01*
X138248283Y-98705716D01*
X138121302Y-98730974D01*
X137932944Y-98808995D01*
X137878161Y-98845600D01*
X105646011Y-98845600D01*
X105522074Y-98721663D01*
X105352556Y-98608395D01*
X105164198Y-98530374D01*
X104964239Y-98490600D01*
X104760361Y-98490600D01*
X104560402Y-98530374D01*
X104372044Y-98608395D01*
X104202526Y-98721663D01*
X104158589Y-98765600D01*
X49433300Y-98765600D01*
X49433300Y-91522760D01*
X51025000Y-91522760D01*
X51025000Y-91687240D01*
X51057089Y-91848560D01*
X51120033Y-92000521D01*
X51211413Y-92137281D01*
X51327719Y-92253587D01*
X51404664Y-92305000D01*
X51327719Y-92356413D01*
X51211413Y-92472719D01*
X51120033Y-92609479D01*
X51057089Y-92761440D01*
X51025000Y-92922760D01*
X51025000Y-93087240D01*
X51057089Y-93248560D01*
X51120033Y-93400521D01*
X51211413Y-93537281D01*
X51327719Y-93653587D01*
X51464479Y-93744967D01*
X51616440Y-93807911D01*
X51733754Y-93831246D01*
X51757089Y-93948560D01*
X51820033Y-94100521D01*
X51911413Y-94237281D01*
X52027719Y-94353587D01*
X52164479Y-94444967D01*
X52316440Y-94507911D01*
X52477760Y-94540000D01*
X52642240Y-94540000D01*
X52803560Y-94507911D01*
X52955521Y-94444967D01*
X53092281Y-94353587D01*
X53208587Y-94237281D01*
X53260000Y-94160336D01*
X53311413Y-94237281D01*
X53427719Y-94353587D01*
X53564479Y-94444967D01*
X53716440Y-94507911D01*
X53877760Y-94540000D01*
X54042240Y-94540000D01*
X54203560Y-94507911D01*
X54355521Y-94444967D01*
X54492281Y-94353587D01*
X54608587Y-94237281D01*
X54699967Y-94100521D01*
X54762911Y-93948560D01*
X54786246Y-93831246D01*
X54903560Y-93807911D01*
X55055521Y-93744967D01*
X55192281Y-93653587D01*
X55308587Y-93537281D01*
X55399967Y-93400521D01*
X55462911Y-93248560D01*
X55495000Y-93087240D01*
X55495000Y-92922760D01*
X55462911Y-92761440D01*
X55399967Y-92609479D01*
X55308587Y-92472719D01*
X55192281Y-92356413D01*
X55115336Y-92305000D01*
X55192281Y-92253587D01*
X55308587Y-92137281D01*
X55399967Y-92000521D01*
X55462911Y-91848560D01*
X55495000Y-91687240D01*
X55495000Y-91522760D01*
X55462911Y-91361440D01*
X55399967Y-91209479D01*
X55308587Y-91072719D01*
X55192281Y-90956413D01*
X55055521Y-90865033D01*
X54903560Y-90802089D01*
X54786246Y-90778754D01*
X54778092Y-90737760D01*
X92610000Y-90737760D01*
X92610000Y-90902240D01*
X92642089Y-91063560D01*
X92705033Y-91215521D01*
X92796413Y-91352281D01*
X92912719Y-91468587D01*
X92989664Y-91520000D01*
X92912719Y-91571413D01*
X92796413Y-91687719D01*
X92705033Y-91824479D01*
X92642089Y-91976440D01*
X92610000Y-92137760D01*
X92610000Y-92302240D01*
X92642089Y-92463560D01*
X92705033Y-92615521D01*
X92796413Y-92752281D01*
X92912719Y-92868587D01*
X93049479Y-92959967D01*
X93201440Y-93022911D01*
X93318754Y-93046246D01*
X93342089Y-93163560D01*
X93405033Y-93315521D01*
X93496413Y-93452281D01*
X93612719Y-93568587D01*
X93749479Y-93659967D01*
X93901440Y-93722911D01*
X94062760Y-93755000D01*
X94227240Y-93755000D01*
X94388560Y-93722911D01*
X94540521Y-93659967D01*
X94677281Y-93568587D01*
X94793587Y-93452281D01*
X94845000Y-93375336D01*
X94896413Y-93452281D01*
X95012719Y-93568587D01*
X95149479Y-93659967D01*
X95301440Y-93722911D01*
X95462760Y-93755000D01*
X95627240Y-93755000D01*
X95788560Y-93722911D01*
X95940521Y-93659967D01*
X96077281Y-93568587D01*
X96193587Y-93452281D01*
X96284967Y-93315521D01*
X96347911Y-93163560D01*
X96371246Y-93046246D01*
X96488560Y-93022911D01*
X96640521Y-92959967D01*
X96777281Y-92868587D01*
X96893587Y-92752281D01*
X96984967Y-92615521D01*
X97047911Y-92463560D01*
X97080000Y-92302240D01*
X97080000Y-92137760D01*
X97047911Y-91976440D01*
X96984967Y-91824479D01*
X96893587Y-91687719D01*
X96777281Y-91571413D01*
X96700336Y-91520000D01*
X96777281Y-91468587D01*
X96893587Y-91352281D01*
X96984967Y-91215521D01*
X97047911Y-91063560D01*
X97080000Y-90902240D01*
X97080000Y-90737760D01*
X97047911Y-90576440D01*
X96984967Y-90424479D01*
X96893587Y-90287719D01*
X96777281Y-90171413D01*
X96640521Y-90080033D01*
X96488560Y-90017089D01*
X96371246Y-89993754D01*
X96347911Y-89876440D01*
X96284967Y-89724479D01*
X96193587Y-89587719D01*
X96077281Y-89471413D01*
X95940521Y-89380033D01*
X95788560Y-89317089D01*
X95627240Y-89285000D01*
X95462760Y-89285000D01*
X95301440Y-89317089D01*
X95149479Y-89380033D01*
X95012719Y-89471413D01*
X94896413Y-89587719D01*
X94845000Y-89664664D01*
X94793587Y-89587719D01*
X94677281Y-89471413D01*
X94540521Y-89380033D01*
X94388560Y-89317089D01*
X94227240Y-89285000D01*
X94062760Y-89285000D01*
X93901440Y-89317089D01*
X93749479Y-89380033D01*
X93612719Y-89471413D01*
X93496413Y-89587719D01*
X93405033Y-89724479D01*
X93342089Y-89876440D01*
X93318754Y-89993754D01*
X93201440Y-90017089D01*
X93049479Y-90080033D01*
X92912719Y-90171413D01*
X92796413Y-90287719D01*
X92705033Y-90424479D01*
X92642089Y-90576440D01*
X92610000Y-90737760D01*
X54778092Y-90737760D01*
X54762911Y-90661440D01*
X54699967Y-90509479D01*
X54608587Y-90372719D01*
X54492281Y-90256413D01*
X54355521Y-90165033D01*
X54203560Y-90102089D01*
X54042240Y-90070000D01*
X53877760Y-90070000D01*
X53716440Y-90102089D01*
X53564479Y-90165033D01*
X53427719Y-90256413D01*
X53311413Y-90372719D01*
X53260000Y-90449664D01*
X53208587Y-90372719D01*
X53092281Y-90256413D01*
X52955521Y-90165033D01*
X52803560Y-90102089D01*
X52642240Y-90070000D01*
X52477760Y-90070000D01*
X52316440Y-90102089D01*
X52164479Y-90165033D01*
X52027719Y-90256413D01*
X51911413Y-90372719D01*
X51820033Y-90509479D01*
X51757089Y-90661440D01*
X51733754Y-90778754D01*
X51616440Y-90802089D01*
X51464479Y-90865033D01*
X51327719Y-90956413D01*
X51211413Y-91072719D01*
X51120033Y-91209479D01*
X51057089Y-91361440D01*
X51025000Y-91522760D01*
X49433300Y-91522760D01*
X49433300Y-76392223D01*
X49436976Y-76354900D01*
X49433300Y-76317577D01*
X49433300Y-76317567D01*
X49422303Y-76205914D01*
X49378846Y-76062653D01*
X49308274Y-75930623D01*
X49237099Y-75843897D01*
X49213301Y-75814899D01*
X49184303Y-75791101D01*
X46755000Y-73361799D01*
X46755000Y-73299661D01*
X46715226Y-73099702D01*
X46711689Y-73091161D01*
X91924900Y-73091161D01*
X91924900Y-73295039D01*
X91964674Y-73494998D01*
X92042695Y-73683356D01*
X92155963Y-73852874D01*
X92300126Y-73997037D01*
X92469644Y-74110305D01*
X92658002Y-74188326D01*
X92857961Y-74228100D01*
X92920099Y-74228100D01*
X99358401Y-80666403D01*
X99358400Y-91450789D01*
X99314463Y-91494726D01*
X99201195Y-91664244D01*
X99123174Y-91852602D01*
X99083400Y-92052561D01*
X99083400Y-92256439D01*
X99123174Y-92456398D01*
X99201195Y-92644756D01*
X99314463Y-92814274D01*
X99458626Y-92958437D01*
X99628144Y-93071705D01*
X99816502Y-93149726D01*
X100016461Y-93189500D01*
X100220339Y-93189500D01*
X100420298Y-93149726D01*
X100608656Y-93071705D01*
X100778174Y-92958437D01*
X100922337Y-92814274D01*
X101035605Y-92644756D01*
X101113626Y-92456398D01*
X101153400Y-92256439D01*
X101153400Y-92052561D01*
X101113626Y-91852602D01*
X101035605Y-91664244D01*
X100922337Y-91494726D01*
X100878400Y-91450789D01*
X100878400Y-90737760D01*
X125630000Y-90737760D01*
X125630000Y-90902240D01*
X125662089Y-91063560D01*
X125725033Y-91215521D01*
X125816413Y-91352281D01*
X125932719Y-91468587D01*
X126009664Y-91520000D01*
X125932719Y-91571413D01*
X125816413Y-91687719D01*
X125725033Y-91824479D01*
X125662089Y-91976440D01*
X125630000Y-92137760D01*
X125630000Y-92302240D01*
X125662089Y-92463560D01*
X125725033Y-92615521D01*
X125816413Y-92752281D01*
X125932719Y-92868587D01*
X126069479Y-92959967D01*
X126221440Y-93022911D01*
X126338754Y-93046246D01*
X126362089Y-93163560D01*
X126425033Y-93315521D01*
X126516413Y-93452281D01*
X126632719Y-93568587D01*
X126769479Y-93659967D01*
X126921440Y-93722911D01*
X127082760Y-93755000D01*
X127247240Y-93755000D01*
X127408560Y-93722911D01*
X127560521Y-93659967D01*
X127697281Y-93568587D01*
X127813587Y-93452281D01*
X127865000Y-93375336D01*
X127916413Y-93452281D01*
X128032719Y-93568587D01*
X128169479Y-93659967D01*
X128321440Y-93722911D01*
X128482760Y-93755000D01*
X128647240Y-93755000D01*
X128808560Y-93722911D01*
X128960521Y-93659967D01*
X129097281Y-93568587D01*
X129213587Y-93452281D01*
X129304967Y-93315521D01*
X129367911Y-93163560D01*
X129391246Y-93046246D01*
X129508560Y-93022911D01*
X129660521Y-92959967D01*
X129797281Y-92868587D01*
X129913587Y-92752281D01*
X130004967Y-92615521D01*
X130067911Y-92463560D01*
X130100000Y-92302240D01*
X130100000Y-92137760D01*
X130067911Y-91976440D01*
X130004967Y-91824479D01*
X129913587Y-91687719D01*
X129797281Y-91571413D01*
X129720336Y-91520000D01*
X129797281Y-91468587D01*
X129913587Y-91352281D01*
X130004967Y-91215521D01*
X130067911Y-91063560D01*
X130100000Y-90902240D01*
X130100000Y-90737760D01*
X130067911Y-90576440D01*
X130004967Y-90424479D01*
X129913587Y-90287719D01*
X129797281Y-90171413D01*
X129660521Y-90080033D01*
X129508560Y-90017089D01*
X129391246Y-89993754D01*
X129367911Y-89876440D01*
X129304967Y-89724479D01*
X129213587Y-89587719D01*
X129097281Y-89471413D01*
X128960521Y-89380033D01*
X128808560Y-89317089D01*
X128647240Y-89285000D01*
X128482760Y-89285000D01*
X128321440Y-89317089D01*
X128169479Y-89380033D01*
X128032719Y-89471413D01*
X127916413Y-89587719D01*
X127865000Y-89664664D01*
X127813587Y-89587719D01*
X127697281Y-89471413D01*
X127560521Y-89380033D01*
X127408560Y-89317089D01*
X127247240Y-89285000D01*
X127082760Y-89285000D01*
X126921440Y-89317089D01*
X126769479Y-89380033D01*
X126632719Y-89471413D01*
X126516413Y-89587719D01*
X126425033Y-89724479D01*
X126362089Y-89876440D01*
X126338754Y-89993754D01*
X126221440Y-90017089D01*
X126069479Y-90080033D01*
X125932719Y-90171413D01*
X125816413Y-90287719D01*
X125725033Y-90424479D01*
X125662089Y-90576440D01*
X125630000Y-90737760D01*
X100878400Y-90737760D01*
X100878400Y-80388925D01*
X100882076Y-80351600D01*
X100878400Y-80314275D01*
X100878400Y-80314267D01*
X100867403Y-80202614D01*
X100823946Y-80059353D01*
X100753374Y-79927324D01*
X100658401Y-79811599D01*
X100629403Y-79787801D01*
X93994900Y-73153299D01*
X93994900Y-73091161D01*
X93955126Y-72891202D01*
X93877105Y-72702844D01*
X93763837Y-72533326D01*
X93619674Y-72389163D01*
X93450156Y-72275895D01*
X93261798Y-72197874D01*
X93061839Y-72158100D01*
X92857961Y-72158100D01*
X92658002Y-72197874D01*
X92469644Y-72275895D01*
X92300126Y-72389163D01*
X92155963Y-72533326D01*
X92042695Y-72702844D01*
X91964674Y-72891202D01*
X91924900Y-73091161D01*
X46711689Y-73091161D01*
X46637205Y-72911344D01*
X46523937Y-72741826D01*
X46379774Y-72597663D01*
X46210256Y-72484395D01*
X46021898Y-72406374D01*
X45821939Y-72366600D01*
X45618061Y-72366600D01*
X45418102Y-72406374D01*
X45229744Y-72484395D01*
X45060226Y-72597663D01*
X44916063Y-72741826D01*
X44802795Y-72911344D01*
X44724774Y-73099702D01*
X44685000Y-73299661D01*
X44685000Y-73503539D01*
X44724774Y-73703498D01*
X44802795Y-73891856D01*
X44916063Y-74061374D01*
X45060226Y-74205537D01*
X45229744Y-74318805D01*
X45418102Y-74396826D01*
X45618061Y-74436600D01*
X45680199Y-74436600D01*
X47913301Y-76669703D01*
X47913300Y-99297198D01*
X45493499Y-101717000D01*
X45431361Y-101717000D01*
X45231402Y-101756774D01*
X45043044Y-101834795D01*
X44873526Y-101948063D01*
X44729363Y-102092226D01*
X44616095Y-102261744D01*
X44538074Y-102450102D01*
X44498300Y-102650061D01*
X44498300Y-102853939D01*
X44538074Y-103053898D01*
X44616095Y-103242256D01*
X44729363Y-103411774D01*
X44873526Y-103555937D01*
X45043044Y-103669205D01*
X45231402Y-103747226D01*
X45431361Y-103787000D01*
X45635239Y-103787000D01*
X45835198Y-103747226D01*
X46023556Y-103669205D01*
X46193074Y-103555937D01*
X46337237Y-103411774D01*
X46450505Y-103242256D01*
X46528526Y-103053898D01*
X46568300Y-102853939D01*
X46568300Y-102791801D01*
X49074502Y-100285600D01*
X82812393Y-100285600D01*
X82806440Y-100305224D01*
X82804000Y-100330000D01*
X82804000Y-112370000D01*
X37497279Y-112370000D01*
X37347131Y-112355278D01*
X37233754Y-112321047D01*
X37129183Y-112265446D01*
X37037405Y-112190594D01*
X36961909Y-112099335D01*
X36905581Y-111995160D01*
X36870560Y-111882024D01*
X36855000Y-111733979D01*
X36855000Y-106395852D01*
X68870000Y-106395852D01*
X68870000Y-106964148D01*
X68980869Y-107521523D01*
X69198346Y-108046560D01*
X69514074Y-108519080D01*
X69915920Y-108920926D01*
X70388440Y-109236654D01*
X70913477Y-109454131D01*
X71470852Y-109565000D01*
X72039148Y-109565000D01*
X72596523Y-109454131D01*
X73121560Y-109236654D01*
X73594080Y-108920926D01*
X73995926Y-108519080D01*
X74311654Y-108046560D01*
X74529131Y-107521523D01*
X74640000Y-106964148D01*
X74640000Y-106395852D01*
X74529131Y-105838477D01*
X74311654Y-105313440D01*
X73995926Y-104840920D01*
X73594080Y-104439074D01*
X73121560Y-104123346D01*
X72596523Y-103905869D01*
X72039148Y-103795000D01*
X71470852Y-103795000D01*
X70913477Y-103905869D01*
X70388440Y-104123346D01*
X69915920Y-104439074D01*
X69514074Y-104840920D01*
X69198346Y-105313440D01*
X68980869Y-105838477D01*
X68870000Y-106395852D01*
X36855000Y-106395852D01*
X36855000Y-101473000D01*
X44323000Y-101473000D01*
X44347776Y-101470560D01*
X44371601Y-101463333D01*
X44393557Y-101451597D01*
X44412803Y-101435803D01*
X44428597Y-101416557D01*
X44440333Y-101394601D01*
X44447560Y-101370776D01*
X44450000Y-101346000D01*
X44450000Y-80518000D01*
X44447560Y-80493224D01*
X44440333Y-80469399D01*
X44428597Y-80447443D01*
X44412803Y-80428197D01*
X44393557Y-80412403D01*
X44371601Y-80400667D01*
X44347776Y-80393440D01*
X44323000Y-80391000D01*
X36855000Y-80391000D01*
X36855000Y-70993361D01*
X123104600Y-70993361D01*
X123104600Y-71197239D01*
X123144374Y-71397198D01*
X123222395Y-71585556D01*
X123335663Y-71755074D01*
X123479826Y-71899237D01*
X123649344Y-72012505D01*
X123837702Y-72090526D01*
X124037661Y-72130300D01*
X124099799Y-72130300D01*
X131492601Y-79523103D01*
X131492600Y-90843189D01*
X131448663Y-90887126D01*
X131335395Y-91056644D01*
X131257374Y-91245002D01*
X131217600Y-91444961D01*
X131217600Y-91648839D01*
X131257374Y-91848798D01*
X131335395Y-92037156D01*
X131448663Y-92206674D01*
X131592826Y-92350837D01*
X131762344Y-92464105D01*
X131950702Y-92542126D01*
X132150661Y-92581900D01*
X132354539Y-92581900D01*
X132554498Y-92542126D01*
X132742856Y-92464105D01*
X132912374Y-92350837D01*
X133056537Y-92206674D01*
X133169805Y-92037156D01*
X133247826Y-91848798D01*
X133287600Y-91648839D01*
X133287600Y-91444961D01*
X133247826Y-91245002D01*
X133169805Y-91056644D01*
X133056537Y-90887126D01*
X133012600Y-90843189D01*
X133012600Y-90737760D01*
X159285000Y-90737760D01*
X159285000Y-90902240D01*
X159317089Y-91063560D01*
X159380033Y-91215521D01*
X159471413Y-91352281D01*
X159587719Y-91468587D01*
X159664664Y-91520000D01*
X159587719Y-91571413D01*
X159471413Y-91687719D01*
X159380033Y-91824479D01*
X159317089Y-91976440D01*
X159285000Y-92137760D01*
X159285000Y-92302240D01*
X159317089Y-92463560D01*
X159380033Y-92615521D01*
X159471413Y-92752281D01*
X159587719Y-92868587D01*
X159724479Y-92959967D01*
X159876440Y-93022911D01*
X159993754Y-93046246D01*
X160017089Y-93163560D01*
X160080033Y-93315521D01*
X160171413Y-93452281D01*
X160287719Y-93568587D01*
X160424479Y-93659967D01*
X160576440Y-93722911D01*
X160737760Y-93755000D01*
X160902240Y-93755000D01*
X161063560Y-93722911D01*
X161215521Y-93659967D01*
X161352281Y-93568587D01*
X161468587Y-93452281D01*
X161520000Y-93375336D01*
X161571413Y-93452281D01*
X161687719Y-93568587D01*
X161824479Y-93659967D01*
X161976440Y-93722911D01*
X162137760Y-93755000D01*
X162302240Y-93755000D01*
X162463560Y-93722911D01*
X162615521Y-93659967D01*
X162752281Y-93568587D01*
X162868587Y-93452281D01*
X162959967Y-93315521D01*
X163022911Y-93163560D01*
X163046246Y-93046246D01*
X163163560Y-93022911D01*
X163315521Y-92959967D01*
X163452281Y-92868587D01*
X163568587Y-92752281D01*
X163659967Y-92615521D01*
X163722911Y-92463560D01*
X163755000Y-92302240D01*
X163755000Y-92137760D01*
X163722911Y-91976440D01*
X163659967Y-91824479D01*
X163568587Y-91687719D01*
X163452281Y-91571413D01*
X163375336Y-91520000D01*
X163452281Y-91468587D01*
X163568587Y-91352281D01*
X163659967Y-91215521D01*
X163722911Y-91063560D01*
X163755000Y-90902240D01*
X163755000Y-90737760D01*
X163722911Y-90576440D01*
X163659967Y-90424479D01*
X163568587Y-90287719D01*
X163452281Y-90171413D01*
X163315521Y-90080033D01*
X163163560Y-90017089D01*
X163046246Y-89993754D01*
X163022911Y-89876440D01*
X162959967Y-89724479D01*
X162868587Y-89587719D01*
X162752281Y-89471413D01*
X162615521Y-89380033D01*
X162463560Y-89317089D01*
X162302240Y-89285000D01*
X162137760Y-89285000D01*
X161976440Y-89317089D01*
X161824479Y-89380033D01*
X161687719Y-89471413D01*
X161571413Y-89587719D01*
X161520000Y-89664664D01*
X161468587Y-89587719D01*
X161352281Y-89471413D01*
X161215521Y-89380033D01*
X161063560Y-89317089D01*
X160902240Y-89285000D01*
X160737760Y-89285000D01*
X160576440Y-89317089D01*
X160424479Y-89380033D01*
X160287719Y-89471413D01*
X160171413Y-89587719D01*
X160080033Y-89724479D01*
X160017089Y-89876440D01*
X159993754Y-89993754D01*
X159876440Y-90017089D01*
X159724479Y-90080033D01*
X159587719Y-90171413D01*
X159471413Y-90287719D01*
X159380033Y-90424479D01*
X159317089Y-90576440D01*
X159285000Y-90737760D01*
X133012600Y-90737760D01*
X133012600Y-83843361D01*
X163659700Y-83843361D01*
X163659700Y-84047239D01*
X163699474Y-84247198D01*
X163777495Y-84435556D01*
X163890763Y-84605074D01*
X164034926Y-84749237D01*
X164204444Y-84862505D01*
X164392802Y-84940526D01*
X164592761Y-84980300D01*
X164796639Y-84980300D01*
X164996598Y-84940526D01*
X165184956Y-84862505D01*
X165354474Y-84749237D01*
X165398411Y-84705300D01*
X166806899Y-84705300D01*
X169719300Y-87617702D01*
X169719300Y-87679839D01*
X169759074Y-87879798D01*
X169837095Y-88068156D01*
X169950363Y-88237674D01*
X170094526Y-88381837D01*
X170264044Y-88495105D01*
X170452402Y-88573126D01*
X170652361Y-88612900D01*
X170856239Y-88612900D01*
X171056198Y-88573126D01*
X171244556Y-88495105D01*
X171414074Y-88381837D01*
X171558237Y-88237674D01*
X171671505Y-88068156D01*
X171749526Y-87879798D01*
X171789300Y-87679839D01*
X171789300Y-87475961D01*
X171749526Y-87276002D01*
X171671505Y-87087644D01*
X171558237Y-86918126D01*
X171414074Y-86773963D01*
X171244556Y-86660695D01*
X171056198Y-86582674D01*
X170856239Y-86542900D01*
X170794102Y-86542900D01*
X167685504Y-83434303D01*
X167661701Y-83405299D01*
X167545976Y-83310326D01*
X167413947Y-83239754D01*
X167270686Y-83196297D01*
X167159033Y-83185300D01*
X167159022Y-83185300D01*
X167121700Y-83181624D01*
X167084378Y-83185300D01*
X165398411Y-83185300D01*
X165354474Y-83141363D01*
X165184956Y-83028095D01*
X164996598Y-82950074D01*
X164796639Y-82910300D01*
X164592761Y-82910300D01*
X164392802Y-82950074D01*
X164204444Y-83028095D01*
X164034926Y-83141363D01*
X163890763Y-83285526D01*
X163777495Y-83455044D01*
X163699474Y-83643402D01*
X163659700Y-83843361D01*
X133012600Y-83843361D01*
X133012600Y-79245625D01*
X133016276Y-79208300D01*
X133012600Y-79170975D01*
X133012600Y-79170967D01*
X133001603Y-79059314D01*
X132958146Y-78916053D01*
X132887574Y-78784024D01*
X132792601Y-78668299D01*
X132763603Y-78644501D01*
X126541763Y-72422661D01*
X166181700Y-72422661D01*
X166181700Y-72626539D01*
X166221474Y-72826498D01*
X166299495Y-73014856D01*
X166412763Y-73184374D01*
X166556926Y-73328537D01*
X166726444Y-73441805D01*
X166914802Y-73519826D01*
X167114761Y-73559600D01*
X167318639Y-73559600D01*
X167518598Y-73519826D01*
X167706956Y-73441805D01*
X167876474Y-73328537D01*
X167920411Y-73284600D01*
X171682745Y-73284600D01*
X171699374Y-73368198D01*
X171777395Y-73556556D01*
X171890663Y-73726074D01*
X172034826Y-73870237D01*
X172204344Y-73983505D01*
X172392702Y-74061526D01*
X172592661Y-74101300D01*
X172796539Y-74101300D01*
X172996498Y-74061526D01*
X173184856Y-73983505D01*
X173354374Y-73870237D01*
X173498537Y-73726074D01*
X173611805Y-73556556D01*
X173689826Y-73368198D01*
X173729600Y-73168239D01*
X173729600Y-72964361D01*
X173689826Y-72764402D01*
X173611805Y-72576044D01*
X173498537Y-72406526D01*
X173354374Y-72262363D01*
X173184856Y-72149095D01*
X172996498Y-72071074D01*
X172912900Y-72054445D01*
X172912900Y-58296001D01*
X179221602Y-51987300D01*
X179283739Y-51987300D01*
X179483698Y-51947526D01*
X179672056Y-51869505D01*
X179841574Y-51756237D01*
X179985737Y-51612074D01*
X180099005Y-51442556D01*
X180177026Y-51254198D01*
X180216800Y-51054239D01*
X180216800Y-50850361D01*
X180177026Y-50650402D01*
X180099005Y-50462044D01*
X179985737Y-50292526D01*
X179841574Y-50148363D01*
X179672056Y-50035095D01*
X179483698Y-49957074D01*
X179283739Y-49917300D01*
X179079861Y-49917300D01*
X178879902Y-49957074D01*
X178691544Y-50035095D01*
X178522026Y-50148363D01*
X178377863Y-50292526D01*
X178264595Y-50462044D01*
X178186574Y-50650402D01*
X178146800Y-50850361D01*
X178146800Y-50912498D01*
X171641898Y-57417401D01*
X171612900Y-57441199D01*
X171589102Y-57470197D01*
X171589101Y-57470198D01*
X171517926Y-57556924D01*
X171447354Y-57688954D01*
X171403898Y-57832215D01*
X171389224Y-57981200D01*
X171392901Y-58018532D01*
X171392900Y-71764600D01*
X167920411Y-71764600D01*
X167876474Y-71720663D01*
X167706956Y-71607395D01*
X167518598Y-71529374D01*
X167318639Y-71489600D01*
X167114761Y-71489600D01*
X166914802Y-71529374D01*
X166726444Y-71607395D01*
X166556926Y-71720663D01*
X166412763Y-71864826D01*
X166299495Y-72034344D01*
X166221474Y-72222702D01*
X166181700Y-72422661D01*
X126541763Y-72422661D01*
X125174600Y-71055499D01*
X125174600Y-70993361D01*
X125134826Y-70793402D01*
X125056805Y-70605044D01*
X124943537Y-70435526D01*
X124799374Y-70291363D01*
X124629856Y-70178095D01*
X124441498Y-70100074D01*
X124241539Y-70060300D01*
X124037661Y-70060300D01*
X123837702Y-70100074D01*
X123649344Y-70178095D01*
X123479826Y-70291363D01*
X123335663Y-70435526D01*
X123222395Y-70605044D01*
X123144374Y-70793402D01*
X123104600Y-70993361D01*
X36855000Y-70993361D01*
X36855000Y-68961000D01*
X44323000Y-68961000D01*
X44347776Y-68958560D01*
X44371601Y-68951333D01*
X44393557Y-68939597D01*
X44412803Y-68923803D01*
X44428597Y-68904557D01*
X44440333Y-68882601D01*
X44447560Y-68858776D01*
X44450000Y-68834000D01*
X44450000Y-63850852D01*
X78395000Y-63850852D01*
X78395000Y-64419148D01*
X78505869Y-64976523D01*
X78723346Y-65501560D01*
X79039074Y-65974080D01*
X79440920Y-66375926D01*
X79913440Y-66691654D01*
X80438477Y-66909131D01*
X80995852Y-67020000D01*
X81564148Y-67020000D01*
X82121523Y-66909131D01*
X82646560Y-66691654D01*
X83119080Y-66375926D01*
X83520926Y-65974080D01*
X83836654Y-65501560D01*
X84054131Y-64976523D01*
X84165000Y-64419148D01*
X84165000Y-63850852D01*
X140625000Y-63850852D01*
X140625000Y-64419148D01*
X140735869Y-64976523D01*
X140953346Y-65501560D01*
X141269074Y-65974080D01*
X141670920Y-66375926D01*
X142143440Y-66691654D01*
X142668477Y-66909131D01*
X143225852Y-67020000D01*
X143794148Y-67020000D01*
X144351523Y-66909131D01*
X144876560Y-66691654D01*
X145349080Y-66375926D01*
X145750926Y-65974080D01*
X146066654Y-65501560D01*
X146284131Y-64976523D01*
X146395000Y-64419148D01*
X146395000Y-63850852D01*
X146284131Y-63293477D01*
X146066654Y-62768440D01*
X145750926Y-62295920D01*
X145349080Y-61894074D01*
X144876560Y-61578346D01*
X144351523Y-61360869D01*
X143794148Y-61250000D01*
X143225852Y-61250000D01*
X142668477Y-61360869D01*
X142143440Y-61578346D01*
X141670920Y-61894074D01*
X141269074Y-62295920D01*
X140953346Y-62768440D01*
X140735869Y-63293477D01*
X140625000Y-63850852D01*
X84165000Y-63850852D01*
X84054131Y-63293477D01*
X83836654Y-62768440D01*
X83520926Y-62295920D01*
X83119080Y-61894074D01*
X82646560Y-61578346D01*
X82121523Y-61360869D01*
X81564148Y-61250000D01*
X80995852Y-61250000D01*
X80438477Y-61360869D01*
X79913440Y-61578346D01*
X79440920Y-61894074D01*
X79039074Y-62295920D01*
X78723346Y-62768440D01*
X78505869Y-63293477D01*
X78395000Y-63850852D01*
X44450000Y-63850852D01*
X44450000Y-59137760D01*
X51025000Y-59137760D01*
X51025000Y-59302240D01*
X51057089Y-59463560D01*
X51120033Y-59615521D01*
X51211413Y-59752281D01*
X51327719Y-59868587D01*
X51404664Y-59920000D01*
X51327719Y-59971413D01*
X51211413Y-60087719D01*
X51120033Y-60224479D01*
X51057089Y-60376440D01*
X51025000Y-60537760D01*
X51025000Y-60702240D01*
X51057089Y-60863560D01*
X51120033Y-61015521D01*
X51211413Y-61152281D01*
X51327719Y-61268587D01*
X51464479Y-61359967D01*
X51616440Y-61422911D01*
X51733754Y-61446246D01*
X51757089Y-61563560D01*
X51820033Y-61715521D01*
X51911413Y-61852281D01*
X52027719Y-61968587D01*
X52164479Y-62059967D01*
X52316440Y-62122911D01*
X52477760Y-62155000D01*
X52642240Y-62155000D01*
X52803560Y-62122911D01*
X52955521Y-62059967D01*
X53092281Y-61968587D01*
X53208587Y-61852281D01*
X53260000Y-61775336D01*
X53311413Y-61852281D01*
X53427719Y-61968587D01*
X53564479Y-62059967D01*
X53716440Y-62122911D01*
X53877760Y-62155000D01*
X54042240Y-62155000D01*
X54203560Y-62122911D01*
X54355521Y-62059967D01*
X54492281Y-61968587D01*
X54608587Y-61852281D01*
X54699967Y-61715521D01*
X54762911Y-61563560D01*
X54786246Y-61446246D01*
X54903560Y-61422911D01*
X55055521Y-61359967D01*
X55192281Y-61268587D01*
X55308587Y-61152281D01*
X55399967Y-61015521D01*
X55462911Y-60863560D01*
X55495000Y-60702240D01*
X55495000Y-60537760D01*
X55462911Y-60376440D01*
X55399967Y-60224479D01*
X55308587Y-60087719D01*
X55192281Y-59971413D01*
X55115336Y-59920000D01*
X55192281Y-59868587D01*
X55308587Y-59752281D01*
X55399967Y-59615521D01*
X55462911Y-59463560D01*
X55495000Y-59302240D01*
X55495000Y-59137760D01*
X55462911Y-58976440D01*
X55399967Y-58824479D01*
X55308587Y-58687719D01*
X55192281Y-58571413D01*
X55055521Y-58480033D01*
X54903560Y-58417089D01*
X54786246Y-58393754D01*
X54762911Y-58276440D01*
X54699967Y-58124479D01*
X54608587Y-57987719D01*
X54492281Y-57871413D01*
X54355521Y-57780033D01*
X54203560Y-57717089D01*
X54042240Y-57685000D01*
X53877760Y-57685000D01*
X53716440Y-57717089D01*
X53564479Y-57780033D01*
X53427719Y-57871413D01*
X53311413Y-57987719D01*
X53260000Y-58064664D01*
X53208587Y-57987719D01*
X53092281Y-57871413D01*
X52955521Y-57780033D01*
X52803560Y-57717089D01*
X52642240Y-57685000D01*
X52477760Y-57685000D01*
X52316440Y-57717089D01*
X52164479Y-57780033D01*
X52027719Y-57871413D01*
X51911413Y-57987719D01*
X51820033Y-58124479D01*
X51757089Y-58276440D01*
X51733754Y-58393754D01*
X51616440Y-58417089D01*
X51464479Y-58480033D01*
X51327719Y-58571413D01*
X51211413Y-58687719D01*
X51120033Y-58824479D01*
X51057089Y-58976440D01*
X51025000Y-59137760D01*
X44450000Y-59137760D01*
X44450000Y-48514000D01*
X44447560Y-48489224D01*
X44440333Y-48465399D01*
X44428597Y-48443443D01*
X44412803Y-48424197D01*
X44393557Y-48408403D01*
X44371601Y-48396667D01*
X44347776Y-48389440D01*
X44323000Y-48387000D01*
X36855000Y-48387000D01*
X36855000Y-33475861D01*
X55563000Y-33475861D01*
X55563000Y-33679739D01*
X55602774Y-33879698D01*
X55680795Y-34068056D01*
X55794063Y-34237574D01*
X55938226Y-34381737D01*
X56107744Y-34495005D01*
X56296102Y-34573026D01*
X56496061Y-34612800D01*
X56558199Y-34612800D01*
X57633000Y-35687602D01*
X57656799Y-35716601D01*
X57772524Y-35811574D01*
X57904553Y-35882146D01*
X58047814Y-35925603D01*
X58159467Y-35936600D01*
X58159475Y-35936600D01*
X58196800Y-35940276D01*
X58234125Y-35936600D01*
X74725000Y-35936600D01*
X74725000Y-36133539D01*
X74764774Y-36333498D01*
X74842795Y-36521856D01*
X74956063Y-36691374D01*
X75100226Y-36835537D01*
X75269744Y-36948805D01*
X75458102Y-37026826D01*
X75658061Y-37066600D01*
X75861939Y-37066600D01*
X76061898Y-37026826D01*
X76250256Y-36948805D01*
X76419774Y-36835537D01*
X76463711Y-36791600D01*
X79583999Y-36791600D01*
X86351821Y-43559423D01*
X86211802Y-43587274D01*
X86023444Y-43665295D01*
X85853926Y-43778563D01*
X85709763Y-43922726D01*
X85596495Y-44092244D01*
X85518474Y-44280602D01*
X85478700Y-44480561D01*
X85478700Y-44684439D01*
X85518474Y-44884398D01*
X85596495Y-45072756D01*
X85709763Y-45242274D01*
X85853926Y-45386437D01*
X86023444Y-45499705D01*
X86211802Y-45577726D01*
X86411761Y-45617500D01*
X86473899Y-45617500D01*
X96403405Y-55547008D01*
X96427199Y-55576001D01*
X96456192Y-55599795D01*
X96456196Y-55599799D01*
X96526885Y-55657811D01*
X96542924Y-55670974D01*
X96674953Y-55741546D01*
X96818214Y-55785003D01*
X96929867Y-55796000D01*
X96929876Y-55796000D01*
X96967199Y-55799676D01*
X97004522Y-55796000D01*
X97047189Y-55796000D01*
X97091126Y-55839937D01*
X97260644Y-55953205D01*
X97449002Y-56031226D01*
X97648961Y-56071000D01*
X97852839Y-56071000D01*
X98052798Y-56031226D01*
X98241156Y-55953205D01*
X98410674Y-55839937D01*
X98554837Y-55695774D01*
X98668105Y-55526256D01*
X98746126Y-55337898D01*
X98785900Y-55137939D01*
X98785900Y-54934061D01*
X98746126Y-54734102D01*
X98668105Y-54545744D01*
X98554837Y-54376226D01*
X98410674Y-54232063D01*
X98241156Y-54118795D01*
X98052798Y-54040774D01*
X97852839Y-54001000D01*
X97648961Y-54001000D01*
X97449002Y-54040774D01*
X97260644Y-54118795D01*
X97179210Y-54173207D01*
X93060598Y-50054596D01*
X93121656Y-50029305D01*
X93291174Y-49916037D01*
X93435337Y-49771874D01*
X93548605Y-49602356D01*
X93626626Y-49413998D01*
X93666400Y-49214039D01*
X93666400Y-49010161D01*
X93626626Y-48810202D01*
X93548605Y-48621844D01*
X93435337Y-48452326D01*
X93391400Y-48408389D01*
X93391400Y-45542558D01*
X93405496Y-45548397D01*
X99800900Y-51943802D01*
X99800900Y-52005939D01*
X99840674Y-52205898D01*
X99918695Y-52394256D01*
X100031963Y-52563774D01*
X100176126Y-52707937D01*
X100345644Y-52821205D01*
X100534002Y-52899226D01*
X100733961Y-52939000D01*
X100937839Y-52939000D01*
X101137798Y-52899226D01*
X101326156Y-52821205D01*
X101495674Y-52707937D01*
X101639837Y-52563774D01*
X101753105Y-52394256D01*
X101831126Y-52205898D01*
X101870900Y-52005939D01*
X101870900Y-51802061D01*
X101831126Y-51602102D01*
X101753105Y-51413744D01*
X101639837Y-51244226D01*
X101495674Y-51100063D01*
X101326156Y-50986795D01*
X101137798Y-50908774D01*
X100937839Y-50869000D01*
X100875702Y-50869000D01*
X94792949Y-44786248D01*
X94813200Y-44684439D01*
X94813200Y-44549861D01*
X120157300Y-44549861D01*
X120157300Y-44753739D01*
X120197074Y-44953698D01*
X120275095Y-45142056D01*
X120388363Y-45311574D01*
X120432300Y-45355511D01*
X120432300Y-45453078D01*
X120428624Y-45490400D01*
X120432300Y-45527719D01*
X120432300Y-45527733D01*
X120441142Y-45617500D01*
X120443298Y-45639385D01*
X120486754Y-45782646D01*
X120557326Y-45914676D01*
X120628501Y-46001402D01*
X120652300Y-46030401D01*
X120681298Y-46054199D01*
X129872000Y-55244903D01*
X129872000Y-55307039D01*
X129911774Y-55506998D01*
X129989795Y-55695356D01*
X130103063Y-55864874D01*
X130247226Y-56009037D01*
X130416744Y-56122305D01*
X130605102Y-56200326D01*
X130805061Y-56240100D01*
X131008939Y-56240100D01*
X131208898Y-56200326D01*
X131397256Y-56122305D01*
X131566774Y-56009037D01*
X131710937Y-55864874D01*
X131824205Y-55695356D01*
X131902226Y-55506998D01*
X131942000Y-55307039D01*
X131942000Y-55103161D01*
X131902226Y-54903202D01*
X131824205Y-54714844D01*
X131710937Y-54545326D01*
X131566774Y-54401163D01*
X131397256Y-54287895D01*
X131208898Y-54209874D01*
X131008939Y-54170100D01*
X130946803Y-54170100D01*
X122033102Y-45256401D01*
X122109505Y-45142056D01*
X122187526Y-44953698D01*
X122227300Y-44753739D01*
X122227300Y-44549861D01*
X122187526Y-44349902D01*
X122109505Y-44161544D01*
X121996237Y-43992026D01*
X121852074Y-43847863D01*
X121851922Y-43847761D01*
X123368000Y-43847761D01*
X123368000Y-44051639D01*
X123407774Y-44251598D01*
X123485795Y-44439956D01*
X123599063Y-44609474D01*
X123743226Y-44753637D01*
X123912744Y-44866905D01*
X124101102Y-44944926D01*
X124301061Y-44984700D01*
X124363199Y-44984700D01*
X132694601Y-53316103D01*
X132718399Y-53345101D01*
X132834124Y-53440074D01*
X132966153Y-53510646D01*
X133109414Y-53554103D01*
X133221067Y-53565100D01*
X133221075Y-53565100D01*
X133258400Y-53568776D01*
X133295725Y-53565100D01*
X134303789Y-53565100D01*
X134347726Y-53609037D01*
X134517244Y-53722305D01*
X134705602Y-53800326D01*
X134905561Y-53840100D01*
X135109439Y-53840100D01*
X135309398Y-53800326D01*
X135497756Y-53722305D01*
X135667274Y-53609037D01*
X135811437Y-53464874D01*
X135924705Y-53295356D01*
X136002726Y-53106998D01*
X136042500Y-52907039D01*
X136042500Y-52703161D01*
X136002726Y-52503202D01*
X135924705Y-52314844D01*
X135811437Y-52145326D01*
X135667274Y-52001163D01*
X135497756Y-51887895D01*
X135309398Y-51809874D01*
X135109439Y-51770100D01*
X134905561Y-51770100D01*
X134705602Y-51809874D01*
X134517244Y-51887895D01*
X134347726Y-52001163D01*
X134303789Y-52045100D01*
X133573202Y-52045100D01*
X125438000Y-43909899D01*
X125438000Y-43847761D01*
X125398226Y-43647802D01*
X125320205Y-43459444D01*
X125206937Y-43289926D01*
X125062774Y-43145763D01*
X124893256Y-43032495D01*
X124704898Y-42954474D01*
X124504939Y-42914700D01*
X124301061Y-42914700D01*
X124101102Y-42954474D01*
X123912744Y-43032495D01*
X123743226Y-43145763D01*
X123599063Y-43289926D01*
X123485795Y-43459444D01*
X123407774Y-43647802D01*
X123368000Y-43847761D01*
X121851922Y-43847761D01*
X121682556Y-43734595D01*
X121494198Y-43656574D01*
X121294239Y-43616800D01*
X121090361Y-43616800D01*
X120890402Y-43656574D01*
X120702044Y-43734595D01*
X120532526Y-43847863D01*
X120388363Y-43992026D01*
X120275095Y-44161544D01*
X120197074Y-44349902D01*
X120157300Y-44549861D01*
X94813200Y-44549861D01*
X94813200Y-44480561D01*
X94773426Y-44280602D01*
X94695405Y-44092244D01*
X94582137Y-43922726D01*
X94437974Y-43778563D01*
X94268456Y-43665295D01*
X94080098Y-43587274D01*
X93880139Y-43547500D01*
X93676261Y-43547500D01*
X93476302Y-43587274D01*
X93391400Y-43622442D01*
X93391400Y-41282761D01*
X151894500Y-41282761D01*
X151894500Y-41486639D01*
X151934274Y-41686598D01*
X152012295Y-41874956D01*
X152125563Y-42044474D01*
X152169500Y-42088411D01*
X152169501Y-50741268D01*
X152165824Y-50778600D01*
X152180498Y-50927585D01*
X152223954Y-51070846D01*
X152294526Y-51202876D01*
X152365701Y-51289602D01*
X152389500Y-51318601D01*
X152418498Y-51342399D01*
X154386600Y-53310502D01*
X154386600Y-53372639D01*
X154426374Y-53572598D01*
X154504395Y-53760956D01*
X154617663Y-53930474D01*
X154761826Y-54074637D01*
X154931344Y-54187905D01*
X155119702Y-54265926D01*
X155319661Y-54305700D01*
X155523539Y-54305700D01*
X155723498Y-54265926D01*
X155911856Y-54187905D01*
X156081374Y-54074637D01*
X156225537Y-53930474D01*
X156338805Y-53760956D01*
X156416826Y-53572598D01*
X156456600Y-53372639D01*
X156456600Y-53168761D01*
X156416826Y-52968802D01*
X156338805Y-52780444D01*
X156225537Y-52610926D01*
X156081374Y-52466763D01*
X155911856Y-52353495D01*
X155723498Y-52275474D01*
X155523539Y-52235700D01*
X155461402Y-52235700D01*
X153689500Y-50463799D01*
X153689500Y-44788565D01*
X153806744Y-44866905D01*
X153995102Y-44944926D01*
X154195061Y-44984700D01*
X154257199Y-44984700D01*
X164890605Y-55618108D01*
X164914399Y-55647101D01*
X164943392Y-55670895D01*
X164943396Y-55670899D01*
X164973707Y-55695774D01*
X165030124Y-55742074D01*
X165162153Y-55812646D01*
X165305414Y-55856103D01*
X165417067Y-55867100D01*
X165417076Y-55867100D01*
X165454399Y-55870776D01*
X165491722Y-55867100D01*
X167413189Y-55867100D01*
X167457126Y-55911037D01*
X167626644Y-56024305D01*
X167815002Y-56102326D01*
X168014961Y-56142100D01*
X168218839Y-56142100D01*
X168418798Y-56102326D01*
X168607156Y-56024305D01*
X168776674Y-55911037D01*
X168920837Y-55766874D01*
X169034105Y-55597356D01*
X169112126Y-55408998D01*
X169151900Y-55209039D01*
X169151900Y-55005161D01*
X169112126Y-54805202D01*
X169034105Y-54616844D01*
X168920837Y-54447326D01*
X168776674Y-54303163D01*
X168607156Y-54189895D01*
X168418798Y-54111874D01*
X168218839Y-54072100D01*
X168014961Y-54072100D01*
X167815002Y-54111874D01*
X167626644Y-54189895D01*
X167457126Y-54303163D01*
X167413189Y-54347100D01*
X165769203Y-54347100D01*
X155332000Y-43909899D01*
X155332000Y-43847761D01*
X155292226Y-43647802D01*
X155214205Y-43459444D01*
X155100937Y-43289926D01*
X154956774Y-43145763D01*
X154787256Y-43032495D01*
X154598898Y-42954474D01*
X154398939Y-42914700D01*
X154195061Y-42914700D01*
X153995102Y-42954474D01*
X153806744Y-43032495D01*
X153689500Y-43110835D01*
X153689500Y-42088411D01*
X153733437Y-42044474D01*
X153846705Y-41874956D01*
X153924726Y-41686598D01*
X153964500Y-41486639D01*
X153964500Y-41282761D01*
X153924726Y-41082802D01*
X153846705Y-40894444D01*
X153733437Y-40724926D01*
X153589274Y-40580763D01*
X153419756Y-40467495D01*
X153231398Y-40389474D01*
X153031439Y-40349700D01*
X152827561Y-40349700D01*
X152627602Y-40389474D01*
X152439244Y-40467495D01*
X152269726Y-40580763D01*
X152125563Y-40724926D01*
X152012295Y-40894444D01*
X151934274Y-41082802D01*
X151894500Y-41282761D01*
X93391400Y-41282761D01*
X93391400Y-40775433D01*
X93395077Y-40738100D01*
X93380403Y-40589114D01*
X93336946Y-40445853D01*
X93266374Y-40313824D01*
X93195199Y-40227097D01*
X93171401Y-40198099D01*
X93142404Y-40174302D01*
X91303026Y-38334925D01*
X91388560Y-38317911D01*
X91540521Y-38254967D01*
X91677281Y-38163587D01*
X91793587Y-38047281D01*
X91845000Y-37970336D01*
X91896413Y-38047281D01*
X92012719Y-38163587D01*
X92149479Y-38254967D01*
X92301440Y-38317911D01*
X92462760Y-38350000D01*
X92627240Y-38350000D01*
X92788560Y-38317911D01*
X92940521Y-38254967D01*
X93077281Y-38163587D01*
X93193587Y-38047281D01*
X93284967Y-37910521D01*
X93347911Y-37758560D01*
X93371246Y-37641246D01*
X93488560Y-37617911D01*
X93640521Y-37554967D01*
X93777281Y-37463587D01*
X93893587Y-37347281D01*
X93984967Y-37210521D01*
X94047911Y-37058560D01*
X94080000Y-36897240D01*
X94080000Y-36732760D01*
X94047911Y-36571440D01*
X93984967Y-36419479D01*
X93893587Y-36282719D01*
X93777281Y-36166413D01*
X93700336Y-36115000D01*
X93777281Y-36063587D01*
X93893587Y-35947281D01*
X93947327Y-35866853D01*
X94029102Y-35900726D01*
X94229061Y-35940500D01*
X94432939Y-35940500D01*
X94632898Y-35900726D01*
X94821256Y-35822705D01*
X94990774Y-35709437D01*
X95134937Y-35565274D01*
X95248205Y-35395756D01*
X95326226Y-35207398D01*
X95366000Y-35007439D01*
X95366000Y-34803561D01*
X95326226Y-34603602D01*
X95248205Y-34415244D01*
X95134937Y-34245726D01*
X94990774Y-34101563D01*
X94821256Y-33988295D01*
X94632898Y-33910274D01*
X94432939Y-33870500D01*
X94370803Y-33870500D01*
X93715317Y-33215014D01*
X93878056Y-33147605D01*
X94047574Y-33034337D01*
X94091511Y-32990400D01*
X99640099Y-32990400D01*
X103305200Y-36655502D01*
X103305200Y-36717639D01*
X103344974Y-36917598D01*
X103422995Y-37105956D01*
X103536263Y-37275474D01*
X103680426Y-37419637D01*
X103849944Y-37532905D01*
X104038302Y-37610926D01*
X104238261Y-37650700D01*
X104442139Y-37650700D01*
X104642098Y-37610926D01*
X104830456Y-37532905D01*
X104999974Y-37419637D01*
X105144137Y-37275474D01*
X105257405Y-37105956D01*
X105335426Y-36917598D01*
X105375200Y-36717639D01*
X105375200Y-36513761D01*
X105335426Y-36313802D01*
X105257405Y-36125444D01*
X105144137Y-35955926D01*
X104999974Y-35811763D01*
X104830456Y-35698495D01*
X104642098Y-35620474D01*
X104442139Y-35580700D01*
X104380002Y-35580700D01*
X104132062Y-35332760D01*
X122630000Y-35332760D01*
X122630000Y-35497240D01*
X122662089Y-35658560D01*
X122725033Y-35810521D01*
X122816413Y-35947281D01*
X122932719Y-36063587D01*
X123009664Y-36115000D01*
X122932719Y-36166413D01*
X122816413Y-36282719D01*
X122725033Y-36419479D01*
X122662089Y-36571440D01*
X122630000Y-36732760D01*
X122630000Y-36897240D01*
X122662089Y-37058560D01*
X122725033Y-37210521D01*
X122816413Y-37347281D01*
X122932719Y-37463587D01*
X123069479Y-37554967D01*
X123221440Y-37617911D01*
X123338754Y-37641246D01*
X123362089Y-37758560D01*
X123425033Y-37910521D01*
X123516413Y-38047281D01*
X123632719Y-38163587D01*
X123769479Y-38254967D01*
X123921440Y-38317911D01*
X124082760Y-38350000D01*
X124247240Y-38350000D01*
X124408560Y-38317911D01*
X124560521Y-38254967D01*
X124697281Y-38163587D01*
X124813587Y-38047281D01*
X124865000Y-37970336D01*
X124916413Y-38047281D01*
X125032719Y-38163587D01*
X125169479Y-38254967D01*
X125321440Y-38317911D01*
X125482760Y-38350000D01*
X125647240Y-38350000D01*
X125808560Y-38317911D01*
X125960521Y-38254967D01*
X126097281Y-38163587D01*
X126213587Y-38047281D01*
X126304967Y-37910521D01*
X126367911Y-37758560D01*
X126391246Y-37641246D01*
X126508560Y-37617911D01*
X126660521Y-37554967D01*
X126797281Y-37463587D01*
X126913587Y-37347281D01*
X127004967Y-37210521D01*
X127067911Y-37058560D01*
X127100000Y-36897240D01*
X127100000Y-36732760D01*
X127067911Y-36571440D01*
X127004967Y-36419479D01*
X126913587Y-36282719D01*
X126797281Y-36166413D01*
X126720336Y-36115000D01*
X126797281Y-36063587D01*
X126913587Y-35947281D01*
X127004967Y-35810521D01*
X127067911Y-35658560D01*
X127100000Y-35497240D01*
X127100000Y-35332760D01*
X127067911Y-35171440D01*
X127004967Y-35019479D01*
X126913587Y-34882719D01*
X126797281Y-34766413D01*
X126660521Y-34675033D01*
X126508560Y-34612089D01*
X126391246Y-34588754D01*
X126367911Y-34471440D01*
X126304967Y-34319479D01*
X126213587Y-34182719D01*
X126097281Y-34066413D01*
X125960521Y-33975033D01*
X125808560Y-33912089D01*
X125647240Y-33880000D01*
X125482760Y-33880000D01*
X125321440Y-33912089D01*
X125169479Y-33975033D01*
X125032719Y-34066413D01*
X124916413Y-34182719D01*
X124865000Y-34259664D01*
X124813587Y-34182719D01*
X124697281Y-34066413D01*
X124560521Y-33975033D01*
X124408560Y-33912089D01*
X124247240Y-33880000D01*
X124082760Y-33880000D01*
X123921440Y-33912089D01*
X123769479Y-33975033D01*
X123632719Y-34066413D01*
X123516413Y-34182719D01*
X123425033Y-34319479D01*
X123362089Y-34471440D01*
X123338754Y-34588754D01*
X123221440Y-34612089D01*
X123069479Y-34675033D01*
X122932719Y-34766413D01*
X122816413Y-34882719D01*
X122725033Y-35019479D01*
X122662089Y-35171440D01*
X122630000Y-35332760D01*
X104132062Y-35332760D01*
X101381263Y-32581961D01*
X131217600Y-32581961D01*
X131217600Y-32785839D01*
X131257374Y-32985798D01*
X131335395Y-33174156D01*
X131448663Y-33343674D01*
X131592826Y-33487837D01*
X131762344Y-33601105D01*
X131950702Y-33679126D01*
X132150661Y-33718900D01*
X132354539Y-33718900D01*
X132554498Y-33679126D01*
X132742856Y-33601105D01*
X132912374Y-33487837D01*
X132950355Y-33449856D01*
X136192600Y-36692102D01*
X136192600Y-36754239D01*
X136232374Y-36954198D01*
X136310395Y-37142556D01*
X136423663Y-37312074D01*
X136567826Y-37456237D01*
X136737344Y-37569505D01*
X136925702Y-37647526D01*
X137125661Y-37687300D01*
X137329539Y-37687300D01*
X137529498Y-37647526D01*
X137717856Y-37569505D01*
X137887374Y-37456237D01*
X138031537Y-37312074D01*
X138144805Y-37142556D01*
X138222826Y-36954198D01*
X138262600Y-36754239D01*
X138262600Y-36550361D01*
X138222826Y-36350402D01*
X138144805Y-36162044D01*
X138031537Y-35992526D01*
X137887374Y-35848363D01*
X137717856Y-35735095D01*
X137529498Y-35657074D01*
X137329539Y-35617300D01*
X137267402Y-35617300D01*
X136982862Y-35332760D01*
X156285000Y-35332760D01*
X156285000Y-35497240D01*
X156317089Y-35658560D01*
X156380033Y-35810521D01*
X156471413Y-35947281D01*
X156587719Y-36063587D01*
X156664664Y-36115000D01*
X156587719Y-36166413D01*
X156471413Y-36282719D01*
X156380033Y-36419479D01*
X156317089Y-36571440D01*
X156285000Y-36732760D01*
X156285000Y-36897240D01*
X156317089Y-37058560D01*
X156380033Y-37210521D01*
X156471413Y-37347281D01*
X156587719Y-37463587D01*
X156724479Y-37554967D01*
X156876440Y-37617911D01*
X156993754Y-37641246D01*
X157017089Y-37758560D01*
X157080033Y-37910521D01*
X157171413Y-38047281D01*
X157287719Y-38163587D01*
X157424479Y-38254967D01*
X157576440Y-38317911D01*
X157737760Y-38350000D01*
X157902240Y-38350000D01*
X158063560Y-38317911D01*
X158215521Y-38254967D01*
X158352281Y-38163587D01*
X158468587Y-38047281D01*
X158520000Y-37970336D01*
X158571413Y-38047281D01*
X158687719Y-38163587D01*
X158824479Y-38254967D01*
X158976440Y-38317911D01*
X159137760Y-38350000D01*
X159302240Y-38350000D01*
X159463560Y-38317911D01*
X159615521Y-38254967D01*
X159752281Y-38163587D01*
X159868587Y-38047281D01*
X159959967Y-37910521D01*
X160022911Y-37758560D01*
X160046246Y-37641246D01*
X160163560Y-37617911D01*
X160315521Y-37554967D01*
X160452281Y-37463587D01*
X160568587Y-37347281D01*
X160659967Y-37210521D01*
X160722911Y-37058560D01*
X160755000Y-36897240D01*
X160755000Y-36732760D01*
X160722911Y-36571440D01*
X160659967Y-36419479D01*
X160568587Y-36282719D01*
X160452281Y-36166413D01*
X160375336Y-36115000D01*
X160452281Y-36063587D01*
X160568587Y-35947281D01*
X160659967Y-35810521D01*
X160722911Y-35658560D01*
X160755000Y-35497240D01*
X160755000Y-35332760D01*
X160722911Y-35171440D01*
X160659967Y-35019479D01*
X160568587Y-34882719D01*
X160452281Y-34766413D01*
X160315521Y-34675033D01*
X160163560Y-34612089D01*
X160046246Y-34588754D01*
X160022911Y-34471440D01*
X159959967Y-34319479D01*
X159868587Y-34182719D01*
X159752281Y-34066413D01*
X159615521Y-33975033D01*
X159463560Y-33912089D01*
X159302240Y-33880000D01*
X159137760Y-33880000D01*
X158976440Y-33912089D01*
X158824479Y-33975033D01*
X158687719Y-34066413D01*
X158571413Y-34182719D01*
X158520000Y-34259664D01*
X158468587Y-34182719D01*
X158352281Y-34066413D01*
X158215521Y-33975033D01*
X158063560Y-33912089D01*
X157902240Y-33880000D01*
X157737760Y-33880000D01*
X157576440Y-33912089D01*
X157424479Y-33975033D01*
X157287719Y-34066413D01*
X157171413Y-34182719D01*
X157080033Y-34319479D01*
X157017089Y-34471440D01*
X156993754Y-34588754D01*
X156876440Y-34612089D01*
X156724479Y-34675033D01*
X156587719Y-34766413D01*
X156471413Y-34882719D01*
X156380033Y-35019479D01*
X156317089Y-35171440D01*
X156285000Y-35332760D01*
X136982862Y-35332760D01*
X134041563Y-32391461D01*
X158691200Y-32391461D01*
X158691200Y-32595339D01*
X158730974Y-32795298D01*
X158808995Y-32983656D01*
X158922263Y-33153174D01*
X159066426Y-33297337D01*
X159235944Y-33410605D01*
X159424302Y-33488626D01*
X159624261Y-33528400D01*
X159828139Y-33528400D01*
X160028098Y-33488626D01*
X160216456Y-33410605D01*
X160385974Y-33297337D01*
X160429911Y-33253400D01*
X166531199Y-33253400D01*
X169980200Y-36702402D01*
X169980200Y-36764539D01*
X170019974Y-36964498D01*
X170097995Y-37152856D01*
X170211263Y-37322374D01*
X170355426Y-37466537D01*
X170524944Y-37579805D01*
X170713302Y-37657826D01*
X170913261Y-37697600D01*
X171117139Y-37697600D01*
X171317098Y-37657826D01*
X171505456Y-37579805D01*
X171674974Y-37466537D01*
X171819137Y-37322374D01*
X171932405Y-37152856D01*
X172010426Y-36964498D01*
X172050200Y-36764539D01*
X172050200Y-36560661D01*
X172010426Y-36360702D01*
X171932405Y-36172344D01*
X171819137Y-36002826D01*
X171674974Y-35858663D01*
X171505456Y-35745395D01*
X171317098Y-35667374D01*
X171117139Y-35627600D01*
X171055002Y-35627600D01*
X167409804Y-31982403D01*
X167386001Y-31953399D01*
X167270276Y-31858426D01*
X167138247Y-31787854D01*
X166994986Y-31744397D01*
X166883333Y-31733400D01*
X166883322Y-31733400D01*
X166846000Y-31729724D01*
X166808678Y-31733400D01*
X160429911Y-31733400D01*
X160385974Y-31689463D01*
X160216456Y-31576195D01*
X160028098Y-31498174D01*
X159828139Y-31458400D01*
X159624261Y-31458400D01*
X159424302Y-31498174D01*
X159235944Y-31576195D01*
X159066426Y-31689463D01*
X158922263Y-31833626D01*
X158808995Y-32003144D01*
X158730974Y-32191502D01*
X158691200Y-32391461D01*
X134041563Y-32391461D01*
X133823004Y-32172903D01*
X133799201Y-32143899D01*
X133683476Y-32048926D01*
X133551447Y-31978354D01*
X133408186Y-31934897D01*
X133296533Y-31923900D01*
X133296522Y-31923900D01*
X133259200Y-31920224D01*
X133221878Y-31923900D01*
X132956311Y-31923900D01*
X132912374Y-31879963D01*
X132742856Y-31766695D01*
X132554498Y-31688674D01*
X132354539Y-31648900D01*
X132150661Y-31648900D01*
X131950702Y-31688674D01*
X131762344Y-31766695D01*
X131592826Y-31879963D01*
X131448663Y-32024126D01*
X131335395Y-32193644D01*
X131257374Y-32382002D01*
X131217600Y-32581961D01*
X101381263Y-32581961D01*
X100518704Y-31719403D01*
X100494901Y-31690399D01*
X100379176Y-31595426D01*
X100247147Y-31524854D01*
X100103886Y-31481397D01*
X99992233Y-31470400D01*
X99992222Y-31470400D01*
X99954900Y-31466724D01*
X99917578Y-31470400D01*
X94091511Y-31470400D01*
X94047574Y-31426463D01*
X93878056Y-31313195D01*
X93689698Y-31235174D01*
X93489739Y-31195400D01*
X93285861Y-31195400D01*
X93085902Y-31235174D01*
X92897544Y-31313195D01*
X92728026Y-31426463D01*
X92583863Y-31570626D01*
X92470595Y-31740144D01*
X92403186Y-31902884D01*
X90580304Y-30080003D01*
X90556501Y-30050999D01*
X90440776Y-29956026D01*
X90308747Y-29885454D01*
X90165486Y-29841997D01*
X90053833Y-29831000D01*
X90053822Y-29831000D01*
X90016500Y-29827324D01*
X89979178Y-29831000D01*
X60001822Y-29831000D01*
X59964499Y-29827324D01*
X59927176Y-29831000D01*
X59927167Y-29831000D01*
X59815514Y-29841997D01*
X59672253Y-29885454D01*
X59540224Y-29956026D01*
X59424499Y-30050999D01*
X59400701Y-30079997D01*
X57681399Y-31799300D01*
X57619261Y-31799300D01*
X57419302Y-31839074D01*
X57230944Y-31917095D01*
X57061426Y-32030363D01*
X56917263Y-32174526D01*
X56803995Y-32344044D01*
X56725974Y-32532402D01*
X56722994Y-32547386D01*
X56699939Y-32542800D01*
X56496061Y-32542800D01*
X56296102Y-32582574D01*
X56107744Y-32660595D01*
X55938226Y-32773863D01*
X55794063Y-32918026D01*
X55680795Y-33087544D01*
X55602774Y-33275902D01*
X55563000Y-33475861D01*
X36855000Y-33475861D01*
X36855000Y-20352279D01*
X36869722Y-20202131D01*
X36903953Y-20088754D01*
X36959555Y-19984181D01*
X37034407Y-19892404D01*
X37125664Y-19816909D01*
X37229844Y-19760581D01*
X37342976Y-19725560D01*
X37491022Y-19710000D01*
X82804000Y-19710000D01*
X82804000Y-27432000D01*
%TA.AperFunction,Conductor*%
D18*
G36*
X82804000Y-27432000D02*
G01*
X82806440Y-27456776D01*
X82813667Y-27480601D01*
X82825403Y-27502557D01*
X82841197Y-27521803D01*
X82860443Y-27537597D01*
X82882399Y-27549333D01*
X82906224Y-27556560D01*
X82931000Y-27559000D01*
X103124000Y-27559000D01*
X103148776Y-27556560D01*
X103172601Y-27549333D01*
X103194557Y-27537597D01*
X103213803Y-27521803D01*
X103229597Y-27502557D01*
X103241333Y-27480601D01*
X103248560Y-27456776D01*
X103251000Y-27432000D01*
X103251000Y-19710000D01*
X116205000Y-19710000D01*
X116205000Y-27124400D01*
X112188502Y-27124400D01*
X110424300Y-25360199D01*
X110424300Y-25298061D01*
X110384526Y-25098102D01*
X110306505Y-24909744D01*
X110193237Y-24740226D01*
X110049074Y-24596063D01*
X109879556Y-24482795D01*
X109691198Y-24404774D01*
X109491239Y-24365000D01*
X109287361Y-24365000D01*
X109087402Y-24404774D01*
X108899044Y-24482795D01*
X108729526Y-24596063D01*
X108585363Y-24740226D01*
X108472095Y-24909744D01*
X108394074Y-25098102D01*
X108354300Y-25298061D01*
X108354300Y-25501939D01*
X108394074Y-25701898D01*
X108472095Y-25890256D01*
X108585363Y-26059774D01*
X108729526Y-26203937D01*
X108899044Y-26317205D01*
X109087402Y-26395226D01*
X109287361Y-26435000D01*
X109349499Y-26435000D01*
X111309901Y-28395403D01*
X111333699Y-28424401D01*
X111449424Y-28519374D01*
X111581453Y-28589946D01*
X111724714Y-28633403D01*
X111836367Y-28644400D01*
X111836376Y-28644400D01*
X111873699Y-28648076D01*
X111911022Y-28644400D01*
X139066767Y-28644400D01*
X139124544Y-28683005D01*
X139312902Y-28761026D01*
X139512861Y-28800800D01*
X139716739Y-28800800D01*
X139916698Y-28761026D01*
X140105056Y-28683005D01*
X140274574Y-28569737D01*
X140318511Y-28525800D01*
X178651578Y-28525800D01*
X178688900Y-28529476D01*
X178726222Y-28525800D01*
X178726233Y-28525800D01*
X178837886Y-28514803D01*
X178981147Y-28471346D01*
X179113176Y-28400774D01*
X179228901Y-28305801D01*
X179252704Y-28276797D01*
X182011928Y-25517574D01*
X182011928Y-25630000D01*
X182024188Y-25754482D01*
X182060498Y-25874180D01*
X182119463Y-25984494D01*
X182198815Y-26081185D01*
X182295506Y-26160537D01*
X182405820Y-26219502D01*
X182525518Y-26255812D01*
X182650000Y-26268072D01*
X185650000Y-26268072D01*
X185774482Y-26255812D01*
X185894180Y-26219502D01*
X186004494Y-26160537D01*
X186101185Y-26081185D01*
X186130934Y-26044935D01*
X189189100Y-29103102D01*
X189212899Y-29132101D01*
X189241897Y-29155899D01*
X189328623Y-29227074D01*
X189408559Y-29269801D01*
X189460653Y-29297646D01*
X189603914Y-29341103D01*
X189715567Y-29352100D01*
X189715576Y-29352100D01*
X189752899Y-29355776D01*
X189790222Y-29352100D01*
X195658989Y-29352100D01*
X195702926Y-29396037D01*
X195740401Y-29421077D01*
X195740400Y-54228500D01*
X195673161Y-54228500D01*
X195473202Y-54268274D01*
X195284844Y-54346295D01*
X195115326Y-54459563D01*
X194971163Y-54603726D01*
X194857895Y-54773244D01*
X194779874Y-54961602D01*
X194740100Y-55161561D01*
X194740100Y-55365439D01*
X194779874Y-55565398D01*
X194857895Y-55753756D01*
X194971163Y-55923274D01*
X195015100Y-55967211D01*
X195015101Y-58320297D01*
X194923198Y-58412200D01*
X194861061Y-58412200D01*
X194661102Y-58451974D01*
X194472744Y-58529995D01*
X194303226Y-58643263D01*
X194159063Y-58787426D01*
X194045795Y-58956944D01*
X193967774Y-59145302D01*
X193928000Y-59345261D01*
X193928000Y-59549139D01*
X193967774Y-59749098D01*
X194045795Y-59937456D01*
X194159063Y-60106974D01*
X194303226Y-60251137D01*
X194472744Y-60364405D01*
X194661102Y-60442426D01*
X194861061Y-60482200D01*
X195064939Y-60482200D01*
X195264898Y-60442426D01*
X195453256Y-60364405D01*
X195622774Y-60251137D01*
X195766937Y-60106974D01*
X195880205Y-59937456D01*
X195958226Y-59749098D01*
X195998000Y-59549139D01*
X195998000Y-59487002D01*
X196286102Y-59198899D01*
X196315101Y-59175101D01*
X196410074Y-59059376D01*
X196480646Y-58927347D01*
X196524103Y-58784086D01*
X196535100Y-58672433D01*
X196535100Y-58672423D01*
X196538776Y-58635100D01*
X196535100Y-58597777D01*
X196535100Y-58561801D01*
X199180998Y-61207700D01*
X171225998Y-89162701D01*
X171197000Y-89186499D01*
X171173202Y-89215497D01*
X171173201Y-89215498D01*
X171102026Y-89302224D01*
X171031454Y-89434254D01*
X170987998Y-89577515D01*
X170973324Y-89726500D01*
X170977001Y-89763832D01*
X170977000Y-96857000D01*
X140449122Y-96857000D01*
X140411799Y-96853324D01*
X140374476Y-96857000D01*
X140374467Y-96857000D01*
X140262814Y-96867997D01*
X140119553Y-96911454D01*
X139987523Y-96982026D01*
X139903883Y-97050668D01*
X139871799Y-97076999D01*
X139848001Y-97105997D01*
X138248283Y-98705716D01*
X138121302Y-98730974D01*
X137932944Y-98808995D01*
X137878161Y-98845600D01*
X105646011Y-98845600D01*
X105522074Y-98721663D01*
X105352556Y-98608395D01*
X105164198Y-98530374D01*
X104964239Y-98490600D01*
X104760361Y-98490600D01*
X104560402Y-98530374D01*
X104372044Y-98608395D01*
X104202526Y-98721663D01*
X104158589Y-98765600D01*
X49433300Y-98765600D01*
X49433300Y-91522760D01*
X51025000Y-91522760D01*
X51025000Y-91687240D01*
X51057089Y-91848560D01*
X51120033Y-92000521D01*
X51211413Y-92137281D01*
X51327719Y-92253587D01*
X51404664Y-92305000D01*
X51327719Y-92356413D01*
X51211413Y-92472719D01*
X51120033Y-92609479D01*
X51057089Y-92761440D01*
X51025000Y-92922760D01*
X51025000Y-93087240D01*
X51057089Y-93248560D01*
X51120033Y-93400521D01*
X51211413Y-93537281D01*
X51327719Y-93653587D01*
X51464479Y-93744967D01*
X51616440Y-93807911D01*
X51733754Y-93831246D01*
X51757089Y-93948560D01*
X51820033Y-94100521D01*
X51911413Y-94237281D01*
X52027719Y-94353587D01*
X52164479Y-94444967D01*
X52316440Y-94507911D01*
X52477760Y-94540000D01*
X52642240Y-94540000D01*
X52803560Y-94507911D01*
X52955521Y-94444967D01*
X53092281Y-94353587D01*
X53208587Y-94237281D01*
X53260000Y-94160336D01*
X53311413Y-94237281D01*
X53427719Y-94353587D01*
X53564479Y-94444967D01*
X53716440Y-94507911D01*
X53877760Y-94540000D01*
X54042240Y-94540000D01*
X54203560Y-94507911D01*
X54355521Y-94444967D01*
X54492281Y-94353587D01*
X54608587Y-94237281D01*
X54699967Y-94100521D01*
X54762911Y-93948560D01*
X54786246Y-93831246D01*
X54903560Y-93807911D01*
X55055521Y-93744967D01*
X55192281Y-93653587D01*
X55308587Y-93537281D01*
X55399967Y-93400521D01*
X55462911Y-93248560D01*
X55495000Y-93087240D01*
X55495000Y-92922760D01*
X55462911Y-92761440D01*
X55399967Y-92609479D01*
X55308587Y-92472719D01*
X55192281Y-92356413D01*
X55115336Y-92305000D01*
X55192281Y-92253587D01*
X55308587Y-92137281D01*
X55399967Y-92000521D01*
X55462911Y-91848560D01*
X55495000Y-91687240D01*
X55495000Y-91522760D01*
X55462911Y-91361440D01*
X55399967Y-91209479D01*
X55308587Y-91072719D01*
X55192281Y-90956413D01*
X55055521Y-90865033D01*
X54903560Y-90802089D01*
X54786246Y-90778754D01*
X54778092Y-90737760D01*
X92610000Y-90737760D01*
X92610000Y-90902240D01*
X92642089Y-91063560D01*
X92705033Y-91215521D01*
X92796413Y-91352281D01*
X92912719Y-91468587D01*
X92989664Y-91520000D01*
X92912719Y-91571413D01*
X92796413Y-91687719D01*
X92705033Y-91824479D01*
X92642089Y-91976440D01*
X92610000Y-92137760D01*
X92610000Y-92302240D01*
X92642089Y-92463560D01*
X92705033Y-92615521D01*
X92796413Y-92752281D01*
X92912719Y-92868587D01*
X93049479Y-92959967D01*
X93201440Y-93022911D01*
X93318754Y-93046246D01*
X93342089Y-93163560D01*
X93405033Y-93315521D01*
X93496413Y-93452281D01*
X93612719Y-93568587D01*
X93749479Y-93659967D01*
X93901440Y-93722911D01*
X94062760Y-93755000D01*
X94227240Y-93755000D01*
X94388560Y-93722911D01*
X94540521Y-93659967D01*
X94677281Y-93568587D01*
X94793587Y-93452281D01*
X94845000Y-93375336D01*
X94896413Y-93452281D01*
X95012719Y-93568587D01*
X95149479Y-93659967D01*
X95301440Y-93722911D01*
X95462760Y-93755000D01*
X95627240Y-93755000D01*
X95788560Y-93722911D01*
X95940521Y-93659967D01*
X96077281Y-93568587D01*
X96193587Y-93452281D01*
X96284967Y-93315521D01*
X96347911Y-93163560D01*
X96371246Y-93046246D01*
X96488560Y-93022911D01*
X96640521Y-92959967D01*
X96777281Y-92868587D01*
X96893587Y-92752281D01*
X96984967Y-92615521D01*
X97047911Y-92463560D01*
X97080000Y-92302240D01*
X97080000Y-92137760D01*
X97047911Y-91976440D01*
X96984967Y-91824479D01*
X96893587Y-91687719D01*
X96777281Y-91571413D01*
X96700336Y-91520000D01*
X96777281Y-91468587D01*
X96893587Y-91352281D01*
X96984967Y-91215521D01*
X97047911Y-91063560D01*
X97080000Y-90902240D01*
X97080000Y-90737760D01*
X97047911Y-90576440D01*
X96984967Y-90424479D01*
X96893587Y-90287719D01*
X96777281Y-90171413D01*
X96640521Y-90080033D01*
X96488560Y-90017089D01*
X96371246Y-89993754D01*
X96347911Y-89876440D01*
X96284967Y-89724479D01*
X96193587Y-89587719D01*
X96077281Y-89471413D01*
X95940521Y-89380033D01*
X95788560Y-89317089D01*
X95627240Y-89285000D01*
X95462760Y-89285000D01*
X95301440Y-89317089D01*
X95149479Y-89380033D01*
X95012719Y-89471413D01*
X94896413Y-89587719D01*
X94845000Y-89664664D01*
X94793587Y-89587719D01*
X94677281Y-89471413D01*
X94540521Y-89380033D01*
X94388560Y-89317089D01*
X94227240Y-89285000D01*
X94062760Y-89285000D01*
X93901440Y-89317089D01*
X93749479Y-89380033D01*
X93612719Y-89471413D01*
X93496413Y-89587719D01*
X93405033Y-89724479D01*
X93342089Y-89876440D01*
X93318754Y-89993754D01*
X93201440Y-90017089D01*
X93049479Y-90080033D01*
X92912719Y-90171413D01*
X92796413Y-90287719D01*
X92705033Y-90424479D01*
X92642089Y-90576440D01*
X92610000Y-90737760D01*
X54778092Y-90737760D01*
X54762911Y-90661440D01*
X54699967Y-90509479D01*
X54608587Y-90372719D01*
X54492281Y-90256413D01*
X54355521Y-90165033D01*
X54203560Y-90102089D01*
X54042240Y-90070000D01*
X53877760Y-90070000D01*
X53716440Y-90102089D01*
X53564479Y-90165033D01*
X53427719Y-90256413D01*
X53311413Y-90372719D01*
X53260000Y-90449664D01*
X53208587Y-90372719D01*
X53092281Y-90256413D01*
X52955521Y-90165033D01*
X52803560Y-90102089D01*
X52642240Y-90070000D01*
X52477760Y-90070000D01*
X52316440Y-90102089D01*
X52164479Y-90165033D01*
X52027719Y-90256413D01*
X51911413Y-90372719D01*
X51820033Y-90509479D01*
X51757089Y-90661440D01*
X51733754Y-90778754D01*
X51616440Y-90802089D01*
X51464479Y-90865033D01*
X51327719Y-90956413D01*
X51211413Y-91072719D01*
X51120033Y-91209479D01*
X51057089Y-91361440D01*
X51025000Y-91522760D01*
X49433300Y-91522760D01*
X49433300Y-76392223D01*
X49436976Y-76354900D01*
X49433300Y-76317577D01*
X49433300Y-76317567D01*
X49422303Y-76205914D01*
X49378846Y-76062653D01*
X49308274Y-75930623D01*
X49237099Y-75843897D01*
X49213301Y-75814899D01*
X49184303Y-75791101D01*
X46755000Y-73361799D01*
X46755000Y-73299661D01*
X46715226Y-73099702D01*
X46711689Y-73091161D01*
X91924900Y-73091161D01*
X91924900Y-73295039D01*
X91964674Y-73494998D01*
X92042695Y-73683356D01*
X92155963Y-73852874D01*
X92300126Y-73997037D01*
X92469644Y-74110305D01*
X92658002Y-74188326D01*
X92857961Y-74228100D01*
X92920099Y-74228100D01*
X99358401Y-80666403D01*
X99358400Y-91450789D01*
X99314463Y-91494726D01*
X99201195Y-91664244D01*
X99123174Y-91852602D01*
X99083400Y-92052561D01*
X99083400Y-92256439D01*
X99123174Y-92456398D01*
X99201195Y-92644756D01*
X99314463Y-92814274D01*
X99458626Y-92958437D01*
X99628144Y-93071705D01*
X99816502Y-93149726D01*
X100016461Y-93189500D01*
X100220339Y-93189500D01*
X100420298Y-93149726D01*
X100608656Y-93071705D01*
X100778174Y-92958437D01*
X100922337Y-92814274D01*
X101035605Y-92644756D01*
X101113626Y-92456398D01*
X101153400Y-92256439D01*
X101153400Y-92052561D01*
X101113626Y-91852602D01*
X101035605Y-91664244D01*
X100922337Y-91494726D01*
X100878400Y-91450789D01*
X100878400Y-90737760D01*
X125630000Y-90737760D01*
X125630000Y-90902240D01*
X125662089Y-91063560D01*
X125725033Y-91215521D01*
X125816413Y-91352281D01*
X125932719Y-91468587D01*
X126009664Y-91520000D01*
X125932719Y-91571413D01*
X125816413Y-91687719D01*
X125725033Y-91824479D01*
X125662089Y-91976440D01*
X125630000Y-92137760D01*
X125630000Y-92302240D01*
X125662089Y-92463560D01*
X125725033Y-92615521D01*
X125816413Y-92752281D01*
X125932719Y-92868587D01*
X126069479Y-92959967D01*
X126221440Y-93022911D01*
X126338754Y-93046246D01*
X126362089Y-93163560D01*
X126425033Y-93315521D01*
X126516413Y-93452281D01*
X126632719Y-93568587D01*
X126769479Y-93659967D01*
X126921440Y-93722911D01*
X127082760Y-93755000D01*
X127247240Y-93755000D01*
X127408560Y-93722911D01*
X127560521Y-93659967D01*
X127697281Y-93568587D01*
X127813587Y-93452281D01*
X127865000Y-93375336D01*
X127916413Y-93452281D01*
X128032719Y-93568587D01*
X128169479Y-93659967D01*
X128321440Y-93722911D01*
X128482760Y-93755000D01*
X128647240Y-93755000D01*
X128808560Y-93722911D01*
X128960521Y-93659967D01*
X129097281Y-93568587D01*
X129213587Y-93452281D01*
X129304967Y-93315521D01*
X129367911Y-93163560D01*
X129391246Y-93046246D01*
X129508560Y-93022911D01*
X129660521Y-92959967D01*
X129797281Y-92868587D01*
X129913587Y-92752281D01*
X130004967Y-92615521D01*
X130067911Y-92463560D01*
X130100000Y-92302240D01*
X130100000Y-92137760D01*
X130067911Y-91976440D01*
X130004967Y-91824479D01*
X129913587Y-91687719D01*
X129797281Y-91571413D01*
X129720336Y-91520000D01*
X129797281Y-91468587D01*
X129913587Y-91352281D01*
X130004967Y-91215521D01*
X130067911Y-91063560D01*
X130100000Y-90902240D01*
X130100000Y-90737760D01*
X130067911Y-90576440D01*
X130004967Y-90424479D01*
X129913587Y-90287719D01*
X129797281Y-90171413D01*
X129660521Y-90080033D01*
X129508560Y-90017089D01*
X129391246Y-89993754D01*
X129367911Y-89876440D01*
X129304967Y-89724479D01*
X129213587Y-89587719D01*
X129097281Y-89471413D01*
X128960521Y-89380033D01*
X128808560Y-89317089D01*
X128647240Y-89285000D01*
X128482760Y-89285000D01*
X128321440Y-89317089D01*
X128169479Y-89380033D01*
X128032719Y-89471413D01*
X127916413Y-89587719D01*
X127865000Y-89664664D01*
X127813587Y-89587719D01*
X127697281Y-89471413D01*
X127560521Y-89380033D01*
X127408560Y-89317089D01*
X127247240Y-89285000D01*
X127082760Y-89285000D01*
X126921440Y-89317089D01*
X126769479Y-89380033D01*
X126632719Y-89471413D01*
X126516413Y-89587719D01*
X126425033Y-89724479D01*
X126362089Y-89876440D01*
X126338754Y-89993754D01*
X126221440Y-90017089D01*
X126069479Y-90080033D01*
X125932719Y-90171413D01*
X125816413Y-90287719D01*
X125725033Y-90424479D01*
X125662089Y-90576440D01*
X125630000Y-90737760D01*
X100878400Y-90737760D01*
X100878400Y-80388925D01*
X100882076Y-80351600D01*
X100878400Y-80314275D01*
X100878400Y-80314267D01*
X100867403Y-80202614D01*
X100823946Y-80059353D01*
X100753374Y-79927324D01*
X100658401Y-79811599D01*
X100629403Y-79787801D01*
X93994900Y-73153299D01*
X93994900Y-73091161D01*
X93955126Y-72891202D01*
X93877105Y-72702844D01*
X93763837Y-72533326D01*
X93619674Y-72389163D01*
X93450156Y-72275895D01*
X93261798Y-72197874D01*
X93061839Y-72158100D01*
X92857961Y-72158100D01*
X92658002Y-72197874D01*
X92469644Y-72275895D01*
X92300126Y-72389163D01*
X92155963Y-72533326D01*
X92042695Y-72702844D01*
X91964674Y-72891202D01*
X91924900Y-73091161D01*
X46711689Y-73091161D01*
X46637205Y-72911344D01*
X46523937Y-72741826D01*
X46379774Y-72597663D01*
X46210256Y-72484395D01*
X46021898Y-72406374D01*
X45821939Y-72366600D01*
X45618061Y-72366600D01*
X45418102Y-72406374D01*
X45229744Y-72484395D01*
X45060226Y-72597663D01*
X44916063Y-72741826D01*
X44802795Y-72911344D01*
X44724774Y-73099702D01*
X44685000Y-73299661D01*
X44685000Y-73503539D01*
X44724774Y-73703498D01*
X44802795Y-73891856D01*
X44916063Y-74061374D01*
X45060226Y-74205537D01*
X45229744Y-74318805D01*
X45418102Y-74396826D01*
X45618061Y-74436600D01*
X45680199Y-74436600D01*
X47913301Y-76669703D01*
X47913300Y-99297198D01*
X45493499Y-101717000D01*
X45431361Y-101717000D01*
X45231402Y-101756774D01*
X45043044Y-101834795D01*
X44873526Y-101948063D01*
X44729363Y-102092226D01*
X44616095Y-102261744D01*
X44538074Y-102450102D01*
X44498300Y-102650061D01*
X44498300Y-102853939D01*
X44538074Y-103053898D01*
X44616095Y-103242256D01*
X44729363Y-103411774D01*
X44873526Y-103555937D01*
X45043044Y-103669205D01*
X45231402Y-103747226D01*
X45431361Y-103787000D01*
X45635239Y-103787000D01*
X45835198Y-103747226D01*
X46023556Y-103669205D01*
X46193074Y-103555937D01*
X46337237Y-103411774D01*
X46450505Y-103242256D01*
X46528526Y-103053898D01*
X46568300Y-102853939D01*
X46568300Y-102791801D01*
X49074502Y-100285600D01*
X82812393Y-100285600D01*
X82806440Y-100305224D01*
X82804000Y-100330000D01*
X82804000Y-112370000D01*
X37497279Y-112370000D01*
X37347131Y-112355278D01*
X37233754Y-112321047D01*
X37129183Y-112265446D01*
X37037405Y-112190594D01*
X36961909Y-112099335D01*
X36905581Y-111995160D01*
X36870560Y-111882024D01*
X36855000Y-111733979D01*
X36855000Y-106395852D01*
X68870000Y-106395852D01*
X68870000Y-106964148D01*
X68980869Y-107521523D01*
X69198346Y-108046560D01*
X69514074Y-108519080D01*
X69915920Y-108920926D01*
X70388440Y-109236654D01*
X70913477Y-109454131D01*
X71470852Y-109565000D01*
X72039148Y-109565000D01*
X72596523Y-109454131D01*
X73121560Y-109236654D01*
X73594080Y-108920926D01*
X73995926Y-108519080D01*
X74311654Y-108046560D01*
X74529131Y-107521523D01*
X74640000Y-106964148D01*
X74640000Y-106395852D01*
X74529131Y-105838477D01*
X74311654Y-105313440D01*
X73995926Y-104840920D01*
X73594080Y-104439074D01*
X73121560Y-104123346D01*
X72596523Y-103905869D01*
X72039148Y-103795000D01*
X71470852Y-103795000D01*
X70913477Y-103905869D01*
X70388440Y-104123346D01*
X69915920Y-104439074D01*
X69514074Y-104840920D01*
X69198346Y-105313440D01*
X68980869Y-105838477D01*
X68870000Y-106395852D01*
X36855000Y-106395852D01*
X36855000Y-101473000D01*
X44323000Y-101473000D01*
X44347776Y-101470560D01*
X44371601Y-101463333D01*
X44393557Y-101451597D01*
X44412803Y-101435803D01*
X44428597Y-101416557D01*
X44440333Y-101394601D01*
X44447560Y-101370776D01*
X44450000Y-101346000D01*
X44450000Y-80518000D01*
X44447560Y-80493224D01*
X44440333Y-80469399D01*
X44428597Y-80447443D01*
X44412803Y-80428197D01*
X44393557Y-80412403D01*
X44371601Y-80400667D01*
X44347776Y-80393440D01*
X44323000Y-80391000D01*
X36855000Y-80391000D01*
X36855000Y-70993361D01*
X123104600Y-70993361D01*
X123104600Y-71197239D01*
X123144374Y-71397198D01*
X123222395Y-71585556D01*
X123335663Y-71755074D01*
X123479826Y-71899237D01*
X123649344Y-72012505D01*
X123837702Y-72090526D01*
X124037661Y-72130300D01*
X124099799Y-72130300D01*
X131492601Y-79523103D01*
X131492600Y-90843189D01*
X131448663Y-90887126D01*
X131335395Y-91056644D01*
X131257374Y-91245002D01*
X131217600Y-91444961D01*
X131217600Y-91648839D01*
X131257374Y-91848798D01*
X131335395Y-92037156D01*
X131448663Y-92206674D01*
X131592826Y-92350837D01*
X131762344Y-92464105D01*
X131950702Y-92542126D01*
X132150661Y-92581900D01*
X132354539Y-92581900D01*
X132554498Y-92542126D01*
X132742856Y-92464105D01*
X132912374Y-92350837D01*
X133056537Y-92206674D01*
X133169805Y-92037156D01*
X133247826Y-91848798D01*
X133287600Y-91648839D01*
X133287600Y-91444961D01*
X133247826Y-91245002D01*
X133169805Y-91056644D01*
X133056537Y-90887126D01*
X133012600Y-90843189D01*
X133012600Y-90737760D01*
X159285000Y-90737760D01*
X159285000Y-90902240D01*
X159317089Y-91063560D01*
X159380033Y-91215521D01*
X159471413Y-91352281D01*
X159587719Y-91468587D01*
X159664664Y-91520000D01*
X159587719Y-91571413D01*
X159471413Y-91687719D01*
X159380033Y-91824479D01*
X159317089Y-91976440D01*
X159285000Y-92137760D01*
X159285000Y-92302240D01*
X159317089Y-92463560D01*
X159380033Y-92615521D01*
X159471413Y-92752281D01*
X159587719Y-92868587D01*
X159724479Y-92959967D01*
X159876440Y-93022911D01*
X159993754Y-93046246D01*
X160017089Y-93163560D01*
X160080033Y-93315521D01*
X160171413Y-93452281D01*
X160287719Y-93568587D01*
X160424479Y-93659967D01*
X160576440Y-93722911D01*
X160737760Y-93755000D01*
X160902240Y-93755000D01*
X161063560Y-93722911D01*
X161215521Y-93659967D01*
X161352281Y-93568587D01*
X161468587Y-93452281D01*
X161520000Y-93375336D01*
X161571413Y-93452281D01*
X161687719Y-93568587D01*
X161824479Y-93659967D01*
X161976440Y-93722911D01*
X162137760Y-93755000D01*
X162302240Y-93755000D01*
X162463560Y-93722911D01*
X162615521Y-93659967D01*
X162752281Y-93568587D01*
X162868587Y-93452281D01*
X162959967Y-93315521D01*
X163022911Y-93163560D01*
X163046246Y-93046246D01*
X163163560Y-93022911D01*
X163315521Y-92959967D01*
X163452281Y-92868587D01*
X163568587Y-92752281D01*
X163659967Y-92615521D01*
X163722911Y-92463560D01*
X163755000Y-92302240D01*
X163755000Y-92137760D01*
X163722911Y-91976440D01*
X163659967Y-91824479D01*
X163568587Y-91687719D01*
X163452281Y-91571413D01*
X163375336Y-91520000D01*
X163452281Y-91468587D01*
X163568587Y-91352281D01*
X163659967Y-91215521D01*
X163722911Y-91063560D01*
X163755000Y-90902240D01*
X163755000Y-90737760D01*
X163722911Y-90576440D01*
X163659967Y-90424479D01*
X163568587Y-90287719D01*
X163452281Y-90171413D01*
X163315521Y-90080033D01*
X163163560Y-90017089D01*
X163046246Y-89993754D01*
X163022911Y-89876440D01*
X162959967Y-89724479D01*
X162868587Y-89587719D01*
X162752281Y-89471413D01*
X162615521Y-89380033D01*
X162463560Y-89317089D01*
X162302240Y-89285000D01*
X162137760Y-89285000D01*
X161976440Y-89317089D01*
X161824479Y-89380033D01*
X161687719Y-89471413D01*
X161571413Y-89587719D01*
X161520000Y-89664664D01*
X161468587Y-89587719D01*
X161352281Y-89471413D01*
X161215521Y-89380033D01*
X161063560Y-89317089D01*
X160902240Y-89285000D01*
X160737760Y-89285000D01*
X160576440Y-89317089D01*
X160424479Y-89380033D01*
X160287719Y-89471413D01*
X160171413Y-89587719D01*
X160080033Y-89724479D01*
X160017089Y-89876440D01*
X159993754Y-89993754D01*
X159876440Y-90017089D01*
X159724479Y-90080033D01*
X159587719Y-90171413D01*
X159471413Y-90287719D01*
X159380033Y-90424479D01*
X159317089Y-90576440D01*
X159285000Y-90737760D01*
X133012600Y-90737760D01*
X133012600Y-83843361D01*
X163659700Y-83843361D01*
X163659700Y-84047239D01*
X163699474Y-84247198D01*
X163777495Y-84435556D01*
X163890763Y-84605074D01*
X164034926Y-84749237D01*
X164204444Y-84862505D01*
X164392802Y-84940526D01*
X164592761Y-84980300D01*
X164796639Y-84980300D01*
X164996598Y-84940526D01*
X165184956Y-84862505D01*
X165354474Y-84749237D01*
X165398411Y-84705300D01*
X166806899Y-84705300D01*
X169719300Y-87617702D01*
X169719300Y-87679839D01*
X169759074Y-87879798D01*
X169837095Y-88068156D01*
X169950363Y-88237674D01*
X170094526Y-88381837D01*
X170264044Y-88495105D01*
X170452402Y-88573126D01*
X170652361Y-88612900D01*
X170856239Y-88612900D01*
X171056198Y-88573126D01*
X171244556Y-88495105D01*
X171414074Y-88381837D01*
X171558237Y-88237674D01*
X171671505Y-88068156D01*
X171749526Y-87879798D01*
X171789300Y-87679839D01*
X171789300Y-87475961D01*
X171749526Y-87276002D01*
X171671505Y-87087644D01*
X171558237Y-86918126D01*
X171414074Y-86773963D01*
X171244556Y-86660695D01*
X171056198Y-86582674D01*
X170856239Y-86542900D01*
X170794102Y-86542900D01*
X167685504Y-83434303D01*
X167661701Y-83405299D01*
X167545976Y-83310326D01*
X167413947Y-83239754D01*
X167270686Y-83196297D01*
X167159033Y-83185300D01*
X167159022Y-83185300D01*
X167121700Y-83181624D01*
X167084378Y-83185300D01*
X165398411Y-83185300D01*
X165354474Y-83141363D01*
X165184956Y-83028095D01*
X164996598Y-82950074D01*
X164796639Y-82910300D01*
X164592761Y-82910300D01*
X164392802Y-82950074D01*
X164204444Y-83028095D01*
X164034926Y-83141363D01*
X163890763Y-83285526D01*
X163777495Y-83455044D01*
X163699474Y-83643402D01*
X163659700Y-83843361D01*
X133012600Y-83843361D01*
X133012600Y-79245625D01*
X133016276Y-79208300D01*
X133012600Y-79170975D01*
X133012600Y-79170967D01*
X133001603Y-79059314D01*
X132958146Y-78916053D01*
X132887574Y-78784024D01*
X132792601Y-78668299D01*
X132763603Y-78644501D01*
X126541763Y-72422661D01*
X166181700Y-72422661D01*
X166181700Y-72626539D01*
X166221474Y-72826498D01*
X166299495Y-73014856D01*
X166412763Y-73184374D01*
X166556926Y-73328537D01*
X166726444Y-73441805D01*
X166914802Y-73519826D01*
X167114761Y-73559600D01*
X167318639Y-73559600D01*
X167518598Y-73519826D01*
X167706956Y-73441805D01*
X167876474Y-73328537D01*
X167920411Y-73284600D01*
X171682745Y-73284600D01*
X171699374Y-73368198D01*
X171777395Y-73556556D01*
X171890663Y-73726074D01*
X172034826Y-73870237D01*
X172204344Y-73983505D01*
X172392702Y-74061526D01*
X172592661Y-74101300D01*
X172796539Y-74101300D01*
X172996498Y-74061526D01*
X173184856Y-73983505D01*
X173354374Y-73870237D01*
X173498537Y-73726074D01*
X173611805Y-73556556D01*
X173689826Y-73368198D01*
X173729600Y-73168239D01*
X173729600Y-72964361D01*
X173689826Y-72764402D01*
X173611805Y-72576044D01*
X173498537Y-72406526D01*
X173354374Y-72262363D01*
X173184856Y-72149095D01*
X172996498Y-72071074D01*
X172912900Y-72054445D01*
X172912900Y-58296001D01*
X179221602Y-51987300D01*
X179283739Y-51987300D01*
X179483698Y-51947526D01*
X179672056Y-51869505D01*
X179841574Y-51756237D01*
X179985737Y-51612074D01*
X180099005Y-51442556D01*
X180177026Y-51254198D01*
X180216800Y-51054239D01*
X180216800Y-50850361D01*
X180177026Y-50650402D01*
X180099005Y-50462044D01*
X179985737Y-50292526D01*
X179841574Y-50148363D01*
X179672056Y-50035095D01*
X179483698Y-49957074D01*
X179283739Y-49917300D01*
X179079861Y-49917300D01*
X178879902Y-49957074D01*
X178691544Y-50035095D01*
X178522026Y-50148363D01*
X178377863Y-50292526D01*
X178264595Y-50462044D01*
X178186574Y-50650402D01*
X178146800Y-50850361D01*
X178146800Y-50912498D01*
X171641898Y-57417401D01*
X171612900Y-57441199D01*
X171589102Y-57470197D01*
X171589101Y-57470198D01*
X171517926Y-57556924D01*
X171447354Y-57688954D01*
X171403898Y-57832215D01*
X171389224Y-57981200D01*
X171392901Y-58018532D01*
X171392900Y-71764600D01*
X167920411Y-71764600D01*
X167876474Y-71720663D01*
X167706956Y-71607395D01*
X167518598Y-71529374D01*
X167318639Y-71489600D01*
X167114761Y-71489600D01*
X166914802Y-71529374D01*
X166726444Y-71607395D01*
X166556926Y-71720663D01*
X166412763Y-71864826D01*
X166299495Y-72034344D01*
X166221474Y-72222702D01*
X166181700Y-72422661D01*
X126541763Y-72422661D01*
X125174600Y-71055499D01*
X125174600Y-70993361D01*
X125134826Y-70793402D01*
X125056805Y-70605044D01*
X124943537Y-70435526D01*
X124799374Y-70291363D01*
X124629856Y-70178095D01*
X124441498Y-70100074D01*
X124241539Y-70060300D01*
X124037661Y-70060300D01*
X123837702Y-70100074D01*
X123649344Y-70178095D01*
X123479826Y-70291363D01*
X123335663Y-70435526D01*
X123222395Y-70605044D01*
X123144374Y-70793402D01*
X123104600Y-70993361D01*
X36855000Y-70993361D01*
X36855000Y-68961000D01*
X44323000Y-68961000D01*
X44347776Y-68958560D01*
X44371601Y-68951333D01*
X44393557Y-68939597D01*
X44412803Y-68923803D01*
X44428597Y-68904557D01*
X44440333Y-68882601D01*
X44447560Y-68858776D01*
X44450000Y-68834000D01*
X44450000Y-63850852D01*
X78395000Y-63850852D01*
X78395000Y-64419148D01*
X78505869Y-64976523D01*
X78723346Y-65501560D01*
X79039074Y-65974080D01*
X79440920Y-66375926D01*
X79913440Y-66691654D01*
X80438477Y-66909131D01*
X80995852Y-67020000D01*
X81564148Y-67020000D01*
X82121523Y-66909131D01*
X82646560Y-66691654D01*
X83119080Y-66375926D01*
X83520926Y-65974080D01*
X83836654Y-65501560D01*
X84054131Y-64976523D01*
X84165000Y-64419148D01*
X84165000Y-63850852D01*
X140625000Y-63850852D01*
X140625000Y-64419148D01*
X140735869Y-64976523D01*
X140953346Y-65501560D01*
X141269074Y-65974080D01*
X141670920Y-66375926D01*
X142143440Y-66691654D01*
X142668477Y-66909131D01*
X143225852Y-67020000D01*
X143794148Y-67020000D01*
X144351523Y-66909131D01*
X144876560Y-66691654D01*
X145349080Y-66375926D01*
X145750926Y-65974080D01*
X146066654Y-65501560D01*
X146284131Y-64976523D01*
X146395000Y-64419148D01*
X146395000Y-63850852D01*
X146284131Y-63293477D01*
X146066654Y-62768440D01*
X145750926Y-62295920D01*
X145349080Y-61894074D01*
X144876560Y-61578346D01*
X144351523Y-61360869D01*
X143794148Y-61250000D01*
X143225852Y-61250000D01*
X142668477Y-61360869D01*
X142143440Y-61578346D01*
X141670920Y-61894074D01*
X141269074Y-62295920D01*
X140953346Y-62768440D01*
X140735869Y-63293477D01*
X140625000Y-63850852D01*
X84165000Y-63850852D01*
X84054131Y-63293477D01*
X83836654Y-62768440D01*
X83520926Y-62295920D01*
X83119080Y-61894074D01*
X82646560Y-61578346D01*
X82121523Y-61360869D01*
X81564148Y-61250000D01*
X80995852Y-61250000D01*
X80438477Y-61360869D01*
X79913440Y-61578346D01*
X79440920Y-61894074D01*
X79039074Y-62295920D01*
X78723346Y-62768440D01*
X78505869Y-63293477D01*
X78395000Y-63850852D01*
X44450000Y-63850852D01*
X44450000Y-59137760D01*
X51025000Y-59137760D01*
X51025000Y-59302240D01*
X51057089Y-59463560D01*
X51120033Y-59615521D01*
X51211413Y-59752281D01*
X51327719Y-59868587D01*
X51404664Y-59920000D01*
X51327719Y-59971413D01*
X51211413Y-60087719D01*
X51120033Y-60224479D01*
X51057089Y-60376440D01*
X51025000Y-60537760D01*
X51025000Y-60702240D01*
X51057089Y-60863560D01*
X51120033Y-61015521D01*
X51211413Y-61152281D01*
X51327719Y-61268587D01*
X51464479Y-61359967D01*
X51616440Y-61422911D01*
X51733754Y-61446246D01*
X51757089Y-61563560D01*
X51820033Y-61715521D01*
X51911413Y-61852281D01*
X52027719Y-61968587D01*
X52164479Y-62059967D01*
X52316440Y-62122911D01*
X52477760Y-62155000D01*
X52642240Y-62155000D01*
X52803560Y-62122911D01*
X52955521Y-62059967D01*
X53092281Y-61968587D01*
X53208587Y-61852281D01*
X53260000Y-61775336D01*
X53311413Y-61852281D01*
X53427719Y-61968587D01*
X53564479Y-62059967D01*
X53716440Y-62122911D01*
X53877760Y-62155000D01*
X54042240Y-62155000D01*
X54203560Y-62122911D01*
X54355521Y-62059967D01*
X54492281Y-61968587D01*
X54608587Y-61852281D01*
X54699967Y-61715521D01*
X54762911Y-61563560D01*
X54786246Y-61446246D01*
X54903560Y-61422911D01*
X55055521Y-61359967D01*
X55192281Y-61268587D01*
X55308587Y-61152281D01*
X55399967Y-61015521D01*
X55462911Y-60863560D01*
X55495000Y-60702240D01*
X55495000Y-60537760D01*
X55462911Y-60376440D01*
X55399967Y-60224479D01*
X55308587Y-60087719D01*
X55192281Y-59971413D01*
X55115336Y-59920000D01*
X55192281Y-59868587D01*
X55308587Y-59752281D01*
X55399967Y-59615521D01*
X55462911Y-59463560D01*
X55495000Y-59302240D01*
X55495000Y-59137760D01*
X55462911Y-58976440D01*
X55399967Y-58824479D01*
X55308587Y-58687719D01*
X55192281Y-58571413D01*
X55055521Y-58480033D01*
X54903560Y-58417089D01*
X54786246Y-58393754D01*
X54762911Y-58276440D01*
X54699967Y-58124479D01*
X54608587Y-57987719D01*
X54492281Y-57871413D01*
X54355521Y-57780033D01*
X54203560Y-57717089D01*
X54042240Y-57685000D01*
X53877760Y-57685000D01*
X53716440Y-57717089D01*
X53564479Y-57780033D01*
X53427719Y-57871413D01*
X53311413Y-57987719D01*
X53260000Y-58064664D01*
X53208587Y-57987719D01*
X53092281Y-57871413D01*
X52955521Y-57780033D01*
X52803560Y-57717089D01*
X52642240Y-57685000D01*
X52477760Y-57685000D01*
X52316440Y-57717089D01*
X52164479Y-57780033D01*
X52027719Y-57871413D01*
X51911413Y-57987719D01*
X51820033Y-58124479D01*
X51757089Y-58276440D01*
X51733754Y-58393754D01*
X51616440Y-58417089D01*
X51464479Y-58480033D01*
X51327719Y-58571413D01*
X51211413Y-58687719D01*
X51120033Y-58824479D01*
X51057089Y-58976440D01*
X51025000Y-59137760D01*
X44450000Y-59137760D01*
X44450000Y-48514000D01*
X44447560Y-48489224D01*
X44440333Y-48465399D01*
X44428597Y-48443443D01*
X44412803Y-48424197D01*
X44393557Y-48408403D01*
X44371601Y-48396667D01*
X44347776Y-48389440D01*
X44323000Y-48387000D01*
X36855000Y-48387000D01*
X36855000Y-33475861D01*
X55563000Y-33475861D01*
X55563000Y-33679739D01*
X55602774Y-33879698D01*
X55680795Y-34068056D01*
X55794063Y-34237574D01*
X55938226Y-34381737D01*
X56107744Y-34495005D01*
X56296102Y-34573026D01*
X56496061Y-34612800D01*
X56558199Y-34612800D01*
X57633000Y-35687602D01*
X57656799Y-35716601D01*
X57772524Y-35811574D01*
X57904553Y-35882146D01*
X58047814Y-35925603D01*
X58159467Y-35936600D01*
X58159475Y-35936600D01*
X58196800Y-35940276D01*
X58234125Y-35936600D01*
X74725000Y-35936600D01*
X74725000Y-36133539D01*
X74764774Y-36333498D01*
X74842795Y-36521856D01*
X74956063Y-36691374D01*
X75100226Y-36835537D01*
X75269744Y-36948805D01*
X75458102Y-37026826D01*
X75658061Y-37066600D01*
X75861939Y-37066600D01*
X76061898Y-37026826D01*
X76250256Y-36948805D01*
X76419774Y-36835537D01*
X76463711Y-36791600D01*
X79583999Y-36791600D01*
X86351821Y-43559423D01*
X86211802Y-43587274D01*
X86023444Y-43665295D01*
X85853926Y-43778563D01*
X85709763Y-43922726D01*
X85596495Y-44092244D01*
X85518474Y-44280602D01*
X85478700Y-44480561D01*
X85478700Y-44684439D01*
X85518474Y-44884398D01*
X85596495Y-45072756D01*
X85709763Y-45242274D01*
X85853926Y-45386437D01*
X86023444Y-45499705D01*
X86211802Y-45577726D01*
X86411761Y-45617500D01*
X86473899Y-45617500D01*
X96403405Y-55547008D01*
X96427199Y-55576001D01*
X96456192Y-55599795D01*
X96456196Y-55599799D01*
X96526885Y-55657811D01*
X96542924Y-55670974D01*
X96674953Y-55741546D01*
X96818214Y-55785003D01*
X96929867Y-55796000D01*
X96929876Y-55796000D01*
X96967199Y-55799676D01*
X97004522Y-55796000D01*
X97047189Y-55796000D01*
X97091126Y-55839937D01*
X97260644Y-55953205D01*
X97449002Y-56031226D01*
X97648961Y-56071000D01*
X97852839Y-56071000D01*
X98052798Y-56031226D01*
X98241156Y-55953205D01*
X98410674Y-55839937D01*
X98554837Y-55695774D01*
X98668105Y-55526256D01*
X98746126Y-55337898D01*
X98785900Y-55137939D01*
X98785900Y-54934061D01*
X98746126Y-54734102D01*
X98668105Y-54545744D01*
X98554837Y-54376226D01*
X98410674Y-54232063D01*
X98241156Y-54118795D01*
X98052798Y-54040774D01*
X97852839Y-54001000D01*
X97648961Y-54001000D01*
X97449002Y-54040774D01*
X97260644Y-54118795D01*
X97179210Y-54173207D01*
X93060598Y-50054596D01*
X93121656Y-50029305D01*
X93291174Y-49916037D01*
X93435337Y-49771874D01*
X93548605Y-49602356D01*
X93626626Y-49413998D01*
X93666400Y-49214039D01*
X93666400Y-49010161D01*
X93626626Y-48810202D01*
X93548605Y-48621844D01*
X93435337Y-48452326D01*
X93391400Y-48408389D01*
X93391400Y-45542558D01*
X93405496Y-45548397D01*
X99800900Y-51943802D01*
X99800900Y-52005939D01*
X99840674Y-52205898D01*
X99918695Y-52394256D01*
X100031963Y-52563774D01*
X100176126Y-52707937D01*
X100345644Y-52821205D01*
X100534002Y-52899226D01*
X100733961Y-52939000D01*
X100937839Y-52939000D01*
X101137798Y-52899226D01*
X101326156Y-52821205D01*
X101495674Y-52707937D01*
X101639837Y-52563774D01*
X101753105Y-52394256D01*
X101831126Y-52205898D01*
X101870900Y-52005939D01*
X101870900Y-51802061D01*
X101831126Y-51602102D01*
X101753105Y-51413744D01*
X101639837Y-51244226D01*
X101495674Y-51100063D01*
X101326156Y-50986795D01*
X101137798Y-50908774D01*
X100937839Y-50869000D01*
X100875702Y-50869000D01*
X94792949Y-44786248D01*
X94813200Y-44684439D01*
X94813200Y-44549861D01*
X120157300Y-44549861D01*
X120157300Y-44753739D01*
X120197074Y-44953698D01*
X120275095Y-45142056D01*
X120388363Y-45311574D01*
X120432300Y-45355511D01*
X120432300Y-45453078D01*
X120428624Y-45490400D01*
X120432300Y-45527719D01*
X120432300Y-45527733D01*
X120441142Y-45617500D01*
X120443298Y-45639385D01*
X120486754Y-45782646D01*
X120557326Y-45914676D01*
X120628501Y-46001402D01*
X120652300Y-46030401D01*
X120681298Y-46054199D01*
X129872000Y-55244903D01*
X129872000Y-55307039D01*
X129911774Y-55506998D01*
X129989795Y-55695356D01*
X130103063Y-55864874D01*
X130247226Y-56009037D01*
X130416744Y-56122305D01*
X130605102Y-56200326D01*
X130805061Y-56240100D01*
X131008939Y-56240100D01*
X131208898Y-56200326D01*
X131397256Y-56122305D01*
X131566774Y-56009037D01*
X131710937Y-55864874D01*
X131824205Y-55695356D01*
X131902226Y-55506998D01*
X131942000Y-55307039D01*
X131942000Y-55103161D01*
X131902226Y-54903202D01*
X131824205Y-54714844D01*
X131710937Y-54545326D01*
X131566774Y-54401163D01*
X131397256Y-54287895D01*
X131208898Y-54209874D01*
X131008939Y-54170100D01*
X130946803Y-54170100D01*
X122033102Y-45256401D01*
X122109505Y-45142056D01*
X122187526Y-44953698D01*
X122227300Y-44753739D01*
X122227300Y-44549861D01*
X122187526Y-44349902D01*
X122109505Y-44161544D01*
X121996237Y-43992026D01*
X121852074Y-43847863D01*
X121851922Y-43847761D01*
X123368000Y-43847761D01*
X123368000Y-44051639D01*
X123407774Y-44251598D01*
X123485795Y-44439956D01*
X123599063Y-44609474D01*
X123743226Y-44753637D01*
X123912744Y-44866905D01*
X124101102Y-44944926D01*
X124301061Y-44984700D01*
X124363199Y-44984700D01*
X132694601Y-53316103D01*
X132718399Y-53345101D01*
X132834124Y-53440074D01*
X132966153Y-53510646D01*
X133109414Y-53554103D01*
X133221067Y-53565100D01*
X133221075Y-53565100D01*
X133258400Y-53568776D01*
X133295725Y-53565100D01*
X134303789Y-53565100D01*
X134347726Y-53609037D01*
X134517244Y-53722305D01*
X134705602Y-53800326D01*
X134905561Y-53840100D01*
X135109439Y-53840100D01*
X135309398Y-53800326D01*
X135497756Y-53722305D01*
X135667274Y-53609037D01*
X135811437Y-53464874D01*
X135924705Y-53295356D01*
X136002726Y-53106998D01*
X136042500Y-52907039D01*
X136042500Y-52703161D01*
X136002726Y-52503202D01*
X135924705Y-52314844D01*
X135811437Y-52145326D01*
X135667274Y-52001163D01*
X135497756Y-51887895D01*
X135309398Y-51809874D01*
X135109439Y-51770100D01*
X134905561Y-51770100D01*
X134705602Y-51809874D01*
X134517244Y-51887895D01*
X134347726Y-52001163D01*
X134303789Y-52045100D01*
X133573202Y-52045100D01*
X125438000Y-43909899D01*
X125438000Y-43847761D01*
X125398226Y-43647802D01*
X125320205Y-43459444D01*
X125206937Y-43289926D01*
X125062774Y-43145763D01*
X124893256Y-43032495D01*
X124704898Y-42954474D01*
X124504939Y-42914700D01*
X124301061Y-42914700D01*
X124101102Y-42954474D01*
X123912744Y-43032495D01*
X123743226Y-43145763D01*
X123599063Y-43289926D01*
X123485795Y-43459444D01*
X123407774Y-43647802D01*
X123368000Y-43847761D01*
X121851922Y-43847761D01*
X121682556Y-43734595D01*
X121494198Y-43656574D01*
X121294239Y-43616800D01*
X121090361Y-43616800D01*
X120890402Y-43656574D01*
X120702044Y-43734595D01*
X120532526Y-43847863D01*
X120388363Y-43992026D01*
X120275095Y-44161544D01*
X120197074Y-44349902D01*
X120157300Y-44549861D01*
X94813200Y-44549861D01*
X94813200Y-44480561D01*
X94773426Y-44280602D01*
X94695405Y-44092244D01*
X94582137Y-43922726D01*
X94437974Y-43778563D01*
X94268456Y-43665295D01*
X94080098Y-43587274D01*
X93880139Y-43547500D01*
X93676261Y-43547500D01*
X93476302Y-43587274D01*
X93391400Y-43622442D01*
X93391400Y-41282761D01*
X151894500Y-41282761D01*
X151894500Y-41486639D01*
X151934274Y-41686598D01*
X152012295Y-41874956D01*
X152125563Y-42044474D01*
X152169500Y-42088411D01*
X152169501Y-50741268D01*
X152165824Y-50778600D01*
X152180498Y-50927585D01*
X152223954Y-51070846D01*
X152294526Y-51202876D01*
X152365701Y-51289602D01*
X152389500Y-51318601D01*
X152418498Y-51342399D01*
X154386600Y-53310502D01*
X154386600Y-53372639D01*
X154426374Y-53572598D01*
X154504395Y-53760956D01*
X154617663Y-53930474D01*
X154761826Y-54074637D01*
X154931344Y-54187905D01*
X155119702Y-54265926D01*
X155319661Y-54305700D01*
X155523539Y-54305700D01*
X155723498Y-54265926D01*
X155911856Y-54187905D01*
X156081374Y-54074637D01*
X156225537Y-53930474D01*
X156338805Y-53760956D01*
X156416826Y-53572598D01*
X156456600Y-53372639D01*
X156456600Y-53168761D01*
X156416826Y-52968802D01*
X156338805Y-52780444D01*
X156225537Y-52610926D01*
X156081374Y-52466763D01*
X155911856Y-52353495D01*
X155723498Y-52275474D01*
X155523539Y-52235700D01*
X155461402Y-52235700D01*
X153689500Y-50463799D01*
X153689500Y-44788565D01*
X153806744Y-44866905D01*
X153995102Y-44944926D01*
X154195061Y-44984700D01*
X154257199Y-44984700D01*
X164890605Y-55618108D01*
X164914399Y-55647101D01*
X164943392Y-55670895D01*
X164943396Y-55670899D01*
X164973707Y-55695774D01*
X165030124Y-55742074D01*
X165162153Y-55812646D01*
X165305414Y-55856103D01*
X165417067Y-55867100D01*
X165417076Y-55867100D01*
X165454399Y-55870776D01*
X165491722Y-55867100D01*
X167413189Y-55867100D01*
X167457126Y-55911037D01*
X167626644Y-56024305D01*
X167815002Y-56102326D01*
X168014961Y-56142100D01*
X168218839Y-56142100D01*
X168418798Y-56102326D01*
X168607156Y-56024305D01*
X168776674Y-55911037D01*
X168920837Y-55766874D01*
X169034105Y-55597356D01*
X169112126Y-55408998D01*
X169151900Y-55209039D01*
X169151900Y-55005161D01*
X169112126Y-54805202D01*
X169034105Y-54616844D01*
X168920837Y-54447326D01*
X168776674Y-54303163D01*
X168607156Y-54189895D01*
X168418798Y-54111874D01*
X168218839Y-54072100D01*
X168014961Y-54072100D01*
X167815002Y-54111874D01*
X167626644Y-54189895D01*
X167457126Y-54303163D01*
X167413189Y-54347100D01*
X165769203Y-54347100D01*
X155332000Y-43909899D01*
X155332000Y-43847761D01*
X155292226Y-43647802D01*
X155214205Y-43459444D01*
X155100937Y-43289926D01*
X154956774Y-43145763D01*
X154787256Y-43032495D01*
X154598898Y-42954474D01*
X154398939Y-42914700D01*
X154195061Y-42914700D01*
X153995102Y-42954474D01*
X153806744Y-43032495D01*
X153689500Y-43110835D01*
X153689500Y-42088411D01*
X153733437Y-42044474D01*
X153846705Y-41874956D01*
X153924726Y-41686598D01*
X153964500Y-41486639D01*
X153964500Y-41282761D01*
X153924726Y-41082802D01*
X153846705Y-40894444D01*
X153733437Y-40724926D01*
X153589274Y-40580763D01*
X153419756Y-40467495D01*
X153231398Y-40389474D01*
X153031439Y-40349700D01*
X152827561Y-40349700D01*
X152627602Y-40389474D01*
X152439244Y-40467495D01*
X152269726Y-40580763D01*
X152125563Y-40724926D01*
X152012295Y-40894444D01*
X151934274Y-41082802D01*
X151894500Y-41282761D01*
X93391400Y-41282761D01*
X93391400Y-40775433D01*
X93395077Y-40738100D01*
X93380403Y-40589114D01*
X93336946Y-40445853D01*
X93266374Y-40313824D01*
X93195199Y-40227097D01*
X93171401Y-40198099D01*
X93142404Y-40174302D01*
X91303026Y-38334925D01*
X91388560Y-38317911D01*
X91540521Y-38254967D01*
X91677281Y-38163587D01*
X91793587Y-38047281D01*
X91845000Y-37970336D01*
X91896413Y-38047281D01*
X92012719Y-38163587D01*
X92149479Y-38254967D01*
X92301440Y-38317911D01*
X92462760Y-38350000D01*
X92627240Y-38350000D01*
X92788560Y-38317911D01*
X92940521Y-38254967D01*
X93077281Y-38163587D01*
X93193587Y-38047281D01*
X93284967Y-37910521D01*
X93347911Y-37758560D01*
X93371246Y-37641246D01*
X93488560Y-37617911D01*
X93640521Y-37554967D01*
X93777281Y-37463587D01*
X93893587Y-37347281D01*
X93984967Y-37210521D01*
X94047911Y-37058560D01*
X94080000Y-36897240D01*
X94080000Y-36732760D01*
X94047911Y-36571440D01*
X93984967Y-36419479D01*
X93893587Y-36282719D01*
X93777281Y-36166413D01*
X93700336Y-36115000D01*
X93777281Y-36063587D01*
X93893587Y-35947281D01*
X93947327Y-35866853D01*
X94029102Y-35900726D01*
X94229061Y-35940500D01*
X94432939Y-35940500D01*
X94632898Y-35900726D01*
X94821256Y-35822705D01*
X94990774Y-35709437D01*
X95134937Y-35565274D01*
X95248205Y-35395756D01*
X95326226Y-35207398D01*
X95366000Y-35007439D01*
X95366000Y-34803561D01*
X95326226Y-34603602D01*
X95248205Y-34415244D01*
X95134937Y-34245726D01*
X94990774Y-34101563D01*
X94821256Y-33988295D01*
X94632898Y-33910274D01*
X94432939Y-33870500D01*
X94370803Y-33870500D01*
X93715317Y-33215014D01*
X93878056Y-33147605D01*
X94047574Y-33034337D01*
X94091511Y-32990400D01*
X99640099Y-32990400D01*
X103305200Y-36655502D01*
X103305200Y-36717639D01*
X103344974Y-36917598D01*
X103422995Y-37105956D01*
X103536263Y-37275474D01*
X103680426Y-37419637D01*
X103849944Y-37532905D01*
X104038302Y-37610926D01*
X104238261Y-37650700D01*
X104442139Y-37650700D01*
X104642098Y-37610926D01*
X104830456Y-37532905D01*
X104999974Y-37419637D01*
X105144137Y-37275474D01*
X105257405Y-37105956D01*
X105335426Y-36917598D01*
X105375200Y-36717639D01*
X105375200Y-36513761D01*
X105335426Y-36313802D01*
X105257405Y-36125444D01*
X105144137Y-35955926D01*
X104999974Y-35811763D01*
X104830456Y-35698495D01*
X104642098Y-35620474D01*
X104442139Y-35580700D01*
X104380002Y-35580700D01*
X104132062Y-35332760D01*
X122630000Y-35332760D01*
X122630000Y-35497240D01*
X122662089Y-35658560D01*
X122725033Y-35810521D01*
X122816413Y-35947281D01*
X122932719Y-36063587D01*
X123009664Y-36115000D01*
X122932719Y-36166413D01*
X122816413Y-36282719D01*
X122725033Y-36419479D01*
X122662089Y-36571440D01*
X122630000Y-36732760D01*
X122630000Y-36897240D01*
X122662089Y-37058560D01*
X122725033Y-37210521D01*
X122816413Y-37347281D01*
X122932719Y-37463587D01*
X123069479Y-37554967D01*
X123221440Y-37617911D01*
X123338754Y-37641246D01*
X123362089Y-37758560D01*
X123425033Y-37910521D01*
X123516413Y-38047281D01*
X123632719Y-38163587D01*
X123769479Y-38254967D01*
X123921440Y-38317911D01*
X124082760Y-38350000D01*
X124247240Y-38350000D01*
X124408560Y-38317911D01*
X124560521Y-38254967D01*
X124697281Y-38163587D01*
X124813587Y-38047281D01*
X124865000Y-37970336D01*
X124916413Y-38047281D01*
X125032719Y-38163587D01*
X125169479Y-38254967D01*
X125321440Y-38317911D01*
X125482760Y-38350000D01*
X125647240Y-38350000D01*
X125808560Y-38317911D01*
X125960521Y-38254967D01*
X126097281Y-38163587D01*
X126213587Y-38047281D01*
X126304967Y-37910521D01*
X126367911Y-37758560D01*
X126391246Y-37641246D01*
X126508560Y-37617911D01*
X126660521Y-37554967D01*
X126797281Y-37463587D01*
X126913587Y-37347281D01*
X127004967Y-37210521D01*
X127067911Y-37058560D01*
X127100000Y-36897240D01*
X127100000Y-36732760D01*
X127067911Y-36571440D01*
X127004967Y-36419479D01*
X126913587Y-36282719D01*
X126797281Y-36166413D01*
X126720336Y-36115000D01*
X126797281Y-36063587D01*
X126913587Y-35947281D01*
X127004967Y-35810521D01*
X127067911Y-35658560D01*
X127100000Y-35497240D01*
X127100000Y-35332760D01*
X127067911Y-35171440D01*
X127004967Y-35019479D01*
X126913587Y-34882719D01*
X126797281Y-34766413D01*
X126660521Y-34675033D01*
X126508560Y-34612089D01*
X126391246Y-34588754D01*
X126367911Y-34471440D01*
X126304967Y-34319479D01*
X126213587Y-34182719D01*
X126097281Y-34066413D01*
X125960521Y-33975033D01*
X125808560Y-33912089D01*
X125647240Y-33880000D01*
X125482760Y-33880000D01*
X125321440Y-33912089D01*
X125169479Y-33975033D01*
X125032719Y-34066413D01*
X124916413Y-34182719D01*
X124865000Y-34259664D01*
X124813587Y-34182719D01*
X124697281Y-34066413D01*
X124560521Y-33975033D01*
X124408560Y-33912089D01*
X124247240Y-33880000D01*
X124082760Y-33880000D01*
X123921440Y-33912089D01*
X123769479Y-33975033D01*
X123632719Y-34066413D01*
X123516413Y-34182719D01*
X123425033Y-34319479D01*
X123362089Y-34471440D01*
X123338754Y-34588754D01*
X123221440Y-34612089D01*
X123069479Y-34675033D01*
X122932719Y-34766413D01*
X122816413Y-34882719D01*
X122725033Y-35019479D01*
X122662089Y-35171440D01*
X122630000Y-35332760D01*
X104132062Y-35332760D01*
X101381263Y-32581961D01*
X131217600Y-32581961D01*
X131217600Y-32785839D01*
X131257374Y-32985798D01*
X131335395Y-33174156D01*
X131448663Y-33343674D01*
X131592826Y-33487837D01*
X131762344Y-33601105D01*
X131950702Y-33679126D01*
X132150661Y-33718900D01*
X132354539Y-33718900D01*
X132554498Y-33679126D01*
X132742856Y-33601105D01*
X132912374Y-33487837D01*
X132950355Y-33449856D01*
X136192600Y-36692102D01*
X136192600Y-36754239D01*
X136232374Y-36954198D01*
X136310395Y-37142556D01*
X136423663Y-37312074D01*
X136567826Y-37456237D01*
X136737344Y-37569505D01*
X136925702Y-37647526D01*
X137125661Y-37687300D01*
X137329539Y-37687300D01*
X137529498Y-37647526D01*
X137717856Y-37569505D01*
X137887374Y-37456237D01*
X138031537Y-37312074D01*
X138144805Y-37142556D01*
X138222826Y-36954198D01*
X138262600Y-36754239D01*
X138262600Y-36550361D01*
X138222826Y-36350402D01*
X138144805Y-36162044D01*
X138031537Y-35992526D01*
X137887374Y-35848363D01*
X137717856Y-35735095D01*
X137529498Y-35657074D01*
X137329539Y-35617300D01*
X137267402Y-35617300D01*
X136982862Y-35332760D01*
X156285000Y-35332760D01*
X156285000Y-35497240D01*
X156317089Y-35658560D01*
X156380033Y-35810521D01*
X156471413Y-35947281D01*
X156587719Y-36063587D01*
X156664664Y-36115000D01*
X156587719Y-36166413D01*
X156471413Y-36282719D01*
X156380033Y-36419479D01*
X156317089Y-36571440D01*
X156285000Y-36732760D01*
X156285000Y-36897240D01*
X156317089Y-37058560D01*
X156380033Y-37210521D01*
X156471413Y-37347281D01*
X156587719Y-37463587D01*
X156724479Y-37554967D01*
X156876440Y-37617911D01*
X156993754Y-37641246D01*
X157017089Y-37758560D01*
X157080033Y-37910521D01*
X157171413Y-38047281D01*
X157287719Y-38163587D01*
X157424479Y-38254967D01*
X157576440Y-38317911D01*
X157737760Y-38350000D01*
X157902240Y-38350000D01*
X158063560Y-38317911D01*
X158215521Y-38254967D01*
X158352281Y-38163587D01*
X158468587Y-38047281D01*
X158520000Y-37970336D01*
X158571413Y-38047281D01*
X158687719Y-38163587D01*
X158824479Y-38254967D01*
X158976440Y-38317911D01*
X159137760Y-38350000D01*
X159302240Y-38350000D01*
X159463560Y-38317911D01*
X159615521Y-38254967D01*
X159752281Y-38163587D01*
X159868587Y-38047281D01*
X159959967Y-37910521D01*
X160022911Y-37758560D01*
X160046246Y-37641246D01*
X160163560Y-37617911D01*
X160315521Y-37554967D01*
X160452281Y-37463587D01*
X160568587Y-37347281D01*
X160659967Y-37210521D01*
X160722911Y-37058560D01*
X160755000Y-36897240D01*
X160755000Y-36732760D01*
X160722911Y-36571440D01*
X160659967Y-36419479D01*
X160568587Y-36282719D01*
X160452281Y-36166413D01*
X160375336Y-36115000D01*
X160452281Y-36063587D01*
X160568587Y-35947281D01*
X160659967Y-35810521D01*
X160722911Y-35658560D01*
X160755000Y-35497240D01*
X160755000Y-35332760D01*
X160722911Y-35171440D01*
X160659967Y-35019479D01*
X160568587Y-34882719D01*
X160452281Y-34766413D01*
X160315521Y-34675033D01*
X160163560Y-34612089D01*
X160046246Y-34588754D01*
X160022911Y-34471440D01*
X159959967Y-34319479D01*
X159868587Y-34182719D01*
X159752281Y-34066413D01*
X159615521Y-33975033D01*
X159463560Y-33912089D01*
X159302240Y-33880000D01*
X159137760Y-33880000D01*
X158976440Y-33912089D01*
X158824479Y-33975033D01*
X158687719Y-34066413D01*
X158571413Y-34182719D01*
X158520000Y-34259664D01*
X158468587Y-34182719D01*
X158352281Y-34066413D01*
X158215521Y-33975033D01*
X158063560Y-33912089D01*
X157902240Y-33880000D01*
X157737760Y-33880000D01*
X157576440Y-33912089D01*
X157424479Y-33975033D01*
X157287719Y-34066413D01*
X157171413Y-34182719D01*
X157080033Y-34319479D01*
X157017089Y-34471440D01*
X156993754Y-34588754D01*
X156876440Y-34612089D01*
X156724479Y-34675033D01*
X156587719Y-34766413D01*
X156471413Y-34882719D01*
X156380033Y-35019479D01*
X156317089Y-35171440D01*
X156285000Y-35332760D01*
X136982862Y-35332760D01*
X134041563Y-32391461D01*
X158691200Y-32391461D01*
X158691200Y-32595339D01*
X158730974Y-32795298D01*
X158808995Y-32983656D01*
X158922263Y-33153174D01*
X159066426Y-33297337D01*
X159235944Y-33410605D01*
X159424302Y-33488626D01*
X159624261Y-33528400D01*
X159828139Y-33528400D01*
X160028098Y-33488626D01*
X160216456Y-33410605D01*
X160385974Y-33297337D01*
X160429911Y-33253400D01*
X166531199Y-33253400D01*
X169980200Y-36702402D01*
X169980200Y-36764539D01*
X170019974Y-36964498D01*
X170097995Y-37152856D01*
X170211263Y-37322374D01*
X170355426Y-37466537D01*
X170524944Y-37579805D01*
X170713302Y-37657826D01*
X170913261Y-37697600D01*
X171117139Y-37697600D01*
X171317098Y-37657826D01*
X171505456Y-37579805D01*
X171674974Y-37466537D01*
X171819137Y-37322374D01*
X171932405Y-37152856D01*
X172010426Y-36964498D01*
X172050200Y-36764539D01*
X172050200Y-36560661D01*
X172010426Y-36360702D01*
X171932405Y-36172344D01*
X171819137Y-36002826D01*
X171674974Y-35858663D01*
X171505456Y-35745395D01*
X171317098Y-35667374D01*
X171117139Y-35627600D01*
X171055002Y-35627600D01*
X167409804Y-31982403D01*
X167386001Y-31953399D01*
X167270276Y-31858426D01*
X167138247Y-31787854D01*
X166994986Y-31744397D01*
X166883333Y-31733400D01*
X166883322Y-31733400D01*
X166846000Y-31729724D01*
X166808678Y-31733400D01*
X160429911Y-31733400D01*
X160385974Y-31689463D01*
X160216456Y-31576195D01*
X160028098Y-31498174D01*
X159828139Y-31458400D01*
X159624261Y-31458400D01*
X159424302Y-31498174D01*
X159235944Y-31576195D01*
X159066426Y-31689463D01*
X158922263Y-31833626D01*
X158808995Y-32003144D01*
X158730974Y-32191502D01*
X158691200Y-32391461D01*
X134041563Y-32391461D01*
X133823004Y-32172903D01*
X133799201Y-32143899D01*
X133683476Y-32048926D01*
X133551447Y-31978354D01*
X133408186Y-31934897D01*
X133296533Y-31923900D01*
X133296522Y-31923900D01*
X133259200Y-31920224D01*
X133221878Y-31923900D01*
X132956311Y-31923900D01*
X132912374Y-31879963D01*
X132742856Y-31766695D01*
X132554498Y-31688674D01*
X132354539Y-31648900D01*
X132150661Y-31648900D01*
X131950702Y-31688674D01*
X131762344Y-31766695D01*
X131592826Y-31879963D01*
X131448663Y-32024126D01*
X131335395Y-32193644D01*
X131257374Y-32382002D01*
X131217600Y-32581961D01*
X101381263Y-32581961D01*
X100518704Y-31719403D01*
X100494901Y-31690399D01*
X100379176Y-31595426D01*
X100247147Y-31524854D01*
X100103886Y-31481397D01*
X99992233Y-31470400D01*
X99992222Y-31470400D01*
X99954900Y-31466724D01*
X99917578Y-31470400D01*
X94091511Y-31470400D01*
X94047574Y-31426463D01*
X93878056Y-31313195D01*
X93689698Y-31235174D01*
X93489739Y-31195400D01*
X93285861Y-31195400D01*
X93085902Y-31235174D01*
X92897544Y-31313195D01*
X92728026Y-31426463D01*
X92583863Y-31570626D01*
X92470595Y-31740144D01*
X92403186Y-31902884D01*
X90580304Y-30080003D01*
X90556501Y-30050999D01*
X90440776Y-29956026D01*
X90308747Y-29885454D01*
X90165486Y-29841997D01*
X90053833Y-29831000D01*
X90053822Y-29831000D01*
X90016500Y-29827324D01*
X89979178Y-29831000D01*
X60001822Y-29831000D01*
X59964499Y-29827324D01*
X59927176Y-29831000D01*
X59927167Y-29831000D01*
X59815514Y-29841997D01*
X59672253Y-29885454D01*
X59540224Y-29956026D01*
X59424499Y-30050999D01*
X59400701Y-30079997D01*
X57681399Y-31799300D01*
X57619261Y-31799300D01*
X57419302Y-31839074D01*
X57230944Y-31917095D01*
X57061426Y-32030363D01*
X56917263Y-32174526D01*
X56803995Y-32344044D01*
X56725974Y-32532402D01*
X56722994Y-32547386D01*
X56699939Y-32542800D01*
X56496061Y-32542800D01*
X56296102Y-32582574D01*
X56107744Y-32660595D01*
X55938226Y-32773863D01*
X55794063Y-32918026D01*
X55680795Y-33087544D01*
X55602774Y-33275902D01*
X55563000Y-33475861D01*
X36855000Y-33475861D01*
X36855000Y-20352279D01*
X36869722Y-20202131D01*
X36903953Y-20088754D01*
X36959555Y-19984181D01*
X37034407Y-19892404D01*
X37125664Y-19816909D01*
X37229844Y-19760581D01*
X37342976Y-19725560D01*
X37491022Y-19710000D01*
X82804000Y-19710000D01*
X82804000Y-27432000D01*
G37*
%TD.AperFunction*%
D17*
X149733000Y-27005800D02*
X140318511Y-27005800D01*
X140274574Y-26961863D01*
X140105056Y-26848595D01*
X139916698Y-26770574D01*
X139716739Y-26730800D01*
X139512861Y-26730800D01*
X139312902Y-26770574D01*
X139124544Y-26848595D01*
X138955026Y-26961863D01*
X138810863Y-27106026D01*
X138798586Y-27124400D01*
X137033000Y-27124400D01*
X137033000Y-19710000D01*
X149733000Y-19710000D01*
X149733000Y-27005800D01*
%TA.AperFunction,Conductor*%
D18*
G36*
X149733000Y-27005800D02*
G01*
X140318511Y-27005800D01*
X140274574Y-26961863D01*
X140105056Y-26848595D01*
X139916698Y-26770574D01*
X139716739Y-26730800D01*
X139512861Y-26730800D01*
X139312902Y-26770574D01*
X139124544Y-26848595D01*
X138955026Y-26961863D01*
X138810863Y-27106026D01*
X138798586Y-27124400D01*
X137033000Y-27124400D01*
X137033000Y-19710000D01*
X149733000Y-19710000D01*
X149733000Y-27005800D01*
G37*
%TD.AperFunction*%
%TD*%
M02*
