M48
; DRILL file {KiCad (5.1.12)-1} date 05/26/22 18:44:30
; FORMAT={-:-/ absolute / metric / decimal}
; #@! TF.CreationDate,2022-05-26T18:44:30+02:00
; #@! TF.GenerationSoftware,Kicad,Pcbnew,(5.1.12)-1
; #@! TF.FileFunction,Plated,1,2,PTH
FMAT,2
METRIC
T1C0.200
T2C0.400
T3C0.500
T4C0.600
T5C1.520
%
G90
G05
T1
X51.86Y-59.22
X51.86Y-60.62
X51.86Y-91.605
X51.86Y-93.005
X52.56Y-58.52
X52.56Y-59.92
X52.56Y-61.32
X52.56Y-90.905
X52.56Y-92.305
X52.56Y-93.705
X53.26Y-59.22
X53.26Y-60.62
X53.26Y-91.605
X53.26Y-93.005
X53.96Y-58.52
X53.96Y-59.92
X53.96Y-61.32
X53.96Y-90.905
X53.96Y-92.305
X53.96Y-93.705
X54.66Y-59.22
X54.66Y-60.62
X54.66Y-91.605
X54.66Y-93.005
X90.445Y-35.415
X90.445Y-36.815
X91.145Y-34.715
X91.145Y-36.115
X91.145Y-37.515
X91.845Y-35.415
X91.845Y-36.815
X92.545Y-34.715
X92.545Y-36.115
X92.545Y-37.515
X93.245Y-35.415
X93.245Y-36.815
X93.445Y-90.82
X93.445Y-92.22
X94.145Y-90.12
X94.145Y-91.52
X94.145Y-92.92
X94.845Y-90.82
X94.845Y-92.22
X95.545Y-90.12
X95.545Y-91.52
X95.545Y-92.92
X96.245Y-90.82
X96.245Y-92.22
X123.465Y-35.415
X123.465Y-36.815
X124.165Y-34.715
X124.165Y-36.115
X124.165Y-37.515
X124.865Y-35.415
X124.865Y-36.815
X125.565Y-34.715
X125.565Y-36.115
X125.565Y-37.515
X126.265Y-35.415
X126.265Y-36.815
X126.465Y-90.82
X126.465Y-92.22
X127.165Y-90.12
X127.165Y-91.52
X127.165Y-92.92
X127.865Y-90.82
X127.865Y-92.22
X128.565Y-90.12
X128.565Y-91.52
X128.565Y-92.92
X129.265Y-90.82
X129.265Y-92.22
X157.12Y-35.415
X157.12Y-36.815
X157.82Y-34.715
X157.82Y-36.115
X157.82Y-37.515
X158.52Y-35.415
X158.52Y-36.815
X159.22Y-34.715
X159.22Y-36.115
X159.22Y-37.515
X159.92Y-35.415
X159.92Y-36.815
X160.12Y-90.82
X160.12Y-92.22
X160.82Y-90.12
X160.82Y-91.52
X160.82Y-92.92
X161.52Y-90.82
X161.52Y-92.22
X162.22Y-90.12
X162.22Y-91.52
X162.22Y-92.92
X162.92Y-90.82
X162.92Y-92.22
X198.07Y-46.06
X198.07Y-47.46
X198.07Y-78.445
X198.07Y-79.845
X198.77Y-45.36
X198.77Y-46.76
X198.77Y-48.16
X198.77Y-77.745
X198.77Y-79.145
X198.77Y-80.545
X199.47Y-46.06
X199.47Y-47.46
X199.47Y-78.445
X199.47Y-79.845
X200.17Y-45.36
X200.17Y-46.76
X200.17Y-48.16
X200.17Y-77.745
X200.17Y-79.145
X200.17Y-80.545
X200.87Y-46.06
X200.87Y-47.46
X200.87Y-78.445
X200.87Y-79.845
T2
X45.533Y-102.752
X45.72Y-73.402
X46.863Y-87.63
X46.863Y-91.694
X47.371Y-58.166
X48.895Y-104.648
X50.292Y-77.089
X50.927Y-46.482
X51.435Y-52.07
X51.435Y-74.422
X51.562Y-107.442
X51.689Y-69.723
X51.747Y-58.428
X52.07Y-109.855
X54.737Y-69.342
X55.88Y-35.687
X56.598Y-33.578
X56.642Y-30.353
X57.721Y-32.834
X58.354Y-34.111
X59.289Y-32.734
X66.167Y-43.942
X66.167Y-56.642
X66.675Y-37.338
X66.675Y-49.53
X67.183Y-92.71
X69.215Y-25.26
X70.231Y-83.058
X70.358Y-29.337
X70.485Y-36.068
X72.136Y-54.229
X72.263Y-86.487
X72.771Y-44.45
X73.352Y-31.341
X75.76Y-36.032
X77.851Y-72.898
X78.359Y-27.686
X78.867Y-42.926
X81.915Y-71.374
X82.09Y-33.529
X83.439Y-50.038
X86.181Y-33.56
X86.514Y-44.582
X86.672Y-35.646
X87.938Y-38.285
X88.403Y-44.536
X88.761Y-36.868
X89.662Y-53.467
X90.551Y-63.754
X90.551Y-73.406
X92.075Y-73.914
X92.631Y-49.112
X92.96Y-73.193
X93.388Y-32.23
X93.599Y-41.91
X93.778Y-44.582
X94.331Y-34.905
X96.012Y-87.503
X97.751Y-55.036
X99.187Y-37.846
X100.118Y-92.154
X100.836Y-51.904
X101.219Y-76.454
X104.34Y-36.616
X104.862Y-99.526
X105.918Y-95.885
X106.426Y-87.249
X106.82Y-83.82
X107.061Y-29.083
X108.966Y-38.1
X109.093Y-30.734
X109.093Y-34.544
X109.389Y-25.4
X109.855Y-90.932
X110.49Y-94.361
X110.871Y-74.93
X115.951Y-62.738
X120.523Y-41.91
X121.031Y-52.578
X121.192Y-44.652
X122.428Y-49.784
X124.14Y-71.095
X124.403Y-43.95
X128.651Y-63.754
X130.048Y-88.138
X130.907Y-55.205
X132.253Y-32.684
X132.253Y-91.547
X132.715Y-76.454
X135.007Y-52.805
X135.255Y-67.818
X137.228Y-36.652
X137.287Y-79.502
X137.922Y-25.527
X138.423Y-99.726
X139.615Y-27.766
X139.954Y-29.21
X140.716Y-95.885
X140.97Y-39.37
X141.859Y-55.118
X142.24Y-34.417
X142.621Y-30.607
X146.05Y-91.186
X152.929Y-41.385
X154.297Y-43.95
X155.422Y-53.271
X158.115Y-74.803
X159.726Y-32.493
X164.695Y-83.945
X165.227Y-42.926
X167.217Y-72.525
X167.767Y-69.342
X168.117Y-55.107
X170.754Y-87.578
X170.815Y-46.99
X171.015Y-36.663
X171.737Y-97.617
X172.466Y-29.21
X172.695Y-73.066
X174.498Y-94.361
X174.752Y-37.719
X175.387Y-61.722
X175.895Y-34.417
X177.292Y-89.916
X177.419Y-78.994
X179.182Y-50.952
X185.039Y-45.72
X186.309Y-78.232
X187.071Y-84.963
X193.167Y-49.53
X194.675Y-92.229
X194.963Y-59.447
X195.775Y-55.264
X196.363Y-28.592
X198.628Y-49.53
X200.256Y-61.208
X200.787Y-52.578
X202.311Y-74.549
X202.565Y-63.119
X203.327Y-91.44
X204.095Y-73.266
X205.486Y-87.122
X205.74Y-59.69
X205.74Y-92.837
T5
X179.07Y-24.13
X184.15Y-24.13
T3
G00X188.72Y-26.405
M15
G01X188.72Y-25.205
M16
G05
G00X197.36Y-26.405
M15
G01X197.36Y-25.205
M16
G05
T4
G00X188.72Y-21.925
M15
G01X188.72Y-21.325
M16
G05
G00X197.36Y-21.925
M15
G01X197.36Y-21.325
M16
G05
T0
M30
